<svg width="48" height="48" viewBox="0 0 48 48" fill="none" xmlns="http://www.w3.org/2000/svg">
<circle cx="24" cy="24" r="24" fill="#E5EAFC"/>
<g clip-path="url(#clip0_1082_3695)">
<path d="M33.5157 14.1563C33.7587 14.3687 33.9939 14.589 34.2266 14.8125C34.2757 14.8593 34.3248 14.9062 34.3753 14.9544C34.6989 15.27 34.9875 15.6049 35.2657 15.961C35.3236 16.0339 35.3236 16.0339 35.3828 16.1084C36.4902 17.5386 37.2617 19.1688 37.6924 20.9239C37.711 20.9993 37.711 20.9993 37.73 21.0762C37.9536 22.0484 38.0304 23.0116 38.024 24.0069C38.0237 24.091 38.0237 24.091 38.0234 24.1768C38.0192 25.0637 37.9783 25.921 37.7813 26.7891C37.7611 26.8785 37.7611 26.8785 37.7404 26.9697C37.4752 28.1014 37.0705 29.1557 36.5235 30.1797C36.5043 30.2161 36.485 30.2524 36.4652 30.2899C35.9122 31.3283 35.1982 32.2249 34.3907 33.0782C34.3428 33.129 34.295 33.1798 34.2456 33.2322C33.867 33.623 33.4592 33.9567 33.0235 34.2813C32.9762 34.3167 32.9762 34.3167 32.928 34.3529C30.2446 36.3521 26.8452 37.2271 23.5271 36.7646C20.1803 36.2457 17.1067 34.5139 15.086 31.7657C15.0471 31.7149 15.0082 31.6641 14.9681 31.6119C14.7082 31.2625 14.5736 30.9804 14.5972 30.5352C14.648 30.1925 14.8264 29.9261 15.0792 29.6944C15.4043 29.4733 15.701 29.4396 16.0838 29.4891C16.637 29.6154 16.9036 30.0685 17.216 30.5017C17.4473 30.8193 17.7123 31.1003 17.9844 31.3828C18.0222 31.424 18.0599 31.4652 18.0987 31.5076C19.9051 33.4215 22.6258 34.3612 25.2032 34.4453C25.5698 34.449 25.9323 34.4274 26.2969 34.3907C26.3402 34.3864 26.3835 34.3821 26.428 34.3777C28.6533 34.1389 30.7571 33.1526 32.3672 31.6016C32.3964 31.5738 32.4256 31.5461 32.4556 31.5175C33.1709 30.8341 33.7264 30.1022 34.2266 29.25C34.2477 29.2146 34.2688 29.1791 34.2905 29.1425C35.6554 26.815 35.8976 24.0044 35.2518 21.4191C34.7317 19.4628 33.5803 17.51 31.9844 16.2344C31.9336 16.1931 31.8828 16.1518 31.8304 16.1092C31.3771 15.747 30.8983 15.4347 30.3985 15.1407C30.3654 15.1211 30.3323 15.1015 30.2982 15.0813C28.9026 14.2661 27.2513 13.8339 25.6407 13.7735C25.5822 13.7712 25.5238 13.769 25.4636 13.7666C22.6429 13.7136 20.0085 14.8538 17.9844 16.7813C17.9458 16.817 17.9072 16.8528 17.8674 16.8896C16.7125 17.9905 15.9118 19.495 15.4141 20.9922C15.3988 21.0382 15.3834 21.0841 15.3676 21.1314C15.3283 21.249 15.2891 21.3667 15.2501 21.4844C15.3005 21.4505 15.3509 21.4165 15.4029 21.3816C15.5918 21.2547 15.7812 21.1286 15.9707 21.0028C16.0524 20.9484 16.1339 20.8938 16.2152 20.839C16.3329 20.7599 16.451 20.6815 16.5692 20.6032C16.6049 20.5789 16.6407 20.5547 16.6775 20.5297C17.0445 20.2887 17.4197 20.1209 17.8644 20.1961C18.2697 20.2992 18.4681 20.4656 18.6883 20.8215C18.8322 21.0918 18.8298 21.3493 18.8047 21.6485C18.6726 22.0659 18.4588 22.3067 18.1009 22.5399C18.0423 22.5785 17.9837 22.6171 17.9233 22.6568C17.8899 22.6787 17.8565 22.7007 17.8222 22.7233C17.6028 22.8685 17.3851 23.0162 17.1671 23.1635C17.0666 23.2314 16.966 23.2992 16.8655 23.3671C16.7111 23.4713 16.5567 23.5755 16.4023 23.6798C16.352 23.7138 16.3017 23.7478 16.2498 23.7828C16.1997 23.8166 16.1495 23.8505 16.0979 23.8854C15.9482 23.9863 15.7984 24.087 15.6486 24.1877C15.4591 24.3152 15.2705 24.4439 15.0826 24.5737C15.0388 24.6037 14.995 24.6337 14.9498 24.6646C14.8687 24.72 14.7879 24.7759 14.7074 24.8324C14.3219 25.0945 13.9371 25.2524 13.468 25.1827C12.6922 24.9818 12.2818 24.0375 11.8765 23.4156C11.7551 23.2298 11.6335 23.0441 11.5119 22.8584C11.4663 22.7887 11.4663 22.7887 11.4197 22.7176C11.2206 22.4137 11.0199 22.1109 10.8176 21.8091C10.792 21.7709 10.7665 21.7328 10.7401 21.6935C10.643 21.5485 10.5458 21.4037 10.4483 21.259C10.3824 21.1614 10.3168 21.0637 10.2513 20.9659C10.2144 20.9113 10.1776 20.8567 10.1397 20.8004C9.93005 20.464 9.9463 20.0101 10.0001 19.625C10.1115 19.3281 10.3105 19.0881 10.5993 18.9498C10.9589 18.8349 11.3368 18.8127 11.69 18.9566C12.2634 19.2908 12.6091 20.063 12.9532 20.6094C12.9733 20.5472 12.9733 20.5472 12.9938 20.4838C13.8321 17.9169 15.2013 15.5447 17.3829 13.8828C17.414 13.8591 17.445 13.8354 17.4771 13.8109C19.3521 12.386 21.4957 11.4917 23.836 11.2032C23.8958 11.1954 23.8958 11.1954 23.9568 11.1875C27.3685 10.7918 30.9123 11.9383 33.5157 14.1563Z" fill="#2752E7"/>
<path d="M25.9898 17.1795C26.2228 17.4265 26.3691 17.7477 26.3724 18.0876C26.3677 18.182 26.3615 18.2764 26.354 18.3706C26.3482 18.4787 26.3424 18.5868 26.3366 18.6948C26.3313 18.7798 26.3313 18.7798 26.3259 18.8664C26.3078 19.1717 26.2974 19.4773 26.2868 19.783C26.2846 19.8467 26.2824 19.9104 26.2802 19.976C26.095 22.383 26.095 22.383 27.0097 24.5023C27.3927 24.8892 27.8301 25.2136 28.3009 25.4854C28.5225 25.6176 28.675 25.774 28.8365 25.974C28.9253 26.082 29.0203 26.1781 29.1212 26.2748C29.17 26.3219 29.17 26.3219 29.2199 26.37C29.2862 26.4334 29.3529 26.4965 29.4198 26.5593C29.6744 26.8063 29.8162 27.0189 29.8774 27.3763C29.8821 27.7625 29.8067 28.0589 29.5783 28.375C29.311 28.6294 29.0562 28.7121 28.6931 28.7202C28.6039 28.7232 28.6039 28.7232 28.513 28.7264C28.0192 28.6666 27.7197 28.3517 27.3872 28.0118C27.3185 27.9428 27.3185 27.9428 27.2484 27.8724C27.1028 27.726 26.958 27.5788 26.8132 27.4316C26.7157 27.3335 26.6182 27.2354 26.5206 27.1374C26.4266 27.0427 26.3327 26.9479 26.2388 26.8531C26.1955 26.8094 26.1521 26.7657 26.1075 26.7207C25.8815 26.4908 25.6644 26.2562 25.4538 26.0121C25.3328 25.8748 25.2038 25.7471 25.0726 25.6196C25.0197 25.5677 24.9669 25.5158 24.9141 25.4639C24.8328 25.3843 24.7513 25.3048 24.6696 25.2256C24.5894 25.1477 24.5097 25.0693 24.43 24.9907C24.3829 24.9448 24.3358 24.8989 24.2873 24.8516C23.9797 24.4997 23.976 24.1881 23.9772 23.74C23.9768 23.6756 23.9763 23.6112 23.9758 23.5448C23.9748 23.3687 23.9745 23.1927 23.9746 23.0167C23.9746 22.8693 23.9741 22.722 23.9736 22.5747C23.9726 22.227 23.9724 21.8793 23.9728 21.5315C23.9732 21.1736 23.9719 20.8157 23.9699 20.4577C23.9682 20.1497 23.9676 19.8417 23.9678 19.5337C23.9679 19.35 23.9676 19.1664 23.9663 18.9827C23.9651 18.7777 23.9656 18.5728 23.9666 18.3678C23.9658 18.3075 23.9651 18.2472 23.9644 18.1851C23.9684 17.8114 24.0292 17.5617 24.2736 17.2734C24.7435 16.8379 25.4732 16.7391 25.9898 17.1795Z" fill="#2752E7"/>
</g>
<defs>
<clipPath id="clip0_1082_3695">
<rect width="28" height="28" fill="white" transform="translate(10 10)"/>
</clipPath>
</defs>
</svg>
