<svg width="20" height="20" viewBox="0 0 20 20" fill="none" xmlns="http://www.w3.org/2000/svg">
<rect width="20" height="20" rx="4" fill="black" fill-opacity="0.04"/>
<mask id="mask0_408_2080" style="mask-type:alpha" maskUnits="userSpaceOnUse" x="4" y="4" width="12" height="12">
<rect x="4" y="4" width="12" height="12" fill="#D9D9D9"/>
</mask>
<g mask="url(#mask0_408_2080)">
<path d="M8.52888 12.75C8.27629 12.75 8.0625 12.6625 7.8875 12.4875C7.7125 12.3125 7.625 12.0987 7.625 11.8461V6.15387C7.625 5.90129 7.7125 5.6875 7.8875 5.5125C8.0625 5.3375 8.27629 5.25 8.52888 5.25H12.7211C12.9737 5.25 13.1875 5.3375 13.3625 5.5125C13.5375 5.6875 13.625 5.90129 13.625 6.15387V11.8461C13.625 12.0987 13.5375 12.3125 13.3625 12.4875C13.1875 12.6625 12.9737 12.75 12.7211 12.75H8.52888ZM8.52888 12H12.7211C12.7596 12 12.7949 11.984 12.8269 11.9519C12.859 11.9199 12.875 11.8846 12.875 11.8461V6.15387C12.875 6.11537 12.859 6.08012 12.8269 6.04812C12.7949 6.01604 12.7596 6 12.7211 6H8.52888C8.49038 6 8.45513 6.01604 8.42313 6.04812C8.39104 6.08012 8.375 6.11537 8.375 6.15387V11.8461C8.375 11.8846 8.39104 11.9199 8.42313 11.9519C8.45513 11.984 8.49038 12 8.52888 12ZM6.77887 14.5C6.52629 14.5 6.3125 14.4125 6.1375 14.2375C5.9625 14.0625 5.875 13.8487 5.875 13.5961V7.52888C5.875 7.42246 5.91092 7.33333 5.98275 7.2615C6.0545 7.18975 6.14358 7.15387 6.25 7.15387C6.35642 7.15387 6.44554 7.18975 6.51737 7.2615C6.58912 7.33333 6.625 7.42246 6.625 7.52888V13.5961C6.625 13.6346 6.64104 13.6699 6.67313 13.7019C6.70513 13.734 6.74037 13.75 6.77887 13.75H11.3461C11.4525 13.75 11.5417 13.7859 11.6135 13.8576C11.6853 13.9295 11.7211 14.0186 11.7211 14.125C11.7211 14.2314 11.6853 14.3205 11.6135 14.3923C11.5417 14.4641 11.4525 14.5 11.3461 14.5H6.77887Z" fill="#686868"/>
</g>
</svg>
