<svg width="48" height="48" viewBox="0 0 48 48" fill="none" xmlns="http://www.w3.org/2000/svg">
<circle cx="24" cy="24" r="24" fill="#E5EAFC"/>
<mask id="mask0_408_2257" style="mask-type:alpha" maskUnits="userSpaceOnUse" x="10" y="10" width="28" height="28">
<rect x="10" y="10" width="28" height="28" fill="#D9D9D9"/>
</mask>
<g mask="url(#mask0_408_2257)">
<path d="M16.192 33.9167C15.6103 33.9167 15.1133 33.7107 14.701 33.2987C14.289 32.8864 14.083 32.3894 14.083 31.8077V16.1924C14.083 15.6106 14.289 15.1136 14.701 14.7014C15.1133 14.2894 15.6103 14.0834 16.192 14.0834H31.8073C32.3891 14.0834 32.8861 14.2894 33.2983 14.7014C33.7103 15.1136 33.9163 15.6106 33.9163 16.1924V19.3672H32.1663V16.1924C32.1663 16.0876 32.1327 16.0016 32.0654 15.9343C31.9981 15.867 31.9121 15.8334 31.8073 15.8334H16.192C16.0872 15.8334 16.0012 15.867 15.9339 15.9343C15.8666 16.0016 15.833 16.0876 15.833 16.1924V31.8077C15.833 31.9125 15.8666 31.9985 15.9339 32.0658C16.0012 32.1331 16.0872 32.1667 16.192 32.1667H31.8073C31.9121 32.1667 31.9981 32.1331 32.0654 32.0658C32.1327 31.9985 32.1663 31.9125 32.1663 31.8077V28.6329H33.9163V31.8077C33.9163 32.3894 33.7103 32.8864 33.2983 33.2987C32.8861 33.7107 32.3891 33.9167 31.8073 33.9167H16.192ZM25.5254 29.25C24.9436 29.25 24.4466 29.044 24.0344 28.632C23.6224 28.2198 23.4163 27.7228 23.4163 27.141V20.8591C23.4163 20.2773 23.6224 19.7803 24.0344 19.3681C24.4466 18.9561 24.9436 18.75 25.5254 18.75H32.974C33.5557 18.75 34.0527 18.9561 34.465 19.3681C34.877 19.7803 35.083 20.2773 35.083 20.8591V27.141C35.083 27.7228 34.877 28.2198 34.465 28.632C34.0527 29.044 33.5557 29.25 32.974 29.25H25.5254ZM32.974 27.5C33.0788 27.5 33.1648 27.4664 33.2321 27.3991C33.2994 27.3318 33.333 27.2458 33.333 27.141V20.8591C33.333 20.7543 33.2994 20.6682 33.2321 20.601C33.1648 20.5337 33.0788 20.5 32.974 20.5H25.5254C25.4206 20.5 25.3345 20.5337 25.2673 20.601C25.2 20.6682 25.1663 20.7543 25.1663 20.8591V27.141C25.1663 27.2458 25.2 27.3318 25.2673 27.3991C25.3345 27.4664 25.4206 27.5 25.5254 27.5H32.974ZM28.6663 25.75C29.1525 25.75 29.5656 25.5799 29.9059 25.2396C30.2462 24.8993 30.4163 24.4862 30.4163 24C30.4163 23.5139 30.2462 23.1007 29.9059 22.7605C29.5656 22.4202 29.1525 22.25 28.6663 22.25C28.1802 22.25 27.767 22.4202 27.4268 22.7605C27.0865 23.1007 26.9163 23.5139 26.9163 24C26.9163 24.4862 27.0865 24.8993 27.4268 25.2396C27.767 25.5799 28.1802 25.75 28.6663 25.75Z" fill="#2752E7"/>
</g>
</svg>
