<svg width="37" height="37" viewBox="0 0 37 37" fill="none" xmlns="http://www.w3.org/2000/svg">
<mask id="mask0_408_2827" style="mask-type:alpha" maskUnits="userSpaceOnUse" x="-1" y="0" width="38" height="37">
<rect x="4.39532" width="32" height="32" transform="rotate(7.89474 4.39532 0)" fill="#9A6135"/>
</mask>
<g mask="url(#mask0_408_2827)">
<path d="M7.33582 27.3291L7.70209 24.6878L26.1918 27.2517L25.8256 29.8931L7.33582 27.3291ZM7.9768 22.7067L7.7626 11.8746C7.71858 11.8685 7.66829 11.8672 7.61173 11.8705C7.55518 11.8739 7.50489 11.8725 7.46086 11.8664C6.91057 11.7901 6.46954 11.5327 6.13775 11.094C5.80596 10.6554 5.67822 10.161 5.75453 9.61068C5.83084 9.06039 6.0883 8.61935 6.52692 8.28757C6.96554 7.95578 7.45999 7.82804 8.01028 7.90435C8.56057 7.98065 9.00161 8.23812 9.3334 8.67673C9.66518 9.11535 9.79292 9.60981 9.71662 10.1601C9.69525 10.3142 9.6589 10.455 9.60757 10.5825C9.55624 10.7099 9.50093 10.8257 9.44165 10.9296L13.3124 13.3509L18.2225 8.27723C18.0048 8.06757 17.8388 7.80897 17.7243 7.50146C17.6099 7.19394 17.5756 6.87509 17.6214 6.54492C17.6977 5.99463 17.9552 5.55359 18.3938 5.2218C18.8324 4.89002 19.3269 4.76228 19.8772 4.83858C20.4275 4.91489 20.8685 5.17235 21.2003 5.61097C21.5321 6.04959 21.6598 6.54405 21.5835 7.09434C21.5377 7.42451 21.418 7.72199 21.2242 7.98677C21.0304 8.25156 20.8003 8.45521 20.5337 8.59773L23.878 14.816L28.2616 13.5393C28.2328 13.4232 28.2111 13.2968 28.1964 13.1601C28.1817 13.0235 28.185 12.8781 28.2064 12.724C28.2827 12.1737 28.5401 11.7327 28.9787 11.4009C29.4174 11.0691 29.9118 10.9414 30.4621 11.0177C31.0124 11.094 31.4534 11.3515 31.7852 11.7901C32.117 12.2287 32.2447 12.7232 32.1684 13.2734C32.0921 13.8237 31.8347 14.2648 31.3961 14.5966C30.9574 14.9283 30.463 15.0561 29.9127 14.9798C29.8687 14.9737 29.8199 14.9613 29.7664 14.9427C29.7129 14.924 29.6641 14.9117 29.6201 14.9056L26.4665 25.2706L7.9768 22.7067Z" fill="#9A6135"/>
</g>
</svg>
