<svg width="111" height="152" viewBox="0 0 111 152" fill="none" xmlns="http://www.w3.org/2000/svg">
<mask id="mask0_523_6705" style="mask-type:alpha" maskUnits="userSpaceOnUse" x="37" y="0" width="37" height="36">
<rect x="37.75" width="36" height="36" fill="#D9D9D9"/>
</mask>
<g mask="url(#mask0_523_6705)">
<path d="M45.25 30.0002V27.0002H66.25V30.0002H45.25ZM45.25 24.7502L43.3375 12.7127C43.2875 12.7127 43.2313 12.719 43.1688 12.7315C43.1063 12.744 43.05 12.7502 43 12.7502C42.375 12.7502 41.8438 12.5315 41.4063 12.094C40.9688 11.6565 40.75 11.1252 40.75 10.5002C40.75 9.87524 40.9688 9.34399 41.4063 8.90649C41.8438 8.46899 42.375 8.25024 43 8.25024C43.625 8.25024 44.1563 8.46899 44.5938 8.90649C45.0313 9.34399 45.25 9.87524 45.25 10.5002C45.25 10.6752 45.2313 10.8377 45.1938 10.9877C45.1563 11.1377 45.1125 11.2752 45.0625 11.4002L49.75 13.5002L54.4375 7.08774C54.1625 6.88774 53.9375 6.62524 53.7625 6.30024C53.5875 5.97524 53.5 5.62524 53.5 5.25024C53.5 4.62524 53.7188 4.09399 54.1563 3.65649C54.5938 3.21899 55.125 3.00024 55.75 3.00024C56.375 3.00024 56.9063 3.21899 57.3438 3.65649C57.7813 4.09399 58 4.62524 58 5.25024C58 5.62524 57.9125 5.97524 57.7375 6.30024C57.5625 6.62524 57.3375 6.88774 57.0625 7.08774L61.75 13.5002L66.4375 11.4002C66.3875 11.2752 66.3438 11.1377 66.3063 10.9877C66.2688 10.8377 66.25 10.6752 66.25 10.5002C66.25 9.87524 66.4688 9.34399 66.9063 8.90649C67.3438 8.46899 67.875 8.25024 68.5 8.25024C69.125 8.25024 69.6563 8.46899 70.0938 8.90649C70.5313 9.34399 70.75 9.87524 70.75 10.5002C70.75 11.1252 70.5313 11.6565 70.0938 12.094C69.6563 12.5315 69.125 12.7502 68.5 12.7502C68.45 12.7502 68.3938 12.744 68.3313 12.7315C68.2688 12.719 68.2125 12.7127 68.1625 12.7127L66.25 24.7502H45.25Z" fill="#FCB520"/>
</g>
<g filter="url(#filter0_dddd_523_6705)">
<circle cx="55.25" cy="85" r="50" fill="#EAF0FB"/>
<circle cx="55.25" cy="85" r="50.625" stroke="#FCB520" stroke-width="1.25"/>
</g>
<circle cx="54.75" cy="133" r="14" fill="#FCB520"/>
<path d="M52.182 129.864V127.32H56.614V139H53.766V129.864H52.182Z" fill="white"/>
<defs>
<filter id="filter0_dddd_523_6705" x="0" y="33.75" width="110.5" height="117.5" filterUnits="userSpaceOnUse" color-interpolation-filters="sRGB">
<feFlood flood-opacity="0" result="BackgroundImageFix"/>
<feColorMatrix in="SourceAlpha" type="matrix" values="0 0 0 0 0 0 0 0 0 0 0 0 0 0 0 0 0 0 127 0" result="hardAlpha"/>
<feOffset dy="1"/>
<feGaussianBlur stdDeviation="0.5"/>
<feColorMatrix type="matrix" values="0 0 0 0 0 0 0 0 0 0 0 0 0 0 0 0 0 0 0.1 0"/>
<feBlend mode="normal" in2="BackgroundImageFix" result="effect1_dropShadow_523_6705"/>
<feColorMatrix in="SourceAlpha" type="matrix" values="0 0 0 0 0 0 0 0 0 0 0 0 0 0 0 0 0 0 127 0" result="hardAlpha"/>
<feOffset dy="3"/>
<feGaussianBlur stdDeviation="1.5"/>
<feColorMatrix type="matrix" values="0 0 0 0 0 0 0 0 0 0 0 0 0 0 0 0 0 0 0.09 0"/>
<feBlend mode="normal" in2="effect1_dropShadow_523_6705" result="effect2_dropShadow_523_6705"/>
<feColorMatrix in="SourceAlpha" type="matrix" values="0 0 0 0 0 0 0 0 0 0 0 0 0 0 0 0 0 0 127 0" result="hardAlpha"/>
<feOffset dy="6"/>
<feGaussianBlur stdDeviation="2"/>
<feColorMatrix type="matrix" values="0 0 0 0 0 0 0 0 0 0 0 0 0 0 0 0 0 0 0.05 0"/>
<feBlend mode="normal" in2="effect2_dropShadow_523_6705" result="effect3_dropShadow_523_6705"/>
<feColorMatrix in="SourceAlpha" type="matrix" values="0 0 0 0 0 0 0 0 0 0 0 0 0 0 0 0 0 0 127 0" result="hardAlpha"/>
<feOffset dy="11"/>
<feGaussianBlur stdDeviation="2"/>
<feColorMatrix type="matrix" values="0 0 0 0 0 0 0 0 0 0 0 0 0 0 0 0 0 0 0.01 0"/>
<feBlend mode="normal" in2="effect3_dropShadow_523_6705" result="effect4_dropShadow_523_6705"/>
<feBlend mode="normal" in="SourceGraphic" in2="effect4_dropShadow_523_6705" result="shape"/>
</filter>
</defs>
</svg>
