<svg width="89" height="126" viewBox="0 0 89 126" fill="none" xmlns="http://www.w3.org/2000/svg">
<mask id="mask0_523_6706" style="mask-type:alpha" maskUnits="userSpaceOnUse" x="31" y="0" width="37" height="37">
<rect x="36.0847" width="32" height="32" transform="rotate(7.89474 36.0847 0)" fill="#9A6135"/>
</mask>
<g mask="url(#mask0_523_6706)">
<path d="M39.0255 27.3291L39.3917 24.6878L57.8815 27.2517L57.5152 29.8931L39.0255 27.3291ZM39.6664 22.7067L39.4522 11.8746C39.4082 11.8685 39.3579 11.8672 39.3014 11.8705C39.2448 11.8739 39.1945 11.8725 39.1505 11.8664C38.6002 11.7901 38.1592 11.5327 37.8274 11.094C37.4956 10.6554 37.3679 10.161 37.4442 9.61068C37.5205 9.06039 37.7779 8.61935 38.2166 8.28757C38.6552 7.95578 39.1496 7.82804 39.6999 7.90435C40.2502 7.98065 40.6913 8.23812 41.023 8.67673C41.3548 9.11535 41.4826 9.60981 41.4063 10.1601C41.3849 10.3142 41.3485 10.455 41.2972 10.5825C41.2459 10.7099 41.1906 10.8257 41.1313 10.9296L45.0021 13.3509L49.9122 8.27723C49.6944 8.06757 49.5284 7.80897 49.414 7.50146C49.2996 7.19394 49.2653 6.87509 49.3111 6.54492C49.3874 5.99463 49.6448 5.55359 50.0835 5.2218C50.5221 4.89002 51.0165 4.76228 51.5668 4.83858C52.1171 4.91489 52.5581 5.17235 52.8899 5.61097C53.2217 6.04959 53.3495 6.54405 53.2732 7.09434C53.2274 7.42451 53.1076 7.72199 52.9138 7.98677C52.7201 8.25156 52.4899 8.45521 52.2234 8.59773L55.5676 14.816L59.9512 13.5393C59.9224 13.4232 59.9007 13.2968 59.886 13.1601C59.8713 13.0235 59.8746 12.8781 59.896 12.724C59.9723 12.1737 60.2298 11.7327 60.6684 11.4009C61.107 11.0691 61.6015 10.9414 62.1517 11.0177C62.702 11.094 63.1431 11.3515 63.4749 11.7901C63.8067 12.2287 63.9344 12.7232 63.8581 13.2734C63.7818 13.8237 63.5243 14.2648 63.0857 14.5966C62.6471 14.9283 62.1526 15.0561 61.6023 14.9798C61.5583 14.9737 61.5095 14.9613 61.456 14.9427C61.4025 14.924 61.3538 14.9117 61.3098 14.9056L58.1562 25.2706L39.6664 22.7067Z" fill="#9A6135"/>
</g>
<g filter="url(#filter0_dddd_523_6706)">
<circle cx="44.2" cy="73.5107" r="40" fill="#FBEAEA"/>
<circle cx="44.2" cy="73.5107" r="40.6" stroke="#9A6135" stroke-width="1.2"/>
</g>
<circle cx="45.2" cy="111.511" r="12" fill="#9A6135"/>
<path d="M41.97 108.993C42.0166 108.059 42.3433 107.341 42.95 106.837C43.566 106.323 44.3733 106.067 45.372 106.067C46.0533 106.067 46.6366 106.188 47.122 106.431C47.6073 106.664 47.9713 106.986 48.214 107.397C48.466 107.798 48.592 108.255 48.592 108.769C48.592 109.357 48.438 109.856 48.13 110.267C47.8313 110.668 47.472 110.939 47.052 111.079V111.135C47.5933 111.303 48.0133 111.601 48.312 112.031C48.62 112.46 48.774 113.011 48.774 113.683C48.774 114.243 48.6433 114.742 48.382 115.181C48.13 115.619 47.752 115.965 47.248 116.217C46.7533 116.459 46.156 116.581 45.456 116.581C44.4013 116.581 43.5426 116.315 42.88 115.783C42.2173 115.251 41.8673 114.467 41.83 113.431H43.734C43.7526 113.888 43.9066 114.257 44.196 114.537C44.4946 114.807 44.9006 114.943 45.414 114.943C45.89 114.943 46.254 114.812 46.506 114.551C46.7673 114.28 46.898 113.935 46.898 113.515C46.898 112.955 46.7206 112.553 46.366 112.311C46.0113 112.068 45.4606 111.947 44.714 111.947H44.308V110.337H44.714C46.0393 110.337 46.702 109.893 46.702 109.007C46.702 108.605 46.5806 108.293 46.338 108.069C46.1046 107.845 45.764 107.733 45.316 107.733C44.8773 107.733 44.5366 107.854 44.294 108.097C44.0606 108.33 43.9253 108.629 43.888 108.993H41.97Z" fill="white"/>
<defs>
<filter id="filter0_dddd_523_6706" x="0" y="32.3108" width="88.3999" height="93.3999" filterUnits="userSpaceOnUse" color-interpolation-filters="sRGB">
<feFlood flood-opacity="0" result="BackgroundImageFix"/>
<feColorMatrix in="SourceAlpha" type="matrix" values="0 0 0 0 0 0 0 0 0 0 0 0 0 0 0 0 0 0 127 0" result="hardAlpha"/>
<feOffset dy="1"/>
<feGaussianBlur stdDeviation="0.5"/>
<feColorMatrix type="matrix" values="0 0 0 0 0 0 0 0 0 0 0 0 0 0 0 0 0 0 0.1 0"/>
<feBlend mode="normal" in2="BackgroundImageFix" result="effect1_dropShadow_523_6706"/>
<feColorMatrix in="SourceAlpha" type="matrix" values="0 0 0 0 0 0 0 0 0 0 0 0 0 0 0 0 0 0 127 0" result="hardAlpha"/>
<feOffset dy="2"/>
<feGaussianBlur stdDeviation="1"/>
<feColorMatrix type="matrix" values="0 0 0 0 0 0 0 0 0 0 0 0 0 0 0 0 0 0 0.09 0"/>
<feBlend mode="normal" in2="effect1_dropShadow_523_6706" result="effect2_dropShadow_523_6706"/>
<feColorMatrix in="SourceAlpha" type="matrix" values="0 0 0 0 0 0 0 0 0 0 0 0 0 0 0 0 0 0 127 0" result="hardAlpha"/>
<feOffset dy="5"/>
<feGaussianBlur stdDeviation="1.5"/>
<feColorMatrix type="matrix" values="0 0 0 0 0 0 0 0 0 0 0 0 0 0 0 0 0 0 0.05 0"/>
<feBlend mode="normal" in2="effect2_dropShadow_523_6706" result="effect3_dropShadow_523_6706"/>
<feColorMatrix in="SourceAlpha" type="matrix" values="0 0 0 0 0 0 0 0 0 0 0 0 0 0 0 0 0 0 127 0" result="hardAlpha"/>
<feOffset dy="8"/>
<feGaussianBlur stdDeviation="1.5"/>
<feColorMatrix type="matrix" values="0 0 0 0 0 0 0 0 0 0 0 0 0 0 0 0 0 0 0.01 0"/>
<feBlend mode="normal" in2="effect3_dropShadow_523_6706" result="effect4_dropShadow_523_6706"/>
<feBlend mode="normal" in="SourceGraphic" in2="effect4_dropShadow_523_6706" result="shape"/>
</filter>
</defs>
</svg>
