<svg width="36" height="36" viewBox="0 0 36 36" fill="none" xmlns="http://www.w3.org/2000/svg">
<mask id="mask0_408_2824" style="mask-type:alpha" maskUnits="userSpaceOnUse" x="0" y="0" width="36" height="36">
<rect y="4.11866" width="32" height="32" transform="rotate(-7.39495 0 4.11866)" fill="#D9D9D9"/>
</mask>
<g mask="url(#mask0_408_2824)">
<path d="M10.0435 29.7051L9.7003 27.0606L28.2117 24.658L28.5549 27.3025L10.0435 29.7051ZM9.44288 25.0772L6.37984 14.685C6.33577 14.6907 6.2869 14.7027 6.23324 14.7208C6.17957 14.739 6.1307 14.7509 6.08663 14.7567C5.53569 14.8282 5.04237 14.6961 4.60667 14.3605C4.17096 14.0249 3.91735 13.5817 3.84585 13.0307C3.77434 12.4798 3.90639 11.9865 4.24199 11.5508C4.57759 11.115 5.02086 10.8614 5.5718 10.7899C6.12273 10.7184 6.61605 10.8505 7.05176 11.1861C7.48747 11.5217 7.74107 11.965 7.81258 12.5159C7.8326 12.6701 7.83466 12.8155 7.81877 12.9521C7.80287 13.0886 7.78004 13.2148 7.75026 13.3307L12.1225 14.6455L15.5209 8.45667C15.2556 8.31183 15.0272 8.10618 14.8358 7.83972C14.6444 7.57325 14.5272 7.27474 14.4843 6.94418C14.4128 6.39324 14.5448 5.89992 14.8804 5.46421C15.216 5.02851 15.6593 4.7749 16.2102 4.7034C16.7612 4.63189 17.2545 4.76394 17.6902 5.09954C18.1259 5.43514 18.3795 5.87841 18.451 6.42934C18.4939 6.75991 18.4568 7.07844 18.3397 7.38495C18.2227 7.69145 18.0544 7.94859 17.8348 8.15635L22.7005 13.2727L26.5922 10.8852C26.5338 10.7808 26.4796 10.6646 26.4293 10.5366C26.3791 10.4087 26.344 10.2676 26.324 10.1133C26.2525 9.5624 26.3845 9.06908 26.7201 8.63337C27.0557 8.19767 27.499 7.94406 28.0499 7.87255C28.6009 7.80105 29.0942 7.9331 29.5299 8.2687C29.9656 8.6043 30.2192 9.04757 30.2907 9.5985C30.3622 10.1494 30.2302 10.6428 29.8946 11.0785C29.559 11.5142 29.1157 11.7678 28.5648 11.8393C28.5207 11.845 28.4704 11.8459 28.4139 11.8421C28.3573 11.8382 28.307 11.8391 28.263 11.8448L27.9543 22.6746L9.44288 25.0772Z" fill="#D9D9D9"/>
</g>
</svg>
