<svg width="36" height="36" viewBox="0 0 36 36" fill="none" xmlns="http://www.w3.org/2000/svg">
<mask id="mask0_408_2821" style="mask-type:alpha" maskUnits="userSpaceOnUse" x="0" y="0" width="36" height="36">
<rect width="36" height="36" fill="#D9D9D9"/>
</mask>
<g mask="url(#mask0_408_2821)">
<path d="M7.5 30.0002V27.0002H28.5V30.0002H7.5ZM7.5 24.7502L5.5875 12.7127C5.5375 12.7127 5.48125 12.719 5.41875 12.7315C5.35625 12.744 5.3 12.7502 5.25 12.7502C4.625 12.7502 4.09375 12.5315 3.65625 12.094C3.21875 11.6565 3 11.1252 3 10.5002C3 9.87524 3.21875 9.34399 3.65625 8.90649C4.09375 8.46899 4.625 8.25024 5.25 8.25024C5.875 8.25024 6.40625 8.46899 6.84375 8.90649C7.28125 9.34399 7.5 9.87524 7.5 10.5002C7.5 10.6752 7.48125 10.8377 7.44375 10.9877C7.40625 11.1377 7.3625 11.2752 7.3125 11.4002L12 13.5002L16.6875 7.08774C16.4125 6.88774 16.1875 6.62524 16.0125 6.30024C15.8375 5.97524 15.75 5.62524 15.75 5.25024C15.75 4.62524 15.9688 4.09399 16.4063 3.65649C16.8438 3.21899 17.375 3.00024 18 3.00024C18.625 3.00024 19.1563 3.21899 19.5938 3.65649C20.0313 4.09399 20.25 4.62524 20.25 5.25024C20.25 5.62524 20.1625 5.97524 19.9875 6.30024C19.8125 6.62524 19.5875 6.88774 19.3125 7.08774L24 13.5002L28.6875 11.4002C28.6375 11.2752 28.5938 11.1377 28.5563 10.9877C28.5188 10.8377 28.5 10.6752 28.5 10.5002C28.5 9.87524 28.7188 9.34399 29.1563 8.90649C29.5938 8.46899 30.125 8.25024 30.75 8.25024C31.375 8.25024 31.9063 8.46899 32.3438 8.90649C32.7813 9.34399 33 9.87524 33 10.5002C33 11.1252 32.7813 11.6565 32.3438 12.094C31.9063 12.5315 31.375 12.7502 30.75 12.7502C30.7 12.7502 30.6438 12.744 30.5813 12.7315C30.5188 12.719 30.4625 12.7127 30.4125 12.7127L28.5 24.7502H7.5Z" fill="#FCB520"/>
</g>
</svg>
