<svg width="48" height="48" viewBox="0 0 48 48" fill="none" xmlns="http://www.w3.org/2000/svg">
<circle cx="24" cy="24" r="24" fill="white" fill-opacity="0.28"/>
<mask id="mask0_1082_3647" style="mask-type:alpha" maskUnits="userSpaceOnUse" x="10" y="10" width="28" height="28">
<rect x="10" y="10" width="28" height="28" fill="#D9D9D9"/>
</mask>
<g mask="url(#mask0_1082_3647)">
<path d="M19.9344 33.9166C18.2995 33.9166 16.9156 33.3501 15.7825 32.217C14.6495 31.084 14.083 29.6988 14.083 28.0614C14.083 27.3777 14.2001 26.712 14.4342 26.0643C14.6683 25.4164 15.0037 24.8293 15.4404 24.303L19.5596 19.349L17.6997 15.6066C17.5202 15.2553 17.5311 14.9135 17.7323 14.5814C17.9334 14.2493 18.2352 14.0833 18.6377 14.0833H29.3617C29.7642 14.0833 30.066 14.2493 30.267 14.5814C30.4683 14.9135 30.4792 15.2553 30.2997 15.6066L28.4397 19.349L32.5589 24.303C32.9957 24.8293 33.3311 25.4164 33.5652 26.0643C33.7993 26.712 33.9163 27.3777 33.9163 28.0614C33.9163 29.6988 33.3475 31.084 32.2098 32.217C31.0719 33.3501 29.6903 33.9166 28.0649 33.9166H19.9344ZM23.9976 28.3635C23.4172 28.3635 22.921 28.1569 22.509 27.7435C22.0967 27.3301 21.8906 26.8332 21.8906 26.2528C21.8906 25.6721 22.0973 25.1758 22.5107 24.7638C22.9241 24.3518 23.4211 24.1458 24.0017 24.1458C24.5821 24.1458 25.0784 24.3524 25.4904 24.7658C25.9026 25.1792 26.1087 25.6762 26.1087 26.2568C26.1087 26.8373 25.902 27.3335 25.4886 27.7455C25.0752 28.1575 24.5782 28.3635 23.9976 28.3635ZM21.1615 18.6041H26.849L28.2288 15.8333H19.7705L21.1615 18.6041ZM19.9344 32.1666H28.0649C29.211 32.1666 30.1811 31.7676 30.9752 30.9696C31.7693 30.1716 32.1663 29.2027 32.1663 28.0628C32.1663 27.5828 32.0837 27.1166 31.9184 26.6643C31.7532 26.2118 31.5172 25.8031 31.2106 25.4381L26.9791 20.3541H21.0495L16.7999 25.42C16.4932 25.785 16.2554 26.1972 16.0865 26.6567C15.9175 27.116 15.833 27.5854 15.833 28.0649C15.833 29.2034 16.232 30.1716 17.03 30.9696C17.828 31.7676 18.7961 32.1666 19.9344 32.1666Z" fill="white"/>
</g>
</svg>
