<svg width="28" height="28" viewBox="0 0 28 28" fill="none" xmlns="http://www.w3.org/2000/svg">
<mask id="mask0_452_250" style="mask-type:alpha" maskUnits="userSpaceOnUse" x="0" y="0" width="28" height="28">
<rect width="28" height="28" fill="#D9D9D9"/>
</mask>
<g mask="url(#mask0_452_250)">
<path d="M9.93443 23.9166C8.29954 23.9166 6.91558 23.3501 5.78255 22.217C4.64952 21.084 4.08301 19.6988 4.08301 18.0614C4.08301 17.3777 4.20006 16.712 4.43417 16.0643C4.66829 15.4164 5.0037 14.8293 5.44042 14.303L9.55963 9.349L7.69968 5.60663C7.5202 5.25527 7.53109 4.91353 7.73234 4.58142C7.9334 4.24931 8.23518 4.08325 8.63768 4.08325H19.3617C19.7642 4.08325 20.066 4.24931 20.267 4.58142C20.4683 4.91353 20.4792 5.25527 20.2997 5.60663L18.4397 9.349L22.5589 14.303C22.9957 14.8293 23.3311 15.4164 23.5652 16.0643C23.7993 16.712 23.9163 17.3777 23.9163 18.0614C23.9163 19.6988 23.3475 21.084 22.2098 22.217C21.0719 23.3501 19.6903 23.9166 18.0649 23.9166H9.93443ZM13.9976 18.3635C13.4172 18.3635 12.921 18.1569 12.509 17.7435C12.0967 17.3301 11.8906 16.8332 11.8906 16.2528C11.8906 15.6721 12.0973 15.1758 12.5107 14.7638C12.9241 14.3518 13.4211 14.1458 14.0017 14.1458C14.5821 14.1458 15.0784 14.3524 15.4904 14.7658C15.9026 15.1792 16.1087 15.6762 16.1087 16.2568C16.1087 16.8373 15.902 17.3335 15.4886 17.7455C15.0752 18.1575 14.5782 18.3635 13.9976 18.3635ZM11.1615 8.60409H16.849L18.2288 5.83325H9.77051L11.1615 8.60409ZM9.93443 22.1666H18.0649C19.211 22.1666 20.1811 21.7676 20.9752 20.9696C21.7693 20.1716 22.1663 19.2027 22.1663 18.0628C22.1663 17.5828 22.0837 17.1166 21.9184 16.6643C21.7532 16.2118 21.5172 15.8031 21.2106 15.4381L16.9791 10.3541H11.0495L6.79988 15.42C6.49324 15.785 6.25544 16.1972 6.08647 16.6567C5.91749 17.116 5.83301 17.5854 5.83301 18.0649C5.83301 19.2034 6.23201 20.1716 7.03001 20.9696C7.82801 21.7676 8.79615 22.1666 9.93443 22.1666Z" fill="white"/>
</g>
</svg>
