<svg width="32" height="32" viewBox="0 0 32 32" fill="none" xmlns="http://www.w3.org/2000/svg">
<rect x="0.5" y="0.5" width="31" height="31" rx="5.5" stroke="white" stroke-opacity="0.28"/>
<mask id="mask0_408_2122" style="mask-type:alpha" maskUnits="userSpaceOnUse" x="4" y="4" width="24" height="24">
<rect x="4" y="4" width="24" height="24" fill="#D9D9D9"/>
</mask>
<g mask="url(#mask0_408_2122)">
<path d="M10.8364 22.75C10.6557 22.75 10.5044 22.6874 10.3824 22.5621C10.2604 22.437 10.1993 22.2819 10.1993 22.0968V16.6029H9.13725C8.9567 16.6029 8.80538 16.5403 8.68332 16.415C8.56111 16.2897 8.5 16.1346 8.5 15.9495C8.5 15.7643 8.56111 15.6092 8.68332 15.4842C8.80538 15.359 8.9567 15.2965 9.13725 15.2965H12.5359C12.7165 15.2965 12.8678 15.3591 12.9901 15.4844C13.1121 15.6097 13.1732 15.7649 13.1732 15.9501C13.1732 16.1352 13.1121 16.2903 12.9901 16.4155C12.8678 16.5404 12.7165 16.6029 12.5359 16.6029H11.4738V22.0968C11.4738 22.2819 11.4127 22.437 11.2905 22.5621C11.1683 22.6874 11.0169 22.75 10.8364 22.75ZM10.8364 13.2197C10.6557 13.2197 10.5044 13.157 10.3824 13.0317C10.2604 12.9066 10.1993 12.7515 10.1993 12.5664V9.90323C10.1993 9.71815 10.2604 9.56304 10.3826 9.43791C10.5049 9.31264 10.6563 9.25 10.837 9.25C11.0176 9.25 11.1689 9.31264 11.2909 9.43791C11.4129 9.56304 11.4738 9.71815 11.4738 9.90323V12.5664C11.4738 12.7515 11.4127 12.9066 11.2905 13.0317C11.1683 13.157 11.0169 13.2197 10.8364 13.2197ZM14.3007 13.2197C14.1201 13.2197 13.9688 13.157 13.8467 13.0317C13.7245 12.9065 13.6634 12.7512 13.6634 12.566C13.6634 12.3809 13.7245 12.2258 13.8467 12.1007C13.9688 11.9757 14.1201 11.9132 14.3007 11.9132H15.3628V9.90323C15.3628 9.71815 15.4239 9.56304 15.5461 9.43791C15.6683 9.31264 15.8197 9.25 16.0002 9.25C16.1809 9.25 16.3322 9.31264 16.4541 9.43791C16.5762 9.56304 16.6372 9.71815 16.6372 9.90323V11.9132H17.6993C17.8799 11.9132 18.0312 11.9758 18.1533 12.1011C18.2755 12.2264 18.3366 12.3816 18.3366 12.5666C18.3366 12.7519 18.2755 12.907 18.1533 13.032C18.0312 13.1571 17.8799 13.2197 17.6993 13.2197H14.3007ZM15.9998 22.75C15.8191 22.75 15.6678 22.6874 15.5459 22.5621C15.4238 22.437 15.3628 22.2819 15.3628 22.0968V15.9497C15.3628 15.7646 15.4239 15.6095 15.5461 15.4844C15.6683 15.3591 15.8197 15.2965 16.0002 15.2965C16.1809 15.2965 16.3322 15.3591 16.4541 15.4844C16.5762 15.6095 16.6372 15.7646 16.6372 15.9497V22.0968C16.6372 22.2819 16.5761 22.437 16.4539 22.5621C16.3317 22.6874 16.1803 22.75 15.9998 22.75ZM21.163 22.75C20.9824 22.75 20.8311 22.6874 20.7091 22.5621C20.5871 22.437 20.5262 22.2819 20.5262 22.0968V20.0868H19.4641C19.2835 20.0868 19.1322 20.0242 19.0099 19.8989C18.8879 19.7736 18.8268 19.6184 18.8268 19.4334C18.8268 19.2481 18.8879 19.093 19.0099 18.968C19.1322 18.8429 19.2835 18.7803 19.4641 18.7803H22.8628C23.0433 18.7803 23.1946 18.843 23.3167 18.9683C23.4389 19.0935 23.5 19.2488 23.5 19.434C23.5 19.6191 23.4389 19.7742 23.3167 19.8993C23.1946 20.0243 23.0433 20.0868 22.8628 20.0868H21.8007V22.0968C21.8007 22.2819 21.7396 22.437 21.6174 22.5621C21.4951 22.6874 21.3437 22.75 21.163 22.75ZM21.163 16.7035C20.9824 16.7035 20.8311 16.6409 20.7091 16.5156C20.5871 16.3905 20.5262 16.2354 20.5262 16.0503V9.90323C20.5262 9.71815 20.5873 9.56304 20.7095 9.43791C20.8317 9.31264 20.9831 9.25 21.1636 9.25C21.3443 9.25 21.4956 9.31264 21.6176 9.43791C21.7396 9.56304 21.8007 9.71815 21.8007 9.90323V16.0503C21.8007 16.2354 21.7396 16.3905 21.6174 16.5156C21.4951 16.6409 21.3437 16.7035 21.163 16.7035Z" fill="white"/>
</g>
</svg>
