<svg width="14" height="14" viewBox="0 0 14 14" fill="none" xmlns="http://www.w3.org/2000/svg">
<mask id="mask0_925_1526" style="mask-type:alpha" maskUnits="userSpaceOnUse" x="0" y="0" width="14" height="14">
<rect width="14" height="14" fill="#D9D9D9"/>
</mask>
<g mask="url(#mask0_925_1526)">
<path d="M6.99862 12.834C6.19167 12.834 5.43334 12.6809 4.72362 12.3746C4.01389 12.0684 3.39653 11.6528 2.87153 11.1278C2.34653 10.6028 1.93091 9.98541 1.62466 9.27569C1.31841 8.56597 1.16528 7.80764 1.16528 7.00069C1.16528 6.19375 1.31841 5.43541 1.62466 4.72569C1.93091 4.01597 2.34653 3.39861 2.87153 2.87361C3.39653 2.34861 4.01389 1.93298 4.72362 1.62673C5.43334 1.32048 6.19167 1.16736 6.99862 1.16736C7.80556 1.16736 8.56389 1.32048 9.27362 1.62673C9.98334 1.93298 10.6007 2.34861 11.1257 2.87361C11.6507 3.39861 12.0663 4.01597 12.3726 4.72569C12.6788 5.43541 12.8319 6.19375 12.8319 7.00069C12.8319 7.80764 12.6788 8.56597 12.3726 9.27569C12.0663 9.98541 11.6507 10.6028 11.1257 11.1278C10.6007 11.6528 9.98334 12.0684 9.27362 12.3746C8.56389 12.6809 7.80556 12.834 6.99862 12.834ZM6.99862 11.6674C7.62084 11.6674 8.21876 11.5507 8.79237 11.3174C9.36598 11.084 9.87153 10.7486 10.309 10.3111L6.99862 7.00069V2.33403C5.69584 2.33403 4.59237 2.78611 3.6882 3.69028C2.78403 4.59444 2.33195 5.69791 2.33195 7.00069C2.33195 8.30347 2.78403 9.40694 3.6882 10.3111C4.59237 11.2153 5.69584 11.6674 6.99862 11.6674Z" fill="#282828"/>
</g>
</svg>
