<svg width="44" height="43" viewBox="0 0 44 43" fill="none" xmlns="http://www.w3.org/2000/svg">
<circle cx="21.524" cy="21.5" r="21.5" fill="#2752E7"/>
<g clip-path="url(#clip0_185_196)">
<path d="M19.3119 15.1558C19.82 15.3718 20.3404 15.5188 20.8971 15.5219C20.9235 15.5221 20.95 15.5223 20.9773 15.5225C21.0641 15.5231 21.1509 15.5234 21.2377 15.5236C21.2677 15.5237 21.2977 15.5238 21.3286 15.5239C21.4876 15.5245 21.6467 15.5248 21.8057 15.525C21.9681 15.5252 22.1305 15.5262 22.293 15.5273C22.4194 15.528 22.5459 15.5282 22.6723 15.5283C22.7321 15.5284 22.7919 15.5287 22.8517 15.5292C23.4024 15.5337 23.9237 15.4656 24.4434 15.2715C24.476 15.2598 24.5086 15.248 24.5421 15.236C24.7863 15.1469 25.0256 15.0475 25.265 14.9464C26.3367 14.5002 27.4829 14.5836 28.5474 15.0078C29.5628 15.4288 30.3471 16.229 30.8253 17.2075C30.8485 17.2547 30.8485 17.2547 30.8722 17.3028C31.1606 17.9208 31.2673 18.586 31.377 19.2534C31.3845 19.2984 31.392 19.3434 31.3998 19.3898C31.6384 20.822 31.8183 22.2599 31.9384 23.7069C31.9455 23.7918 31.9527 23.8768 31.9599 23.9617C32.0114 24.5842 32.0336 25.2067 32.0398 25.8312C32.0407 25.906 32.0418 25.9808 32.0432 26.0555C32.0593 26.9525 31.7963 27.6468 31.1813 28.3096C30.6184 28.8912 29.7548 29.3377 28.9405 29.3584C27.7626 29.3249 26.9567 28.4963 26.172 27.7153C26.1407 27.6843 26.1094 27.6532 26.0772 27.6211C25.9123 27.4558 25.7535 27.2875 25.6012 27.1105C24.9269 26.2968 24.9269 26.2968 24.0943 25.6719C24.0716 25.6591 24.0489 25.6463 24.0255 25.6331C23.681 25.466 23.3182 25.493 22.9444 25.4949C22.8706 25.4948 22.7968 25.4946 22.7229 25.4944C22.5688 25.4942 22.4146 25.4945 22.2604 25.4953C22.0636 25.4962 21.8669 25.4956 21.6702 25.4947C21.5179 25.4941 21.3656 25.4943 21.2133 25.4947C21.1408 25.4948 21.0683 25.4947 20.9958 25.4943C20.2704 25.4915 19.8433 25.6696 19.3122 26.1834C19.2425 26.2535 19.1732 26.3238 19.1041 26.3945C19.0692 26.4296 19.0343 26.4647 18.9983 26.5009C18.8236 26.6777 18.6542 26.8572 18.4921 27.0456C18.2969 27.2716 18.0895 27.4872 17.8834 27.7031C17.8401 27.7485 17.8401 27.7485 17.7959 27.7948C17.0537 28.5675 16.2431 29.3191 15.1148 29.3608C14.1656 29.3346 13.3375 28.7703 12.7027 28.106C12.2809 27.6244 12.02 27.0238 12.0161 26.3813C12.0158 26.3509 12.0155 26.3206 12.0152 26.2893C11.9589 18.1574 11.9589 18.1574 14.0603 15.9783C15.5069 14.5243 17.4994 14.3828 19.3119 15.1558ZM16.9898 17.8862C16.7708 18.2277 16.7747 18.5579 16.7823 18.9556C16.7829 19.0085 16.7834 19.0615 16.7839 19.1145C16.7853 19.243 16.7872 19.3715 16.7896 19.5C16.7562 19.4992 16.7227 19.4984 16.6883 19.4975C16.5623 19.4948 16.4364 19.4929 16.3104 19.4914C16.2562 19.4906 16.2021 19.4896 16.1479 19.4882C15.7988 19.4797 15.4491 19.4753 15.1645 19.7073C15.0154 19.8685 14.9203 20.0722 14.9108 20.2916C14.928 20.538 15.0001 20.7282 15.1842 20.8957C15.4146 21.0763 15.5647 21.1066 15.8588 21.1054C15.8855 21.1053 15.9122 21.1053 15.9396 21.1052C16.0244 21.105 16.1092 21.1045 16.1939 21.104C16.2516 21.1038 16.3092 21.1036 16.3668 21.1035C16.5077 21.103 16.6487 21.1024 16.7896 21.1016C16.7887 21.1503 16.7887 21.1503 16.7878 21.2C16.7858 21.3221 16.7843 21.4441 16.7832 21.5662C16.7823 21.6444 16.7808 21.7226 16.7793 21.8008C16.7764 22.1896 16.8011 22.5116 17.0763 22.8031C17.2508 22.9545 17.4469 23.0017 17.6723 22.9924C17.8861 22.9563 18.0817 22.8697 18.2235 22.7028C18.3589 22.4913 18.3969 22.3165 18.395 22.0667C18.3949 22.0391 18.3949 22.0115 18.3948 21.9831C18.3946 21.8952 18.3941 21.8072 18.3936 21.7192C18.3934 21.6596 18.3933 21.5999 18.3931 21.5402C18.3927 21.394 18.392 21.2478 18.3912 21.1016C18.4449 21.1031 18.4449 21.1031 18.4997 21.1047C18.6344 21.108 18.7691 21.1105 18.9038 21.1123C18.9618 21.1133 19.0197 21.1146 19.0777 21.1163C19.4271 21.1263 19.7396 21.127 20.0318 20.9063C20.2346 20.6912 20.2827 20.4848 20.2796 20.1975C20.2522 19.9698 20.122 19.8117 19.9561 19.6611C19.7469 19.516 19.5661 19.4903 19.3143 19.4924C19.2878 19.4925 19.2613 19.4926 19.2339 19.4927C19.1499 19.4931 19.066 19.4941 18.982 19.4951C18.9247 19.4955 18.8675 19.4959 18.8102 19.4962C18.6705 19.4971 18.5309 19.4984 18.3912 19.5C18.392 19.4638 18.3928 19.4275 18.3937 19.3902C18.3963 19.2545 18.3983 19.1188 18.3998 18.9831C18.4006 18.9246 18.4016 18.8661 18.403 18.8076C18.4152 18.2963 18.4152 18.2963 18.1667 17.8585C17.9642 17.6966 17.809 17.6046 17.539 17.6128C17.3196 17.6442 17.1503 17.7362 16.9898 17.8862ZM26.9703 18.1719C26.8138 18.4608 26.7722 18.7795 26.8569 19.0984C26.9957 19.4715 27.2188 19.6758 27.5709 19.8516C27.8798 19.9539 28.2136 19.912 28.504 19.7782C28.7821 19.6306 28.9363 19.3936 29.0699 19.1143C29.1441 18.7432 29.0909 18.4532 28.9088 18.1279C28.6871 17.8447 28.4196 17.6651 28.0587 17.6101C27.5971 17.5883 27.2483 17.8207 26.9703 18.1719ZM25.1881 21.0625C24.9476 21.4156 24.8733 21.687 24.9146 22.1172C24.962 22.2611 25.0269 22.3816 25.1099 22.5078C25.1333 22.5441 25.1567 22.5803 25.1807 22.6177C25.4142 22.8511 25.6888 22.9769 26.0181 22.9912C26.3576 22.9834 26.6304 22.8589 26.8772 22.6276C27.0802 22.3889 27.1968 22.0926 27.1909 21.7789C27.1521 21.4464 27.0033 21.163 26.7506 20.9453C26.2499 20.6062 25.6249 20.6058 25.1881 21.0625Z" fill="white"/>
</g>
<defs>
<clipPath id="clip0_185_196">
<rect width="20" height="20" fill="white" transform="translate(12.024 12)"/>
</clipPath>
</defs>
</svg>
