<svg width="43" height="43" viewBox="0 0 43 43" fill="none" xmlns="http://www.w3.org/2000/svg">
<g filter="url(#filter0_ii_1134_1619)">
<circle cx="21.5" cy="21.5" r="21.5" fill="#2752E7"/>
<path d="M19.7111 11.9612C19.7418 11.961 19.7725 11.9607 19.8042 11.9605C19.9058 11.9598 20.0074 11.9595 20.109 11.9592C20.1797 11.959 20.2504 11.9587 20.3211 11.9584C20.4693 11.9579 20.6176 11.9577 20.7658 11.9575C20.9555 11.9572 21.1452 11.9561 21.335 11.9548C21.481 11.9539 21.6271 11.9537 21.7731 11.9536C21.8431 11.9535 21.913 11.9531 21.9829 11.9525C22.0809 11.9517 22.1788 11.9518 22.2767 11.9521C22.3603 11.9518 22.3603 11.9518 22.4455 11.9515C22.609 11.9705 22.6971 12.0113 22.8281 12.1094C22.9005 12.2543 22.8887 12.3716 22.875 12.5313C22.771 12.6675 22.71 12.7113 22.5468 12.7656C22.4569 12.7695 22.3668 12.7707 22.2768 12.7702C22.2059 12.77 22.2059 12.77 22.1336 12.7699C22.0438 12.7692 22.0438 12.7692 21.9521 12.7686C21.6664 12.7671 21.6664 12.7671 21.375 12.7656C21.375 13.3535 21.375 13.9413 21.375 14.5469C21.6092 14.5454 21.6092 14.5454 21.8481 14.5439C22.364 14.5408 22.8798 14.5387 23.3956 14.5372C23.7084 14.5362 24.0211 14.5349 24.3339 14.5327C24.6357 14.5307 24.9375 14.5296 25.2393 14.5291C25.3544 14.5288 25.4696 14.5281 25.5848 14.5271C25.746 14.5257 25.9073 14.5255 26.0685 14.5256C26.1162 14.5249 26.1638 14.5243 26.2129 14.5236C26.491 14.5252 26.6464 14.5512 26.8593 14.7344C27.04 14.9313 27.0698 15.1627 27.1259 15.417C27.1365 15.461 27.147 15.505 27.1579 15.5504C27.2374 15.9024 27.3263 16.2975 27.1494 16.627C27.1155 16.6676 27.0817 16.7082 27.0468 16.75C26.9298 16.9252 26.8659 17.0919 26.8072 17.2939C26.7983 17.3241 26.7894 17.3542 26.7803 17.3853C26.7512 17.4845 26.7226 17.5838 26.694 17.6831C26.6737 17.7528 26.6533 17.8225 26.6329 17.8921C26.5793 18.0755 26.526 18.259 26.4729 18.4426C26.4088 18.6637 26.3443 18.8846 26.2798 19.1056C26.2295 19.278 26.1793 19.4504 26.1293 19.6229C26.0169 20.0102 25.9012 20.3962 25.7812 20.7813C25.8138 20.7793 25.8464 20.7774 25.8801 20.7754C26.1743 20.7605 26.344 20.7862 26.5781 20.9688C26.7488 21.1876 26.7905 21.3524 26.7858 21.6271C26.7444 21.9109 26.6081 22.1588 26.4814 22.4131C26.4548 22.4699 26.4282 22.5268 26.4017 22.5837C26.1202 23.1611 26.1202 23.1611 25.8281 23.2656C25.6862 23.2895 25.5524 23.2883 25.4091 23.2803C25.3544 23.2787 25.3544 23.2787 25.2985 23.2771C25.2093 23.2743 25.1203 23.2701 25.0312 23.2656C25.0261 23.3101 25.0209 23.3546 25.0156 23.4004C24.983 23.6267 24.922 23.8432 24.8584 24.0625C24.8475 24.103 24.8367 24.1435 24.8255 24.1852C24.8139 24.225 24.8024 24.2647 24.7904 24.3057C24.7804 24.3411 24.7704 24.3766 24.7601 24.4132C24.6746 24.5903 24.5749 24.734 24.4218 24.8594C24.2754 24.9061 24.1365 24.9042 23.9837 24.9017C23.9404 24.9023 23.897 24.9028 23.8523 24.9034C23.7085 24.905 23.5648 24.9042 23.421 24.9033C23.3191 24.9039 23.2173 24.9046 23.1154 24.9054C22.8457 24.9072 22.576 24.907 22.3063 24.9064C22.0401 24.9062 21.7739 24.9081 21.5077 24.9097C20.9871 24.9125 20.4665 24.9111 19.9459 24.9078C19.742 24.9066 19.5381 24.9063 19.3342 24.9067C19.0916 24.9073 18.8491 24.9063 18.6065 24.9042C18.5168 24.9036 18.4272 24.9036 18.3375 24.9042C18.2145 24.9049 18.0917 24.9035 17.9688 24.9017C17.9152 24.9027 17.9152 24.9027 17.8605 24.9037C17.7147 24.8997 17.6067 24.8835 17.4937 24.7882C17.3519 24.6272 17.258 24.478 17.1976 24.27C17.1837 24.2232 17.1698 24.1765 17.1555 24.1283C17.1422 24.0805 17.1289 24.0327 17.1152 23.9834C17.1008 23.935 17.0864 23.8867 17.0716 23.8368C17.0136 23.6371 16.9687 23.4751 16.9687 23.2656C16.915 23.2684 16.8613 23.2711 16.8059 23.2739C16.7342 23.2761 16.6625 23.2782 16.5908 23.2803C16.5379 23.2832 16.5379 23.2832 16.4839 23.2862C16.2604 23.2911 16.0984 23.2649 15.9225 23.1215C15.7618 22.9375 15.6612 22.7186 15.5586 22.4986C15.5187 22.4135 15.4768 22.3294 15.4349 22.2453C15.2705 21.9006 15.1415 21.5811 15.2652 21.2024C15.3526 21.0226 15.4755 20.9022 15.6529 20.811C15.7712 20.7747 15.8722 20.7742 15.9957 20.7767C16.0376 20.7773 16.0794 20.778 16.1226 20.7787C16.1543 20.7795 16.186 20.7804 16.2187 20.7813C16.2075 20.7437 16.1963 20.7061 16.1847 20.6674C16.0778 20.3096 15.971 19.9519 15.8642 19.5941C15.8093 19.4103 15.7544 19.2264 15.6994 19.0426C15.6462 18.8645 15.593 18.6864 15.5399 18.5083C15.5198 18.441 15.4997 18.3738 15.4796 18.3065C15.4604 18.2424 15.4413 18.1782 15.4222 18.114C15.4034 18.0514 15.3846 17.9887 15.3657 17.9261C15.3158 17.7599 15.2681 17.5933 15.2231 17.4256C15.2133 17.3899 15.2035 17.3542 15.1934 17.3175C15.1747 17.2494 15.1566 17.1812 15.1392 17.1129C15.0729 16.8742 14.9758 16.7413 14.8125 16.5625C14.6501 16.2378 14.7903 15.7582 14.8681 15.4229C14.8773 15.3784 14.8866 15.3339 14.896 15.288C14.9587 15.0117 15.028 14.8376 15.2343 14.6406C15.3748 14.555 15.4783 14.5352 15.6419 14.5356C15.686 14.5355 15.73 14.5354 15.7754 14.5352C15.8233 14.5356 15.8713 14.5359 15.9208 14.5362C15.9969 14.5362 15.9969 14.5362 16.0746 14.5362C16.2425 14.5363 16.4104 14.537 16.5783 14.5377C16.6947 14.5379 16.8111 14.538 16.9275 14.5381C17.2026 14.5385 17.4776 14.5392 17.7527 14.5401C18.0967 14.5413 18.4406 14.5418 18.7846 14.5423C19.398 14.5433 20.0115 14.545 20.625 14.5469C20.625 13.9591 20.625 13.3713 20.625 12.7656C20.252 12.7712 20.252 12.7712 19.879 12.7783C19.3915 12.782 19.3915 12.782 19.1718 12.625C19.1002 12.4817 19.1141 12.3611 19.125 12.2031C19.2639 11.9517 19.444 11.9627 19.7111 11.9612ZM15.9375 16.9844C15.995 17.2432 16.0523 17.4909 16.1264 17.7438C16.1354 17.7746 16.1444 17.8055 16.1537 17.8373C16.1831 17.9376 16.2126 18.0379 16.2421 18.1381C16.2628 18.2085 16.2835 18.279 16.3041 18.3494C16.3472 18.4962 16.3904 18.6429 16.4337 18.7896C16.4891 18.9775 16.5442 19.1655 16.5992 19.3534C16.6417 19.4985 16.6843 19.6435 16.727 19.7886C16.7474 19.8579 16.7678 19.9272 16.788 19.9965C16.8164 20.0933 16.8449 20.1899 16.8735 20.2866C16.8897 20.3415 16.9058 20.3964 16.9225 20.453C16.9686 20.6049 16.9686 20.6049 17.0625 20.7813C17.7121 20.7813 18.3618 20.7813 19.0312 20.7813C19.0312 19.5283 19.0312 18.2753 19.0312 16.9844C18.0103 16.9844 16.9893 16.9844 15.9375 16.9844ZM19.7812 16.9844C19.7812 18.2374 19.7812 19.4903 19.7812 20.7813C20.5856 20.7813 21.39 20.7813 22.2187 20.7813C22.2187 19.5283 22.2187 18.2753 22.2187 16.9844C21.4143 16.9844 20.61 16.9844 19.7812 16.9844ZM22.9687 16.9844C22.9687 18.2374 22.9687 19.4903 22.9687 20.7813C23.6184 20.7813 24.2681 20.7813 24.9375 20.7813C25.0331 20.5581 25.1117 20.3577 25.1794 20.1277C25.193 20.0817 25.193 20.0817 25.2069 20.0348C25.2366 19.9345 25.2659 19.8341 25.2952 19.7337C25.3159 19.6634 25.3366 19.5931 25.3574 19.5228C25.4006 19.3759 25.4437 19.2289 25.4867 19.082C25.5416 18.8941 25.5969 18.7063 25.6523 18.5185C25.6951 18.3735 25.7377 18.2285 25.7802 18.0834C25.8005 18.0141 25.8209 17.9449 25.8413 17.8757C25.8698 17.7788 25.8982 17.6819 25.9264 17.585C25.9426 17.53 25.9587 17.4749 25.9753 17.4183C26.0234 17.2456 26.0234 17.2456 26.0625 16.9844C25.0415 16.9844 24.0206 16.9844 22.9687 16.9844Z" fill="white"/>
<path d="M17.5781 25.5156C19.8365 25.5156 22.095 25.5156 24.4218 25.5156C24.4247 26.4747 24.4276 27.4338 24.4306 28.4219C24.4319 28.7244 24.4332 29.0268 24.4345 29.3385C24.4352 29.7087 24.4352 29.7087 24.4353 29.8822C24.4355 30.003 24.4359 30.1238 24.4367 30.2446C24.4378 30.4279 24.4379 30.6112 24.4378 30.7946C24.4383 30.8481 24.4388 30.9016 24.4393 30.9568C24.438 31.2992 24.4247 31.6065 24.1699 31.8613C23.971 31.9844 23.8076 32.0429 23.5733 32.0438C23.5026 32.0444 23.5026 32.0444 23.4305 32.045C23.3793 32.045 23.3282 32.0449 23.2755 32.0449C23.2212 32.0452 23.1669 32.0455 23.1109 32.0458C22.9314 32.0467 22.7518 32.0469 22.5723 32.047C22.479 32.0472 22.3857 32.0474 22.2924 32.0477C21.999 32.0485 21.7055 32.0487 21.4121 32.0486C21.1101 32.0486 20.8081 32.0496 20.5061 32.051C20.2462 32.0523 19.9864 32.0528 19.7265 32.0527C19.5716 32.0527 19.4166 32.053 19.2617 32.0539C19.0887 32.0549 18.9157 32.0546 18.7427 32.054C18.6918 32.0546 18.6409 32.0551 18.5885 32.0556C18.2932 32.0532 18.0556 32.0218 17.8125 31.8438C17.6211 31.6082 17.5722 31.4268 17.5725 31.13C17.5724 31.0806 17.5723 31.0311 17.5723 30.9801C17.5725 30.8988 17.5725 30.8988 17.5728 30.8158C17.5728 30.7577 17.5728 30.6996 17.5728 30.6398C17.5728 30.4827 17.573 30.3257 17.5734 30.1687C17.5736 30.0213 17.5736 29.8739 17.5737 29.7265C17.5739 29.2955 17.5746 28.8646 17.5752 28.4336C17.5761 27.4707 17.5771 26.5077 17.5781 25.5156Z" fill="white"/>
</g>
<defs>
<filter id="filter0_ii_1134_1619" x="0" y="-3" width="43" height="50" filterUnits="userSpaceOnUse" color-interpolation-filters="sRGB">
<feFlood flood-opacity="0" result="BackgroundImageFix"/>
<feBlend mode="normal" in="SourceGraphic" in2="BackgroundImageFix" result="shape"/>
<feColorMatrix in="SourceAlpha" type="matrix" values="0 0 0 0 0 0 0 0 0 0 0 0 0 0 0 0 0 0 127 0" result="hardAlpha"/>
<feOffset dy="4"/>
<feGaussianBlur stdDeviation="2"/>
<feComposite in2="hardAlpha" operator="arithmetic" k2="-1" k3="1"/>
<feColorMatrix type="matrix" values="0 0 0 0 0 0 0 0 0 0.18809 0 0 0 0 0.839844 0 0 0 1 0"/>
<feBlend mode="normal" in2="shape" result="effect1_innerShadow_1134_1619"/>
<feColorMatrix in="SourceAlpha" type="matrix" values="0 0 0 0 0 0 0 0 0 0 0 0 0 0 0 0 0 0 127 0" result="hardAlpha"/>
<feOffset dy="-3"/>
<feGaussianBlur stdDeviation="2"/>
<feComposite in2="hardAlpha" operator="arithmetic" k2="-1" k3="1"/>
<feColorMatrix type="matrix" values="0 0 0 0 0 0 0 0 0 0 0 0 0 0 0 0 0 0 0.25 0"/>
<feBlend mode="normal" in2="effect1_innerShadow_1134_1619" result="effect2_innerShadow_1134_1619"/>
</filter>
</defs>
</svg>
