<svg width="48" height="48" viewBox="0 0 48 48" fill="none" xmlns="http://www.w3.org/2000/svg">
<rect width="48" height="48" rx="24" fill="url(#paint0_linear_408_2324)"/>
<path d="M21.5469 12.1601C22.1875 12.6593 22.5542 13.3289 22.6875 14.125C22.7516 14.905 22.5615 15.5451 22.125 16.1875C22.0798 16.2553 22.0346 16.3231 21.9881 16.393C21.9321 16.4769 21.9321 16.4769 21.875 16.5625C21.9384 16.5957 22.0017 16.6289 22.0669 16.6631C22.1514 16.7076 22.2359 16.7522 22.3204 16.7968C22.3619 16.8186 22.4035 16.8404 22.4463 16.8628C22.646 16.9685 22.8304 17.075 23.0162 17.2051C23.2177 17.3313 23.3211 17.3157 23.5501 17.2729C23.9008 17.2144 24.248 17.236 24.5938 17.3086C24.8534 17.3419 24.9739 17.2686 25.1836 17.1172C25.235 17.077 25.2863 17.0368 25.3392 16.9953C25.5825 16.8133 25.8501 16.6894 26.125 16.5625C26.0748 16.489 26.0748 16.489 26.0235 16.414C25.9739 16.3386 25.9245 16.263 25.875 16.1875C25.8442 16.142 25.8133 16.0966 25.7815 16.0498C25.3601 15.3982 25.2224 14.7028 25.3418 13.9372C25.492 13.2373 25.859 12.5936 26.4532 12.1797C27.2181 11.6931 28.0138 11.5627 28.9063 11.728C29.6162 11.9443 30.2059 12.3914 30.5918 13.0259C30.9602 13.7176 31.0521 14.4684 30.8633 15.2343C30.7088 15.7336 30.4347 16.1466 30.125 16.5625C30.181 16.5883 30.2369 16.614 30.2945 16.6406C31.0476 16.9966 31.6087 17.4634 32.1875 18.0625C32.2707 18.146 32.354 18.2293 32.4375 18.3125C32.4871 18.2924 32.5366 18.2724 32.5877 18.2517C33.2601 18.0597 34.0702 18.1145 34.7024 18.4035C35.4428 18.8172 35.9282 19.4291 36.2032 20.2265C36.3757 21.0179 36.2434 21.8038 35.8338 22.4948C35.7085 22.6896 35.5759 22.8767 35.4375 23.0625C35.4985 23.0919 35.5595 23.1213 35.6224 23.1516C35.7027 23.1909 35.783 23.2302 35.8633 23.2695C35.9035 23.2888 35.9437 23.3081 35.985 23.328C36.3876 23.5261 36.3876 23.5261 36.5 23.6875C36.5535 23.9491 36.5415 24.1792 36.4063 24.4101C36.1757 24.5427 36.0037 24.5596 35.75 24.5C35.5659 24.4167 35.3884 24.3271 35.2101 24.2322C34.2478 23.7247 33.2187 23.7353 32.1875 24C31.6682 24.1654 31.242 24.4181 30.8125 24.75C30.7742 24.7766 30.7358 24.8031 30.6963 24.8305C30.1061 25.2719 29.6502 26.1258 29.5379 26.8454C29.5742 27.0727 29.6906 27.1384 29.8672 27.2812C30.1121 27.4844 30.3008 27.6845 30.4773 27.9495C30.693 28.2696 30.8739 28.4829 31.2657 28.5742C31.3822 28.5892 31.4989 28.6038 31.616 28.6135C31.7637 28.6261 31.9099 28.6451 32.0569 28.6643C33.6693 28.8593 35.835 28.8933 37.2164 27.8896C37.3095 27.8178 37.3095 27.8178 37.375 27.75C37.4577 26.7997 37.1567 26.0601 36.6443 25.2756C36.5268 25.0592 36.5645 24.921 36.625 24.6875C36.7648 24.5052 36.885 24.4445 37.1133 24.414C37.3877 24.4463 37.4512 24.537 37.625 24.75C38.2152 25.5331 38.511 26.3822 38.5274 27.3593C38.5288 27.4089 38.5302 27.4584 38.5316 27.5094C38.5298 27.977 38.3666 28.3542 38.0391 28.6914C37.463 29.2334 36.6948 29.4667 35.9375 29.625C35.897 29.6343 35.8564 29.6437 35.8146 29.6533C35.0152 29.8325 34.2095 29.829 33.3946 29.8281C33.3393 29.8281 33.2841 29.828 33.2271 29.828C33.0665 29.8276 32.906 29.8265 32.7454 29.8252C32.6976 29.8249 32.6498 29.8246 32.6005 29.8243C32.2717 29.8201 31.9514 29.7903 31.625 29.75C31.6499 29.812 31.6748 29.874 31.7005 29.938C31.9197 30.4956 32.085 31.0328 32.1875 31.625C32.2017 31.7049 32.2159 31.7848 32.2305 31.8672C32.3052 32.6043 32.3395 33.3798 31.8946 34.0078C31.827 34.0897 31.7579 34.1704 31.6875 34.25C31.653 34.2911 31.6184 34.3322 31.5828 34.3745C30.3278 35.7558 27.9877 36.0455 26.25 36.25C26.1956 36.2565 26.1412 36.263 26.0851 36.2698C25.4022 36.3391 24.713 36.3276 24.0274 36.3281C23.9591 36.3282 23.8909 36.3283 23.8206 36.3284C22.7833 36.3281 21.7756 36.2905 20.75 36.125C20.6461 36.1098 20.5422 36.0947 20.4383 36.0796C19.7184 35.9653 19.7184 35.9653 19.4375 35.6875C19.379 35.4691 19.3517 35.3221 19.4219 35.1054C19.5 35 19.5 35 19.6875 34.875C20.1199 34.8438 20.5319 34.9224 20.9571 34.9961C21.0909 35.019 21.2248 35.0417 21.3587 35.0642C21.4174 35.0743 21.476 35.0845 21.5365 35.0949C22.0683 35.1698 22.5967 35.1977 23.1333 35.2002C23.1975 35.2006 23.2617 35.201 23.3279 35.2015C23.5337 35.2026 23.7395 35.203 23.9454 35.2031C24.0507 35.2032 24.0507 35.2032 24.1582 35.2032C25.1591 35.2023 26.1388 35.188 27.125 35C27.2172 34.9829 27.2172 34.9829 27.3113 34.9655C29.3446 34.5862 29.3446 34.5862 30.9605 33.3899C31.3635 32.727 31.0863 31.7917 30.9151 31.0876C30.6503 30.0958 30.1223 29.1956 29.4375 28.4375C29.3901 28.3849 29.3426 28.3323 29.2937 28.278C27.9892 26.9052 26.0875 26.1454 24.2087 26.0953C22.0982 26.0794 20.2287 26.8117 18.7032 28.2695C17.5901 29.423 16.9086 31.0072 16.8516 32.6093C16.86 32.9613 16.8978 33.2242 17.125 33.5C17.2331 33.594 17.3426 33.6863 17.4532 33.7773C17.7349 34.0179 17.7349 34.0179 17.8016 34.2143C17.8137 34.4688 17.7815 34.587 17.6172 34.7851C17.4044 34.8916 17.2975 34.9133 17.0625 34.875C16.4403 34.5569 15.9941 33.9785 15.7745 33.3239C15.5707 32.1847 15.863 30.7741 16.375 29.75C16.2937 29.76 16.2124 29.7701 16.1287 29.7804C15.8366 29.8127 15.5483 29.8235 15.2547 29.8252C15.2033 29.8256 15.152 29.826 15.0991 29.8265C14.9346 29.8276 14.7701 29.828 14.6055 29.8281C14.5494 29.8281 14.4933 29.8282 14.4354 29.8282C13.6323 29.8273 12.8469 29.8162 12.0625 29.625C12.0162 29.6139 11.9699 29.6029 11.9221 29.5915C11.0731 29.3817 10.2342 29.1004 9.68755 28.375C9.50463 28.0324 9.46781 27.7504 9.4727 27.3711C9.47322 27.3189 9.47374 27.2667 9.47427 27.2129C9.50181 26.1902 9.94383 25.1962 10.625 24.4375C10.6698 24.3869 10.7146 24.3363 10.7608 24.2842C11.2716 23.74 11.872 23.3424 12.5625 23.0625C12.5391 23.0336 12.5157 23.0048 12.4915 22.9751C11.8925 22.2116 11.6685 21.4693 11.75 20.5C11.8791 19.7887 12.2389 19.1618 12.8089 18.709C13.3907 18.3292 13.869 18.1762 14.5508 18.1758C14.6331 18.1746 14.6331 18.1746 14.717 18.1734C15.0448 18.1727 15.3149 18.2054 15.625 18.3125C15.6689 18.2634 15.7127 18.2143 15.7579 18.1638C16.3758 17.477 16.9897 16.8943 17.875 16.5625C17.8399 16.5192 17.8399 16.5192 17.804 16.4751C17.2195 15.7301 16.9903 15.0084 17.0625 14.0625C17.1884 13.3169 17.5555 12.6532 18.159 12.1906C19.1948 11.4938 20.4975 11.461 21.5469 12.1601ZM18.4144 13.4802C18.1232 13.8942 18.0621 14.3117 18.125 14.8125C18.2701 15.3479 18.6212 15.7839 19.0977 16.0625C19.5425 16.2615 20.0266 16.2723 20.492 16.1343C20.9954 15.909 21.3579 15.5116 21.5625 15C21.7168 14.453 21.5944 13.9732 21.3282 13.4883C21.0634 13.1573 20.739 12.8422 20.3125 12.75C19.4937 12.6601 18.9384 12.8376 18.4144 13.4802ZM26.7127 13.4385C26.4304 13.8379 26.3427 14.2026 26.375 14.6875C26.5092 15.2529 26.7801 15.6596 27.25 16C27.6574 16.2494 28.0955 16.2411 28.5625 16.1875C29.0975 16.0356 29.4818 15.6623 29.7601 15.1892C29.9281 14.8084 29.9423 14.373 29.834 13.9736C29.6233 13.4469 29.2623 13.036 28.742 12.8032C27.9371 12.5645 27.2284 12.7929 26.7127 13.4385ZM16.8123 18.5493C16.6762 18.7001 16.6043 18.8006 16.5625 19C16.6347 19.1503 16.6347 19.1503 16.7579 19.289C17.2169 19.8935 17.3552 20.5659 17.3125 21.3125C17.2803 21.5234 17.2379 21.7302 17.1875 21.9375C17.9781 22.2323 18.7903 22.2745 19.625 22.3125C19.6256 22.2776 19.6262 22.2428 19.6268 22.2069C19.658 20.7197 19.967 19.4991 21.0625 18.4375C21.3156 18.1984 21.5813 17.9988 21.875 17.8125C20.3684 16.5826 18.068 17.4362 16.8123 18.5493ZM26.25 17.6875C26.2088 17.7287 26.1675 17.77 26.125 17.8125C26.193 17.8601 26.193 17.8601 26.2623 17.9087C27.1553 18.5445 27.1553 18.5445 27.2164 18.8152C27.225 18.9974 27.207 19.1485 27.125 19.3125C26.9051 19.4225 26.7327 19.4403 26.5 19.375C26.3024 19.2469 26.1218 19.1044 25.9375 18.9577C25.37 18.518 24.6107 18.2577 23.8858 18.2949C22.88 18.4251 22.038 18.778 21.375 19.5625C20.7888 20.3542 20.5896 21.2158 20.6875 22.1875C20.8507 23.0719 21.317 23.8306 22.0332 24.3689C22.784 24.8791 23.654 25.1168 24.5533 24.9572C25.4925 24.7546 26.2641 24.2888 26.8047 23.4726C27.2537 22.7176 27.4622 21.8716 27.2867 20.9962C27.2369 20.8076 27.1765 20.6243 27.1111 20.4406C27.0472 20.1897 27.0628 19.9849 27.1915 19.7578C27.3841 19.6459 27.596 19.6429 27.8125 19.6875C28.0227 19.8336 28.0637 20.0354 28.1329 20.2734C28.164 20.3785 28.164 20.3785 28.1958 20.4858C28.2709 20.7651 28.3199 21.0284 28.3323 21.3176C28.3349 21.3758 28.3376 21.434 28.3403 21.494C28.3427 21.554 28.3452 21.614 28.3477 21.6758C28.3504 21.7369 28.3531 21.7981 28.3559 21.8612C28.3625 22.0116 28.3689 22.162 28.375 22.3125C28.9276 22.2924 29.4706 22.2564 30.0157 22.1601C30.0815 22.1487 30.0815 22.1487 30.1486 22.137C30.3825 22.0933 30.5953 22.0347 30.8125 21.9375C30.8035 21.9003 30.7945 21.8632 30.7852 21.8249C30.6058 21.0236 30.6367 20.2525 31.0625 19.5312C31.1551 19.3866 31.2496 19.2505 31.357 19.1164C31.4552 19.0032 31.4552 19.0032 31.4141 18.8554C30.9389 18.0696 29.9833 17.6301 29.1407 17.3633C28.146 17.1416 27.1736 17.2805 26.25 17.6875ZM13.3157 19.739C12.9648 20.1135 12.8081 20.4516 12.7852 20.9648C12.8025 21.4873 13.0175 21.886 13.3731 22.2627C13.786 22.6279 14.1966 22.7374 14.743 22.7136C15.2178 22.6499 15.6202 22.4209 15.9375 22.0625C16.2255 21.6402 16.3469 21.2649 16.3125 20.75C16.179 20.1871 15.909 19.7737 15.4375 19.4375C14.6798 19.0379 13.9334 19.161 13.3157 19.739ZM32.3125 19.625C31.9196 20.0064 31.714 20.4056 31.6719 20.9531C31.7059 21.4628 31.8925 21.8832 32.25 22.25C32.7721 22.6669 33.2089 22.7528 33.875 22.6875C34.4095 22.5342 34.7943 22.1623 35.0726 21.6892C35.2675 21.2476 35.2494 20.7511 35.0938 20.3008C34.8729 19.8132 34.5066 19.4836 34.0093 19.2927C33.3962 19.0976 32.8089 19.2194 32.3125 19.625ZM16.5625 22.875C16.5007 22.9678 16.5007 22.9678 16.4375 23.0625C16.492 23.0875 16.5465 23.1126 16.6026 23.1384C17.9292 23.7716 18.8878 24.7019 19.3946 26.1015C19.4088 26.1505 19.4229 26.1995 19.4375 26.25C19.7962 26.1151 20.1373 25.9409 20.4812 25.7728C20.8141 25.6128 21.1468 25.4827 21.5 25.375C21.4239 25.1466 21.349 25.1109 21.1563 24.9726C20.6501 24.5787 20.2795 24.0641 20.0228 23.4778C19.9423 23.3609 19.9423 23.3609 19.7867 23.332C19.536 23.3102 19.2852 23.2917 19.0341 23.2752C18.1851 23.2184 17.3867 23.0814 16.5625 22.875ZM31.1687 22.907C31.0849 22.9305 31.0013 22.9551 30.918 22.9804C30.8271 23.0055 30.7361 23.0302 30.6451 23.0547C30.5995 23.0669 30.5539 23.0792 30.5069 23.0918C29.9524 23.2314 29.3788 23.2665 28.8093 23.2857C28.5221 23.2977 28.2676 23.3299 28 23.4375C27.888 23.5741 27.888 23.5741 27.8204 23.7461C27.5307 24.3324 27.1393 24.7915 26.6033 25.1662C26.5692 25.1939 26.5352 25.2215 26.5 25.25C26.5 25.2912 26.5 25.3325 26.5 25.375C26.5614 25.3962 26.6227 25.4175 26.6858 25.4394C27.195 25.6208 27.6724 25.8258 28.1439 26.0912C28.3409 26.2109 28.3409 26.2109 28.5625 26.25C28.58 26.1993 28.5975 26.1486 28.6155 26.0964C29.1145 24.7183 30.0552 23.772 31.368 23.1521C31.4322 23.1225 31.4964 23.0929 31.5625 23.0625C31.44 22.8739 31.3956 22.8718 31.1687 22.907ZM11.375 25.1875C10.8185 25.8647 10.4856 26.679 10.5254 27.5644C10.564 27.7571 10.5944 27.8381 10.7344 27.9726C10.8576 28.056 10.8576 28.056 11 28.125C11.0524 28.1521 11.1048 28.1793 11.1587 28.2072C12.8765 28.9999 15.1263 28.9912 16.9375 28.5625C17.1558 28.4814 17.2513 28.3748 17.3868 28.1875C17.6742 27.8048 17.9756 27.4089 18.3604 27.1203C18.4065 27.0806 18.4526 27.0409 18.5 27C18.5269 26.248 18.041 25.5388 17.5625 25C16.7172 24.1637 15.6235 23.75 14.4437 23.7456C13.249 23.7856 12.1927 24.3329 11.375 25.1875Z" fill="#F1F5F9"/>
<path d="M18.5195 34.4805C18.7169 34.4839 18.799 34.4921 18.9727 34.5938C19.1001 34.8154 19.1116 35.0004 19.0625 35.25C18.9688 35.4062 18.9688 35.4062 18.8125 35.5C18.5755 35.5422 18.3811 35.5299 18.1602 35.4336C18.013 35.2511 18.004 35.1066 18 34.875C18.1395 34.5833 18.2017 34.4904 18.5195 34.4805Z" fill="#F1F5F9"/>
<defs>
<linearGradient id="paint0_linear_408_2324" x1="24" y1="0" x2="24" y2="48" gradientUnits="userSpaceOnUse">
<stop offset="0.274038" stop-color="#2752E7"/>
<stop offset="1" stop-color="#2440A0"/>
</linearGradient>
</defs>
</svg>
