<svg width="25" height="25" viewBox="0 0 25 25" fill="none" xmlns="http://www.w3.org/2000/svg">
<path d="M14.4527 16.0225C14.6398 16.0225 14.7385 16.1618 14.7388 16.2686V22.5H10.3101V16.2686C10.3105 16.1618 10.4091 16.0225 10.5963 16.0225H14.4527ZM12.524 2.5C13.9508 2.5 15.1488 3.49501 17.5445 5.48535L18.8297 6.55371C20.1551 7.65488 20.8186 8.20556 21.1715 8.94922C21.5242 9.69277 21.524 10.5388 21.524 12.2305V17.5156C21.524 19.8648 21.5238 21.0395 20.7711 21.7695C20.0559 22.4627 18.9266 22.4973 16.7388 22.499V16.2686C16.7386 14.9991 15.6853 14.0225 14.4527 14.0225H10.5963C9.36373 14.0225 8.31043 14.9991 8.31013 16.2686V22.499C6.12171 22.4973 4.9922 22.4628 4.27693 21.7695C3.52417 21.0395 3.524 19.8648 3.524 17.5156V12.2305C3.524 10.5388 3.5238 9.69277 3.87654 8.94922C4.22942 8.20556 4.89291 7.65488 6.21834 6.55371L7.50349 5.48535C9.89918 3.49501 11.0972 2.5 12.524 2.5Z" fill="#2752E7"/>
</svg>
