<svg width="9" height="15" viewBox="0 0 9 15" fill="none" xmlns="http://www.w3.org/2000/svg">
<path d="M2.30767 7.11947L7.73867 12.5501C7.92311 12.7348 8.01756 12.9669 8.022 13.2465C8.02622 13.5258 7.93178 13.7621 7.73867 13.9555C7.54533 14.1486 7.31111 14.2451 7.036 14.2451C6.76089 14.2451 6.52667 14.1486 6.33333 13.9555L0.340999 7.96314C0.216333 7.83825 0.128333 7.70658 0.0769999 7.56814C0.0256666 7.42969 0 7.28014 0 7.11947C0 6.9588 0.0256666 6.80925 0.0769999 6.6708C0.128333 6.53236 0.216333 6.40069 0.340999 6.2758L6.33333 0.283469C6.518 0.0990244 6.75011 0.00457996 7.02967 0.000135511C7.309 -0.00408671 7.54533 0.0903578 7.73867 0.283469C7.93178 0.476802 8.02833 0.711025 8.02833 0.986136C8.02833 1.26125 7.93178 1.49547 7.73867 1.6888L2.30767 7.11947Z" fill="white"/>
</svg>
