<svg width="32" height="32" viewBox="0 0 32 32" fill="none" xmlns="http://www.w3.org/2000/svg">
<mask id="mask0_408_2956" style="mask-type:alpha" maskUnits="userSpaceOnUse" x="0" y="0" width="32" height="32">
<rect width="32" height="32" fill="white"/>
</mask>
<g mask="url(#mask0_408_2956)">
<path d="M13.7361 16.2624L19.1671 21.693C19.3516 21.8777 19.446 22.1098 19.4505 22.3894C19.4547 22.6687 19.3602 22.905 19.1671 23.0984C18.9738 23.2915 18.7396 23.388 18.4645 23.388C18.1894 23.388 17.9551 23.2915 17.7618 23.0984L11.7695 17.106C11.6448 16.9811 11.5568 16.8495 11.5055 16.711C11.4541 16.5726 11.4285 16.423 11.4285 16.2624C11.4285 16.1017 11.4541 15.9521 11.5055 15.8137C11.5568 15.6752 11.6448 15.5436 11.7695 15.4187L17.7618 9.42635C17.9465 9.24191 18.1786 9.14746 18.4581 9.14302C18.7375 9.1388 18.9738 9.23324 19.1671 9.42635C19.3602 9.61969 19.4568 9.85391 19.4568 10.129C19.4568 10.4041 19.3602 10.6384 19.1671 10.8317L13.7361 16.2624Z" fill="#202020"/>
</g>
</svg>
