<svg width="32" height="32" viewBox="0 0 32 32" fill="none" xmlns="http://www.w3.org/2000/svg">
<mask id="mask0_408_4599" style="mask-type:alpha" maskUnits="userSpaceOnUse" x="0" y="0" width="32" height="32">
<rect width="32" height="32" fill="white"/>
</mask>
<g mask="url(#mask0_408_4599)">
<path d="M13.7361 16.2623L19.1671 21.693C19.3516 21.8776 19.446 22.1097 19.4505 22.3893C19.4547 22.6686 19.3602 22.905 19.1671 23.0983C18.9738 23.2914 18.7396 23.388 18.4645 23.388C18.1894 23.388 17.9551 23.2914 17.7618 23.0983L11.7695 17.106C11.6448 16.9811 11.5568 16.8494 11.5055 16.711C11.4541 16.5725 11.4285 16.423 11.4285 16.2623C11.4285 16.1016 11.4541 15.9521 11.5055 15.8136C11.5568 15.6752 11.6448 15.5435 11.7695 15.4186L17.7618 9.42629C17.9465 9.24185 18.1786 9.1474 18.4581 9.14296C18.7375 9.13874 18.9738 9.23318 19.1671 9.42629C19.3602 9.61962 19.4568 9.85385 19.4568 10.129C19.4568 10.4041 19.3602 10.6383 19.1671 10.8316L13.7361 16.2623Z" fill="white"/>
</g>
</svg>
