<svg width="32" height="32" viewBox="0 0 32 32" fill="none" xmlns="http://www.w3.org/2000/svg">
<circle cx="16" cy="16" r="16" fill="#F9E2E2"/>
<mask id="mask0_408_3342" style="mask-type:alpha" maskUnits="userSpaceOnUse" x="6" y="6" width="20" height="20">
<rect x="6" y="6" width="20" height="20" fill="#D9D9D9"/>
</mask>
<g mask="url(#mask0_408_3342)">
<path d="M11.1667 23.5C10.7083 23.5 10.316 23.3368 9.98958 23.0104C9.66319 22.684 9.5 22.2917 9.5 21.8333V10.1667C9.5 9.70833 9.66319 9.31597 9.98958 8.98958C10.316 8.66319 10.7083 8.5 11.1667 8.5H16.1667C16.4028 8.5 16.6007 8.57986 16.7604 8.73958C16.9201 8.89931 17 9.09722 17 9.33333C17 9.56944 16.9201 9.76736 16.7604 9.92708C16.6007 10.0868 16.4028 10.1667 16.1667 10.1667H11.1667V21.8333H16.1667C16.4028 21.8333 16.6007 21.9132 16.7604 22.0729C16.9201 22.2326 17 22.4306 17 22.6667C17 22.9028 16.9201 23.1007 16.7604 23.2604C16.6007 23.4201 16.4028 23.5 16.1667 23.5H11.1667ZM21.3125 16.8333H15.3333C15.0972 16.8333 14.8993 16.7535 14.7396 16.5938C14.5799 16.434 14.5 16.2361 14.5 16C14.5 15.7639 14.5799 15.566 14.7396 15.4062C14.8993 15.2465 15.0972 15.1667 15.3333 15.1667H21.3125L19.75 13.6042C19.5972 13.4514 19.5208 13.2639 19.5208 13.0417C19.5208 12.8194 19.5972 12.625 19.75 12.4583C19.9028 12.2917 20.0972 12.2049 20.3333 12.1979C20.5694 12.191 20.7708 12.2708 20.9375 12.4375L23.9167 15.4167C24.0833 15.5833 24.1667 15.7778 24.1667 16C24.1667 16.2222 24.0833 16.4167 23.9167 16.5833L20.9375 19.5625C20.7708 19.7292 20.5729 19.809 20.3437 19.8021C20.1146 19.7951 19.9167 19.7083 19.75 19.5417C19.5972 19.375 19.5243 19.1771 19.5312 18.9479C19.5382 18.7188 19.6181 18.5278 19.7708 18.375L21.3125 16.8333Z" fill="#D11515"/>
</g>
</svg>
