<svg width="24" height="24" viewBox="0 0 24 24" fill="none" xmlns="http://www.w3.org/2000/svg">
<path d="M16 2C18.8284 2 20.2424 2.00023 21.1211 2.87891C21.9998 3.75759 22 5.17157 22 8V16C22 18.8284 21.9998 20.2424 21.1211 21.1211C20.2424 21.9998 18.8284 22 16 22H8C5.17157 22 3.75759 21.9998 2.87891 21.1211C2.00023 20.2424 2 18.8284 2 16V8C2 5.17157 2.00023 3.75759 2.87891 2.87891C3.75759 2.00023 5.17157 2 8 2H16ZM17.5547 8.16797C17.0952 7.86162 16.4743 7.98578 16.168 8.44531L13.124 13.0117L12.665 12.0938C11.9782 10.7205 10.0637 10.6013 9.21191 11.8789L6.16797 16.4453C5.86162 16.9048 5.98579 17.5257 6.44531 17.832C6.90484 18.1384 7.52568 18.0142 7.83203 17.5547L10.876 12.9883L11.335 13.9062C12.0218 15.2795 13.9363 15.3987 14.7881 14.1211L17.832 9.55469C18.1384 9.09516 18.0142 8.47432 17.5547 8.16797Z" fill="#2752E7"/>
</svg>
