<svg width="25" height="25" viewBox="0 0 25 25" fill="none" xmlns="http://www.w3.org/2000/svg">
<path d="M16.524 2.5C19.3524 2.5 20.7664 2.50023 21.6451 3.37891C22.5238 4.25759 22.524 5.67157 22.524 8.5V16.5C22.524 19.3284 22.5238 20.7424 21.6451 21.6211C20.7664 22.4998 19.3524 22.5 16.524 22.5H8.524C5.69557 22.5 4.28159 22.4998 3.40291 21.6211C2.52423 20.7424 2.524 19.3284 2.524 16.5V8.5C2.524 5.67157 2.52423 4.25759 3.40291 3.37891C4.28159 2.50023 5.69557 2.5 8.524 2.5H16.524ZM18.0787 8.66797C17.6192 8.36162 16.9983 8.48578 16.692 8.94531L13.648 13.5117L13.189 12.5938C12.5022 11.2205 10.5877 11.1013 9.73592 12.3789L6.69197 16.9453C6.38562 17.4048 6.50979 18.0257 6.96931 18.332C7.42884 18.6384 8.04968 18.5142 8.35603 18.0547L11.4 13.4883L11.859 14.4062C12.5458 15.7795 14.4603 15.8987 15.3121 14.6211L18.356 10.0547C18.6624 9.59516 18.5382 8.97432 18.0787 8.66797Z" fill="#707070"/>
</svg>
