<svg width="218" height="218" viewBox="0 0 218 218" fill="none" xmlns="http://www.w3.org/2000/svg">
<path d="M132.143 19.3192C129.677 17.5524 126.788 16.469 123.769 16.1788C120.75 15.8886 117.708 16.4019 114.951 17.6667C87.7316 30.1843 -2.11058 74.3554 16.8162 103.886C39.0522 138.591 117.968 193.344 146.906 190.733C175.843 188.121 208.652 139.572 201.283 107.618C195.092 80.769 153.472 34.6576 132.143 19.3192Z" fill="#2752E7"/>
<path opacity="0.7" d="M132.143 19.3192C129.677 17.5524 126.788 16.469 123.769 16.1788C120.75 15.8886 117.708 16.4019 114.951 17.6667C87.7316 30.1843 -2.11058 74.3554 16.8162 103.886C39.0522 138.591 117.968 193.344 146.906 190.733C175.843 188.121 208.652 139.572 201.283 107.618C195.092 80.769 153.472 34.6576 132.143 19.3192Z" fill="white"/>
<path d="M144.577 39.3708V171.679C144.577 173.423 143.884 175.095 142.651 176.328C141.418 177.562 139.746 178.254 138.002 178.254H80.8337C79.0899 178.254 77.4176 177.562 76.1845 176.328C74.9515 175.095 74.2588 173.423 74.2588 171.679V39.3708C74.2588 37.6278 74.9509 35.9561 76.183 34.7232C77.4151 33.4903 79.0863 32.7971 80.8293 32.7959H105.367L105.389 32.8744C106 35.0544 107.408 36.5063 108.969 36.5063H109.841C111.406 36.5063 112.814 35.0718 113.425 32.8744L113.446 32.7959H137.98C138.845 32.7931 139.703 32.961 140.503 33.2901C141.303 33.6193 142.031 34.1031 142.643 34.7139C143.256 35.3248 143.743 36.0505 144.074 36.8497C144.406 37.6488 144.577 38.5055 144.577 39.3708Z" fill="white" stroke="#263238" stroke-linecap="round" stroke-linejoin="round"/>
<path d="M149.046 70.9721V57.7569H147.852V40.8401C147.852 38.0741 146.753 35.4215 144.797 33.4656C142.841 31.5098 140.188 30.411 137.423 30.411H81.4096C78.6436 30.411 75.9909 31.5098 74.0351 33.4656C72.0792 35.4215 70.9805 38.0741 70.9805 40.8401V175.272C70.9805 178.038 72.0792 180.691 74.0351 182.646C75.9909 184.602 78.6436 185.701 81.4096 185.701H137.423C140.188 185.701 142.841 184.602 144.797 182.646C146.753 180.691 147.852 178.038 147.852 175.272V82.234H149.046V74.4252H147.852V70.9721H149.046ZM144.577 167.825C144.576 170.591 143.477 173.243 141.521 175.198C139.566 177.154 136.914 178.253 134.148 178.254H84.6883C81.9223 178.254 79.2696 177.155 77.3138 175.2C75.358 173.244 74.2592 170.591 74.2592 167.825V43.225C74.2592 40.4591 75.358 37.8064 77.3138 35.8505C79.2696 33.8947 81.9223 32.7959 84.6883 32.7959H105.368L105.39 32.8744C106 35.0544 107.408 36.5063 108.969 36.5063H109.841C111.406 36.5063 112.815 35.0718 113.425 32.8744L113.447 32.7959H134.126C135.498 32.7936 136.856 33.0617 138.123 33.5847C139.391 34.1077 140.543 34.8755 141.514 35.8441C142.484 36.8127 143.254 37.9631 143.78 39.2296C144.306 40.4961 144.577 41.8538 144.577 43.225V167.825Z" fill="#2752E7" stroke="#263238" stroke-linecap="round" stroke-linejoin="round"/>
<path d="M136.59 31.8498H82.247C80.9261 31.8498 79.6181 32.11 78.3978 32.6155C77.1774 33.1209 76.0686 33.8619 75.1345 34.7959C74.2005 35.7299 73.4596 36.8387 72.9541 38.0591C72.4486 39.2794 72.1885 40.5874 72.1885 41.9083V174.208C72.1885 176.876 73.2482 179.434 75.1345 181.321C77.0209 183.207 79.5793 184.267 82.247 184.267H136.59C137.911 184.267 139.218 184.006 140.439 183.501C141.659 182.995 142.767 182.254 143.701 181.32C144.635 180.386 145.375 179.277 145.88 178.057C146.385 176.837 146.645 175.529 146.644 174.208V41.9083C146.645 40.5876 146.385 39.2798 145.88 38.0594C145.375 36.8391 144.635 35.7302 143.701 34.7961C142.767 33.8621 141.659 33.1211 140.439 32.6155C139.218 32.11 137.911 31.8498 136.59 31.8498ZM144.578 168.196C144.578 170.863 143.518 173.422 141.631 175.308C139.745 177.195 137.187 178.254 134.519 178.254H84.318C81.6503 178.254 79.0919 177.195 77.2055 175.308C75.3192 173.422 74.2595 170.863 74.2595 168.196V42.8501C74.2595 40.1835 75.3187 37.6262 77.2043 35.7407C79.0898 33.8552 81.6471 32.7959 84.3136 32.7959H105.368L105.39 32.8744C106 35.0544 107.409 36.5063 108.969 36.5063H109.841C111.407 36.5063 112.815 35.0718 113.425 32.8744L113.447 32.7959H134.497C135.82 32.7931 137.13 33.0511 138.353 33.5553C139.576 34.0595 140.687 34.8 141.624 35.7343C142.56 36.6686 143.303 37.7784 143.81 39.0002C144.317 40.2219 144.578 41.5317 144.578 42.8544V168.196Z" fill="#263238" stroke="#263238" stroke-linecap="round" stroke-linejoin="round"/>
<path d="M110.182 33.2973C110.183 33.1029 110.126 32.9127 110.018 32.7507C109.911 32.5887 109.758 32.4623 109.578 32.3875C109.399 32.3127 109.201 32.2929 109.01 32.3306C108.82 32.3683 108.645 32.4618 108.507 32.5993C108.37 32.7368 108.276 32.9119 108.238 33.1026C108.201 33.2933 108.22 33.491 108.295 33.6704C108.37 33.8498 108.496 34.003 108.658 34.1104C108.82 34.2179 109.011 34.2748 109.205 34.274C109.464 34.274 109.713 34.1711 109.896 33.9879C110.079 33.8047 110.182 33.5563 110.182 33.2973Z" fill="white"/>
<path d="M80.5073 37.06C80.5073 38.0497 79.3955 38.4072 79.3912 39.1615V39.2138H80.4725V39.5496H79.0293V39.24C79.0293 38.1805 80.1411 37.9712 80.1411 37.06C80.1411 36.7243 80.0321 36.5455 79.7574 36.5455C79.4827 36.5455 79.3737 36.7374 79.3737 37.0295V37.3216H79.0293V37.06C79.0293 36.5586 79.2604 36.2272 79.7661 36.2272C80.2719 36.2272 80.5073 36.5455 80.5073 37.06Z" fill="#263238"/>
<path d="M82.3075 37.06V37.1428C82.3244 37.2839 82.2942 37.4266 82.2217 37.5488C82.1492 37.671 82.0383 37.7659 81.9064 37.8186C82.039 37.873 82.1501 37.9694 82.2226 38.0931C82.2951 38.2168 82.3249 38.3609 82.3075 38.5032V38.756C82.3075 39.2574 82.0721 39.5844 81.5663 39.5844C81.0606 39.5844 80.8295 39.2574 80.8295 38.756V38.5293H81.1696V38.7778C81.1696 39.0743 81.2916 39.2531 81.5576 39.2531C81.8236 39.2531 81.9413 39.0787 81.9413 38.7473V38.4901C81.9413 38.1674 81.8061 38.0148 81.5271 38.0018H81.3309V37.6748H81.5314C81.587 37.675 81.642 37.6636 81.6929 37.6413C81.7438 37.6189 81.7894 37.5861 81.8268 37.545C81.8642 37.5039 81.8926 37.4554 81.9101 37.4027C81.9275 37.3499 81.9337 37.2941 81.9282 37.2388V37.06C81.9282 36.7243 81.8105 36.5499 81.5445 36.5499C81.2786 36.5499 81.1565 36.733 81.1565 37.0295V37.1995H80.8164V37.06C80.8164 36.5586 81.0518 36.236 81.5532 36.236C82.0546 36.236 82.3075 36.5412 82.3075 37.06Z" fill="#263238"/>
<path d="M83.0138 37.2911V37.7271H82.665V37.2911H83.0138ZM83.0138 39.0787V39.5365H82.665V39.0787H83.0138Z" fill="#263238"/>
<path d="M83.7597 37.5876C83.8072 37.501 83.8783 37.4297 83.9648 37.3818C84.0512 37.334 84.1494 37.3116 84.248 37.3172C84.684 37.3172 84.854 37.6268 84.854 38.0933V38.7386C84.854 39.24 84.6186 39.567 84.1128 39.567C83.6071 39.567 83.376 39.24 83.376 38.7386V38.5162H83.7117V38.7604C83.7117 39.0569 83.8338 39.2356 84.0954 39.2356C84.357 39.2356 84.4834 39.0569 84.4834 38.7604V38.1238C84.4834 37.8274 84.3613 37.6486 84.0954 37.6486C84.0477 37.6468 84.0002 37.6547 83.9556 37.6716C83.9109 37.6885 83.8702 37.7141 83.8356 37.7471C83.8011 37.78 83.7735 37.8195 83.7545 37.8632C83.7354 37.9069 83.7253 37.9541 83.7248 38.0018V38.0759H83.3847L83.4719 36.249H84.7799V36.576H83.812L83.7597 37.5876Z" fill="#263238"/>
<path d="M86.6804 37.06V37.121H86.3273V37.0164C86.3273 36.7199 86.2052 36.5455 85.9392 36.5455C85.6733 36.5455 85.5381 36.7243 85.5381 37.0774V37.8143C85.576 37.7054 85.6485 37.6119 85.7446 37.5481C85.8406 37.4843 85.955 37.4538 86.07 37.4611C86.506 37.4611 86.6804 37.7663 86.6804 38.2416V38.7386C86.6804 39.24 86.4276 39.567 85.9262 39.567C85.4248 39.567 85.1719 39.24 85.1719 38.7386V37.06C85.1719 36.5412 85.4073 36.2185 85.9262 36.2185C86.445 36.2185 86.6804 36.5368 86.6804 37.06ZM85.5512 38.2895V38.7604C85.5512 39.0569 85.6733 39.2356 85.9392 39.2356C86.2052 39.2356 86.3316 39.0569 86.3316 38.7604V38.2677C86.3316 37.9712 86.2052 37.7925 85.9392 37.7925C85.6733 37.7925 85.5512 37.9712 85.5512 38.2677V38.2895Z" fill="#263238"/>
<path d="M122.555 37.1821H121.626V39.5016H122.555V37.1821Z" fill="#263238"/>
<path d="M123.793 36.7199H122.864V39.506H123.793V36.7199Z" fill="#263238"/>
<path d="M125.027 36.3886H124.099V39.5016H125.027V36.3886Z" fill="#263238"/>
<path d="M126.266 35.813H125.337V39.5016H126.266V35.813Z" fill="#263238"/>
<path d="M137.745 39.4362H132.178V36.0354H137.745V39.4362ZM132.487 39.131H137.436V36.345H132.487V39.131Z" fill="#263238"/>
<path d="M135.892 36.6807H132.953V38.7909H135.892V36.6807Z" fill="#263238"/>
<path d="M138.256 37.3347H137.554V38.1369H138.256V37.3347Z" fill="#263238"/>
<path d="M130.137 38.6994C130.1 38.6995 130.063 38.6889 130.032 38.6688C128.899 37.9974 128.149 38.6209 128.118 38.6688C128.099 38.6882 128.076 38.7036 128.051 38.7141C128.026 38.7246 127.999 38.73 127.972 38.73C127.945 38.73 127.918 38.7246 127.893 38.7141C127.868 38.7036 127.845 38.6882 127.826 38.6688C127.788 38.6298 127.767 38.5773 127.767 38.5228C127.767 38.4682 127.788 38.4158 127.826 38.3767C127.87 38.3418 128.824 37.5047 130.228 38.3767C130.252 38.3906 130.272 38.409 130.288 38.4308C130.304 38.4526 130.316 38.4775 130.323 38.5038C130.329 38.5302 130.33 38.5576 130.326 38.5844C130.322 38.6113 130.312 38.637 130.298 38.6601C130.275 38.6771 130.249 38.6893 130.221 38.696C130.194 38.7028 130.165 38.7039 130.137 38.6994Z" fill="#263238"/>
<path d="M130.556 37.9974C130.519 37.9971 130.483 37.9881 130.451 37.9712C128.812 36.9946 127.713 37.9407 127.7 37.9712C127.658 38.0024 127.605 38.0166 127.553 38.0109C127.501 38.0053 127.453 37.9802 127.418 37.9407C127.383 37.9012 127.365 37.8501 127.366 37.7976C127.368 37.7451 127.389 37.695 127.425 37.6573C127.425 37.6573 128.768 36.5063 130.665 37.6573C130.688 37.6712 130.708 37.6896 130.724 37.7114C130.741 37.7332 130.752 37.7581 130.759 37.7844C130.765 37.8108 130.766 37.8382 130.762 37.865C130.758 37.8919 130.749 37.9176 130.734 37.9407C130.711 37.9637 130.683 37.9808 130.652 37.9907C130.621 38.0006 130.588 38.0029 130.556 37.9974Z" fill="#263238"/>
<path d="M130.939 37.1908C130.9 37.1915 130.862 37.1809 130.83 37.1603C128.755 35.9264 127.377 37.0905 127.32 37.1603C127.3 37.1783 127.276 37.1921 127.25 37.2007C127.224 37.2094 127.197 37.2128 127.169 37.2108C127.142 37.2088 127.116 37.2013 127.091 37.1889C127.067 37.1765 127.046 37.1593 127.028 37.1385C127.009 37.1194 126.993 37.0967 126.983 37.0716C126.972 37.0465 126.967 37.0196 126.967 36.9924C126.967 36.9652 126.972 36.9383 126.983 36.9132C126.993 36.8882 127.009 36.8654 127.028 36.8464C127.028 36.8464 128.685 35.4337 131.026 36.8464C131.073 36.8753 131.108 36.9215 131.121 36.9752C131.135 37.0289 131.128 37.0859 131.1 37.1341C131.079 37.1544 131.053 37.1699 131.026 37.1797C130.998 37.1894 130.968 37.1932 130.939 37.1908Z" fill="#263238"/>
<path d="M129.513 39.0481C129.513 39.1516 129.483 39.2528 129.425 39.3388C129.368 39.4249 129.286 39.4919 129.19 39.5315C129.095 39.5711 128.989 39.5815 128.888 39.5613C128.786 39.5411 128.693 39.4913 128.62 39.4181C128.547 39.3449 128.497 39.2517 128.477 39.1502C128.457 39.0487 128.467 38.9435 128.507 38.8479C128.546 38.7523 128.613 38.6706 128.699 38.6131C128.785 38.5556 128.887 38.525 128.99 38.525C129.059 38.5244 129.127 38.5375 129.191 38.5636C129.255 38.5897 129.313 38.6282 129.361 38.6769C129.41 38.7256 129.448 38.7835 129.475 38.8472C129.501 38.911 129.514 38.9793 129.513 39.0481Z" fill="#263238"/>
<path d="M40.3213 56.9024H45.405" stroke="#263238" stroke-linecap="round" stroke-linejoin="round"/>
<path d="M79.7314 56.9024H84.8152" stroke="#263238" stroke-linecap="round" stroke-linejoin="round"/>
<path d="M45.4053 43.5564L48.2654 45.78" stroke="#263238" stroke-linecap="round" stroke-linejoin="round"/>
<path d="M79.0945 43.5564L76.2344 45.78" stroke="#263238" stroke-linecap="round" stroke-linejoin="round"/>
<path d="M56.8457 38.1544L57.164 42.9198" stroke="#263238" stroke-linecap="round" stroke-linejoin="round"/>
<path d="M67.9725 38.7866L67.3359 42.9198" stroke="#263238" stroke-linecap="round" stroke-linejoin="round"/>
<path d="M75.184 50.951H47.7422V74.6301H75.184V50.951Z" fill="white" stroke="#263238" stroke-linecap="round" stroke-linejoin="round"/>
<path d="M57.9312 50.951H52.7559V74.6301H57.9312V50.951Z" fill="#2752E7" stroke="#263238" stroke-linecap="round" stroke-linejoin="round"/>
<path d="M75.1835 50.951H63.1543V74.6301H75.1835V50.951Z" fill="white" stroke="#263238" stroke-linecap="round" stroke-linejoin="round"/>
<path d="M59.5274 49.0195L55.5031 47.2755C55.4045 47.2671 55.3053 47.2671 55.2067 47.2755L55.1413 47.2406H51.0908L54.2475 48.723C54.2635 48.9448 54.297 49.1649 54.3477 49.3814C54.4534 49.7122 54.64 50.0114 54.8904 50.252C55.1409 50.4925 55.4474 50.6668 55.7822 50.7591L55.8083 50.8856H56.2443L63.2509 50.9815C63.2509 50.9815 61.4371 49.983 59.5274 49.0195Z" fill="#2752E7" stroke="#263238" stroke-linecap="round" stroke-linejoin="round"/>
<path d="M59.2041 50.951C59.2041 50.951 54.8441 48.6009 52.481 47.5676C50.1178 46.5343 50.035 48.13 50.301 49.3508C50.5669 50.5716 52.1801 50.855 52.1801 50.855L59.2041 50.951Z" fill="#2752E7" stroke="#263238" stroke-linecap="round" stroke-linejoin="round"/>
<path d="M60.2422 49.2375H58.7031C58.4836 49.2369 58.2662 49.2797 58.0634 49.3634C57.8605 49.4471 57.6762 49.5701 57.521 49.7253C57.3658 49.8805 57.2429 50.0648 57.1592 50.2676C57.0754 50.4705 57.0326 50.6879 57.0332 50.9074H61.912C61.912 50.4645 61.7361 50.0397 61.423 49.7266C61.1098 49.4134 60.685 49.2375 60.2422 49.2375Z" fill="#2752E7" stroke="#263238" stroke-linecap="round" stroke-linejoin="round"/>
<path d="M69.8607 47.258H66.3029L65.8408 49.002C63.9311 49.9656 62.1348 50.9335 62.1348 50.9335L69.1413 50.8376H69.5773L69.5991 50.7112C69.9347 50.6195 70.2421 50.4455 70.4933 50.2049C70.7446 49.9643 70.9318 49.6647 71.0379 49.3334C71.2515 48.3393 71.2254 47.088 69.8607 47.258Z" fill="#2752E7" stroke="#263238" stroke-linecap="round" stroke-linejoin="round"/>
<path d="M57.9316 50.951C57.9316 50.951 62.2916 48.6009 64.6591 47.5676C67.0266 46.5343 67.1007 48.13 66.8173 49.3508C66.5339 50.5716 64.9382 50.855 64.9382 50.855L57.9316 50.951Z" fill="#2752E7" stroke="#263238" stroke-linecap="round" stroke-linejoin="round"/>
<path d="M48.6361 76.3C48.6361 76.3 46.3427 74.774 46.8441 74.29C47.3455 73.8061 49.8089 74.8699 50.3714 75.598C50.9338 76.3262 50.6504 76.8145 50.1839 76.8581C49.7174 76.9017 48.6361 76.3 48.6361 76.3Z" fill="white" stroke="#263238" stroke-linecap="round" stroke-linejoin="round"/>
<path d="M50.5756 74.5211C50.5756 74.5211 47.0222 72.6768 47.8768 74.3816C48.7314 76.0864 50.8591 77.6516 51.7136 78.0789C52.5682 78.5062 57.2595 78.3623 57.2595 78.3623C57.2595 78.3623 56.3875 76.797 55.5504 76.3698C54.7133 75.9425 50.5756 74.5211 50.5756 74.5211Z" fill="white" stroke="#263238" stroke-linecap="round" stroke-linejoin="round"/>
<path d="M53.9857 74.5211C53.9857 74.5211 49.2943 71.9662 49.1504 72.9602C49.0065 73.9543 52.8477 77.2243 54.1252 77.7911C55.1276 78.1619 56.1869 78.3552 57.2557 78.3623L53.9857 74.5211Z" fill="white" stroke="#263238" stroke-linecap="round" stroke-linejoin="round"/>
<path d="M72.463 78.916C72.463 78.916 70.7582 74.9353 69.4764 74.3685C68.1945 73.8017 56.6841 74.9353 56.6841 74.9353C56.6841 74.9353 51.1382 70.3878 51.5655 72.6594C51.9928 74.9309 55.5462 77.6385 56.5402 78.3274C57.5343 79.0163 64.9289 78.7634 64.9289 78.7634L67.2048 80.8954L72.463 78.916Z" fill="white" stroke="#263238" stroke-linecap="round" stroke-linejoin="round"/>
<path d="M142.45 85.3078C142.184 85.8235 142.113 86.418 142.25 86.982C142.473 87.539 142.815 88.0405 143.252 88.4513L143.588 90.5267L148.14 90.7272L146.265 83.7512L142.45 85.3078Z" fill="white" stroke="#263238" stroke-linecap="round" stroke-linejoin="round"/>
<path d="M139.358 72.376C139.358 72.376 141.255 84.7148 141.538 85.456C141.822 86.1972 144.006 87.0692 144.769 86.6899C145.532 86.3106 144.198 84.5099 144.198 84.5099L144.577 72.6463C144.577 72.6463 141.351 71.4168 139.358 72.376Z" fill="#263238" stroke="#263238" stroke-linecap="round" stroke-linejoin="round"/>
<path d="M144.674 76.2564C144.674 76.2564 142.014 76.0689 141.918 76.5442C141.822 77.0194 141.827 78.6282 142.302 78.8201C142.777 79.0119 146.004 79.2953 146.571 79.1035C146.76 79.0071 146.929 78.8735 147.066 78.7106C147.203 78.5477 147.305 78.3588 147.368 78.1553C147.43 77.9518 147.45 77.7378 147.428 77.5261C147.406 77.3145 147.341 77.1095 147.238 76.9235C146.666 76.0689 144.674 76.2564 144.674 76.2564Z" fill="white" stroke="#263238" stroke-linecap="round" stroke-linejoin="round"/>
<path d="M144.674 79.2953C144.674 79.2953 142.11 79.2953 142.206 79.8621C142.302 80.4289 142.014 81.6672 143.078 81.859C144.34 82.0158 145.618 81.9835 146.871 81.7631C147.084 81.7235 147.281 81.6229 147.438 81.4735C147.596 81.3241 147.706 81.1323 147.756 80.9213C147.807 80.7104 147.795 80.4894 147.722 80.2851C147.649 80.0809 147.519 79.9021 147.346 79.7706C146.57 79.1035 144.674 79.2953 144.674 79.2953Z" fill="white" stroke="#263238" stroke-linecap="round" stroke-linejoin="round"/>
<path d="M140.553 80.0234C140.553 80.0234 140.226 77.6342 139.455 77.6996C138.879 77.7475 137.506 78.1835 137.632 79.2343C137.849 80.4886 138.255 81.7028 138.836 82.8356C138.936 83.028 139.09 83.1871 139.279 83.2936C139.468 83.4001 139.684 83.4494 139.901 83.4356C140.117 83.4217 140.325 83.3453 140.499 83.2156C140.673 83.0859 140.805 82.9084 140.88 82.7048C141.295 81.7849 140.553 80.0234 140.553 80.0234Z" fill="white" stroke="#263238" stroke-linecap="round" stroke-linejoin="round"/>
<path d="M144.818 81.8546C144.818 81.8546 142.498 81.8546 142.585 82.404C142.673 82.9534 142.411 84.148 143.357 84.3224C144.5 84.4719 145.659 84.441 146.793 84.2308C146.991 84.1826 147.173 84.0799 147.316 83.9343C147.46 83.7887 147.56 83.606 147.605 83.4067C147.65 83.2073 147.639 82.9993 147.573 82.806C147.506 82.6127 147.387 82.4418 147.229 82.3124C146.536 81.6759 144.818 81.8546 144.818 81.8546Z" fill="white" stroke="#263238" stroke-linecap="round" stroke-linejoin="round"/>
<path d="M144.927 83.9387C144.927 83.9387 142.987 83.9387 143.061 84.3747C143.135 84.8107 142.917 85.8266 143.706 85.9792C144.662 86.108 145.632 86.083 146.579 85.9051C146.745 85.8634 146.895 85.7767 147.014 85.6545C147.133 85.5323 147.215 85.3795 147.253 85.213C147.29 85.0466 147.28 84.8732 147.224 84.7121C147.168 84.5509 147.069 84.4085 146.937 84.3006C146.366 83.7861 144.927 83.9387 144.927 83.9387Z" fill="white" stroke="#263238" stroke-linecap="round" stroke-linejoin="round"/>
<path d="M138.831 59.8802C137.601 59.8847 136.398 60.2384 135.361 60.9002C134.324 61.562 133.497 62.5047 132.975 63.6184C132.454 64.7322 132.259 65.9712 132.414 67.1913C132.569 68.4113 133.068 69.5622 133.852 70.5099C135.042 71.9444 136.991 72.9733 138.848 72.8556C144.542 72.5068 159.471 80.503 159.471 80.503V52.2328C159.471 52.2328 144.752 59.998 138.831 59.8802Z" fill="white" stroke="#263238" stroke-linecap="round" stroke-linejoin="round"/>
<path d="M137.671 66.599C137.671 65.1395 138.065 63.7069 138.811 62.4524C139.556 61.1978 140.627 60.1676 141.909 59.4704C140.903 59.7288 139.87 59.8663 138.831 59.8802C137.601 59.8847 136.398 60.2384 135.361 60.9002C134.324 61.562 133.497 62.5047 132.975 63.6184C132.454 64.7322 132.259 65.9712 132.414 67.1912C132.569 68.4113 133.068 69.5622 133.852 70.5099C135.042 71.9444 136.991 72.9733 138.848 72.8556C139.508 72.8298 140.169 72.8751 140.819 72.9908C139.841 72.2362 139.049 71.2679 138.504 70.16C137.958 69.0521 137.673 67.834 137.671 66.599Z" fill="#2752E7" stroke="#263238" stroke-linecap="round" stroke-linejoin="round"/>
<path d="M173.181 69.7042C175.028 62.119 170.375 54.4734 162.79 52.6271C155.205 50.7809 147.559 55.4332 145.713 63.0183C143.867 70.6035 148.519 78.2491 156.104 80.0954C163.689 81.9416 171.335 77.2893 173.181 69.7042Z" fill="white" stroke="#263238" stroke-linecap="round" stroke-linejoin="round"/>
<path d="M171.501 66.3679C171.501 68.7516 170.795 71.0819 169.472 73.0643C168.148 75.0467 166.266 76.5919 164.064 77.5047C161.862 78.4175 159.439 78.6568 157.101 78.1923C154.763 77.7278 152.615 76.5804 150.93 74.8952C149.244 73.21 148.096 71.0627 147.63 68.7249C147.165 66.3871 147.403 63.9638 148.315 61.7615C149.227 59.5592 150.772 57.6769 152.754 56.3525C154.736 55.0281 157.066 54.3212 159.449 54.3212C162.645 54.3224 165.708 55.5918 167.968 57.8506C170.228 60.1094 171.498 63.1729 171.501 66.3679Z" fill="#A6A6A6" stroke="#263238" stroke-linecap="round" stroke-linejoin="round"/>
<path d="M159.449 63.4249V69.324L150.18 74.072C148.768 72.3667 147.852 70.3058 147.533 68.115C147.214 65.9241 147.504 63.6876 148.371 61.6504L159.449 63.4249Z" fill="white" stroke="#263238" stroke-linecap="round" stroke-linejoin="round"/>
<path d="M162.393 66.3679C162.393 66.9502 162.22 67.5193 161.897 68.0034C161.573 68.4875 161.113 68.8647 160.575 69.0873C160.037 69.3099 159.445 69.3679 158.874 69.254C158.303 69.1401 157.779 68.8594 157.367 68.4474C156.956 68.0354 156.676 67.5106 156.563 66.9394C156.45 66.3682 156.509 65.7763 156.732 65.2386C156.956 64.701 157.333 64.2416 157.818 63.9188C158.303 63.5959 158.872 63.4241 159.454 63.4249C160.234 63.4261 160.981 63.7366 161.532 64.2884C162.083 64.8402 162.393 65.5881 162.393 66.3679Z" fill="white" stroke="#263238" stroke-linecap="round" stroke-linejoin="round"/>
<path d="M142.633 90.7142L142.162 88.7391L148.275 87.9848L148.14 90.7272L142.633 90.7142Z" fill="white" stroke="#263238" stroke-linecap="round" stroke-linejoin="round"/>
<path d="M66.8389 81.6846L65.4307 79.4261L71.9183 76.1343L72.4633 78.9029L66.8389 81.6846Z" fill="white" stroke="#263238" stroke-linecap="round" stroke-linejoin="round"/>
<path d="M106.275 78.4189C106.275 78.4189 95.8458 77.2592 94.9389 77.7213C94.0321 78.1835 80.8038 93.8272 80.8038 93.8272L72.6768 77.608L65.8359 80.6164C65.8359 80.6164 74.4077 109.828 75.7985 110.16C77.1894 110.491 90.3958 101.706 90.3958 101.706L89.5849 113.29C89.5849 113.29 92.0177 123.022 102.796 124.875C113.574 126.728 119.939 118.387 121.33 115.605C122.366 113.388 123.255 111.106 123.994 108.773L128.977 94.0583C128.977 94.0583 143.008 105.512 146.13 106.916C149.251 108.32 152.151 109.584 152.5 108.887C152.848 108.189 149.374 89.6547 149.374 89.6547L141.962 90.0035L142.31 92.8985C142.31 92.8985 132.692 80.2545 131.881 78.9945C131.07 77.7344 128.637 77.9524 125.742 77.1415C122.847 76.3305 106.275 78.4189 106.275 78.4189Z" fill="#2752E7" stroke="#263238" stroke-linecap="round" stroke-linejoin="round"/>
<path d="M90.4004 101.706L98.1655 95.9113" stroke="#263238" stroke-linecap="round" stroke-linejoin="round"/>
<path d="M95.3838 98.1131L99.3209 97.4155" stroke="#263238" stroke-linecap="round" stroke-linejoin="round"/>
<path d="M128.981 94.0583L131.645 84.6712" stroke="#263238" stroke-linecap="round" stroke-linejoin="round"/>
<path d="M130.023 91.0455L132.918 86.9907" stroke="#263238" stroke-linecap="round" stroke-linejoin="round"/>
<path d="M142.65 99.6434L142.768 101.937" stroke="#263238" stroke-linecap="round" stroke-linejoin="round"/>
<path d="M142.306 92.8985L142.515 97.0274" stroke="#263238" stroke-linecap="round" stroke-linejoin="round"/>
<path d="M80.7861 93.8272L83.219 98.924" stroke="#263238" stroke-linecap="round" stroke-linejoin="round"/>
<path d="M110.212 77.1415L105.115 78.0702C105.115 78.0702 103.262 79.5744 102.22 83.0493C101.587 85.172 101.122 87.3413 100.829 89.537L105.233 89.7724L101.745 93.2604C101.745 93.2604 102.791 94.7646 104.989 98.0084C106.725 100.454 108.618 102.784 110.657 104.984L104.204 113.29C104.204 113.29 112.082 111.546 116.948 106.223C121.814 100.899 124.696 92.8985 124.696 92.8985L120.872 89.8858L124.927 89.0748C124.927 89.0748 125.738 82.4738 121.439 78.1748C117.14 73.8758 110.212 77.1415 110.212 77.1415Z" fill="#2752E7" stroke="#263238" stroke-linecap="round" stroke-linejoin="round"/>
<path d="M121.683 79.9232C121.683 79.9232 120.332 82.6002 120.062 87.5706C119.852 91.451 117.816 96.3952 116.02 99.892C114.594 102.674 113.317 104.54 113.225 104.252C113.225 104.252 112.475 103.049 111.276 99.5432C110.984 98.706 110.67 97.7294 110.33 96.6002C108.586 90.8057 107.086 81.423 107.779 79.57C108.105 78.6566 108.492 77.7665 108.939 76.906C114.503 84.4401 121.683 79.9232 121.683 79.9232Z" fill="white" stroke="#263238" stroke-linecap="round" stroke-linejoin="round"/>
<path d="M114.616 95.7979L116.02 99.892C114.594 102.674 113.317 104.54 113.225 104.252C113.225 104.252 112.475 103.049 111.276 99.5432L113.225 96.0246L111.289 92.4015L113.574 90.1125L116.7 93.243L114.616 95.7979Z" fill="#263238" stroke="#263238" stroke-linecap="round" stroke-linejoin="round"/>
<path d="M109.75 94.0583L113.574 90.1168L118.23 94.5117" stroke="#263238" stroke-linecap="round" stroke-linejoin="round"/>
<path d="M108.939 76.9104C109.07 79.2445 109.538 81.5474 110.33 83.7469C111.208 85.968 112.294 88.1009 113.574 90.1168L119.028 82.356C119.028 82.356 113.112 82.9359 108.939 76.9104Z" stroke="#263238" stroke-linecap="round" stroke-linejoin="round"/>
<path d="M125.512 64.6326C125.512 64.6326 127.169 64.3754 127.169 66.6382C127.169 68.9011 126.209 71.6871 126.209 71.6871L125.512 64.6326Z" fill="white" stroke="#263238" stroke-linecap="round" stroke-linejoin="round"/>
<path d="M124.927 56.2876C124.927 56.2876 126.087 66.8301 126.2 69.9606C126.314 73.091 125.969 75.8684 124.927 77.2592C123.885 78.65 119.695 84.209 117.515 84.4401C115.335 84.6712 112.881 83.5158 111.956 82.6961C111.032 81.8764 106.624 74.931 106.624 74.931C106.624 74.931 103.267 74.6999 102.456 70.2963C101.645 65.8927 106.162 66.9391 106.162 66.9391C106.162 66.9391 103.729 63.1153 103.498 59.4093C103.267 55.7033 102.569 54.3082 112.536 54.0771C122.503 53.846 124.927 56.2876 124.927 56.2876Z" fill="white" stroke="#263238" stroke-linecap="round" stroke-linejoin="round"/>
<path d="M119.712 63.7039L122.494 73.3178L118.208 72.0446" stroke="#263238" stroke-linecap="round" stroke-linejoin="round"/>
<path d="M113.922 70.8849L110.561 71.5825" stroke="#263238" stroke-linecap="round" stroke-linejoin="round"/>
<path d="M112.301 71.4648C112.623 72.4486 113.219 73.3202 114.019 73.9774C114.819 74.6345 115.79 75.05 116.818 75.1751C120.524 75.7506 122.377 75.0574 122.377 75.0574" stroke="#263238" stroke-linecap="round" stroke-linejoin="round"/>
<path d="M113.225 73.3177C113.225 73.3177 113.111 79.1122 115.195 79.3433C117.28 79.5743 116.817 75.1751 116.817 75.1751C115.501 74.8184 114.277 74.1852 113.225 73.3177Z" fill="#263238" stroke="#263238" stroke-linecap="round" stroke-linejoin="round"/>
<path d="M113.652 77.3246C113.936 78.3797 114.411 79.2561 115.196 79.3433C115.393 79.3711 115.595 79.3454 115.779 79.2687C115.963 79.1919 116.123 79.0671 116.242 78.9073C115.837 78.1966 114.437 77.608 113.652 77.3246Z" fill="white" stroke="#263238" stroke-linecap="round" stroke-linejoin="round"/>
<path d="M114.668 66.3679C114.668 67.0088 114.384 67.5277 114.031 67.5277C113.678 67.5277 113.395 67.0088 113.395 66.3679C113.395 65.727 113.678 65.2082 114.031 65.2082C114.384 65.2082 114.668 65.727 114.668 66.3679Z" fill="#263238"/>
<path d="M122.438 65.3259C122.438 65.9668 122.15 66.4856 121.797 66.4856C121.444 66.4856 121.16 65.9668 121.16 65.3259C121.16 64.685 121.448 64.1661 121.797 64.1661C122.146 64.1661 122.438 64.685 122.438 65.3259Z" fill="#263238"/>
<path d="M111.952 64.3972C112.493 63.782 113.18 63.3115 113.948 63.0283C114.717 62.7451 115.545 62.6581 116.356 62.7753" stroke="#263238" stroke-linecap="round" stroke-linejoin="round"/>
<path d="M120.062 62.3131C120.062 62.3131 121.566 59.5314 123.986 60.9223" stroke="#263238" stroke-linecap="round" stroke-linejoin="round"/>
<path d="M112.645 56.5187C112.645 56.5187 109.057 55.9388 109.868 56.9852C110.679 58.0316 112.532 59.3003 111.612 60.1113C110.692 60.9223 108.368 62.2913 108.486 63.0063C108.604 63.7214 108.83 66.599 108.486 67.2966C108.141 67.9942 107.326 68.1075 106.515 67.9898C105.704 67.8721 104.544 65.788 104.082 65.2081C103.62 64.6283 99.4476 60.4601 100.259 57.0986C101.069 53.737 109.759 51.073 109.759 51.073C109.759 51.073 115.309 44.8208 119.028 44.7031C122.747 44.5853 121.344 48.0646 121.208 48.4091C121.073 48.7535 126.536 48.0646 127.578 51.4218C128.62 54.779 128.276 55.7077 123.523 56.9852C118.771 58.2627 112.645 56.5187 112.645 56.5187Z" fill="#263238" stroke="#263238" stroke-linecap="round" stroke-linejoin="round"/>
<path d="M185.727 51.8927L176.283 54.3343L178.237 55.311L172.865 56.9416L183.77 55.4766L181.005 54.173L185.727 51.8927Z" fill="#263238"/>
<path d="M187.663 74.883L178.111 72.9079L179.436 74.6432L173.895 73.7363L184.328 77.233L182.418 74.8438L187.663 74.883Z" fill="#263238"/>
<path d="M177.391 90.627L169.347 85.1072L169.896 87.2218L165.14 84.2396L173.406 91.5077L172.573 88.5647L177.391 90.627Z" fill="#263238"/>
<path d="M90.3574 147.281V133.935H93.5533C94.3271 133.915 95.0989 134.023 95.8379 134.253C96.425 134.441 96.9268 134.83 97.2549 135.352C97.6117 135.994 97.7809 136.724 97.7433 137.458C97.7473 137.946 97.6976 138.433 97.595 138.91C97.5075 139.308 97.3349 139.683 97.0893 140.008C96.8309 140.325 96.492 140.566 96.1083 140.706L97.97 147.281H95.5327L93.9195 141.177H92.799V147.281H90.3574ZM92.799 139.633H93.5533C93.9404 139.652 94.3266 139.582 94.6825 139.428C94.9617 139.296 95.1778 139.06 95.2842 138.77C95.4181 138.399 95.4802 138.005 95.4673 137.61C95.506 137.081 95.3763 136.553 95.0967 136.102C94.8482 135.766 94.3773 135.596 93.6885 135.596H92.8165L92.799 139.633Z" fill="#2752E7"/>
<path d="M99.5693 147.281V133.935H105.172V135.648H102.024V139.485H104.509V141.186H102.024V145.624H105.22V147.303L99.5693 147.281Z" fill="#2752E7"/>
<path d="M106.624 147.281V133.935H112.113V135.596H109.061V139.52H111.551V141.22H109.061V147.281H106.624Z" fill="#2752E7"/>
<path d="M113.382 147.281V133.935H118.984V135.648H115.819V139.485H118.309V141.186H115.819V145.624H119.028V147.303L113.382 147.281Z" fill="#2752E7"/>
<path d="M120.437 147.281V133.935H123.632C124.405 133.915 125.175 134.023 125.913 134.253C126.501 134.44 127.005 134.829 127.334 135.352C127.689 135.995 127.857 136.724 127.818 137.458C127.824 137.946 127.775 138.433 127.67 138.91C127.584 139.308 127.413 139.682 127.168 140.008C126.91 140.325 126.571 140.566 126.187 140.706L128.049 147.281H125.607L123.994 141.177H122.874V147.281H120.437ZM122.874 139.633H123.632C124.019 139.651 124.406 139.581 124.762 139.428C125.039 139.294 125.254 139.058 125.363 138.77C125.493 138.398 125.554 138.005 125.542 137.61C125.581 137.081 125.451 136.553 125.171 136.102C124.927 135.766 124.456 135.596 123.763 135.596H122.891L122.874 139.633Z" fill="#2752E7"/>
<path d="M80.1982 164.442L82.8666 151.096H85.4826L88.1552 164.442H85.8924L85.3648 161.364H83.041L82.496 164.442H80.1982ZM83.2764 159.811H85.0858L84.1789 154.209L83.2764 159.811Z" fill="#2752E7"/>
<path d="M93.4131 164.442V151.096H98.9023V152.774H95.8503V156.664H98.3355V158.364H95.8503V164.442H93.4131Z" fill="#2752E7"/>
<path d="M100.172 164.442V151.096H103.368C104.142 151.077 104.913 151.184 105.652 151.414C106.239 151.602 106.741 151.991 107.069 152.513C107.425 153.156 107.592 153.885 107.553 154.619C107.559 155.106 107.51 155.593 107.409 156.071C107.322 156.469 107.149 156.844 106.904 157.169C106.645 157.486 106.306 157.727 105.923 157.867L107.784 164.442H105.347L103.734 158.338H102.613V164.442H100.172ZM102.613 156.799H103.368C103.755 156.816 104.141 156.744 104.497 156.589C104.775 156.456 104.991 156.22 105.099 155.931C105.233 155.56 105.295 155.166 105.282 154.771C105.318 154.242 105.188 153.715 104.911 153.263C104.663 152.927 104.192 152.757 103.503 152.757H102.631L102.613 156.799Z" fill="#2752E7"/>
<path d="M109.437 164.442V151.096H111.843V164.442H109.437Z" fill="#2752E7"/>
<path d="M113.919 164.442V151.096H119.522V152.809H116.356V156.646H118.846V158.346H116.356V162.763H119.552V164.442H113.919Z" fill="#2752E7"/>
<path d="M120.969 164.442V151.096H122.669L125.913 158.704V151.096H127.927V164.442H126.31L123.048 156.467V164.442H120.969Z" fill="#2752E7"/>
<path d="M129.95 164.442V151.096H133.098C133.97 151.052 134.841 151.201 135.649 151.532C136.24 151.808 136.706 152.294 136.957 152.896C137.238 153.644 137.37 154.439 137.345 155.238V160.117C137.369 160.939 137.237 161.759 136.957 162.532C136.714 163.156 136.248 163.668 135.649 163.967C134.875 164.313 134.032 164.473 133.185 164.433L129.95 164.442ZM132.392 162.746H133.133C133.556 162.782 133.979 162.678 134.336 162.449C134.589 162.226 134.745 161.913 134.772 161.577C134.833 161.115 134.861 160.649 134.855 160.182V155.081C134.866 154.642 134.826 154.203 134.737 153.773C134.715 153.626 134.664 153.486 134.587 153.359C134.51 153.233 134.408 153.123 134.288 153.036C133.925 152.856 133.52 152.776 133.116 152.805H132.409L132.392 162.746Z" fill="#2752E7"/>
</svg>
