<svg width="48" height="48" viewBox="0 0 48 48" fill="none" xmlns="http://www.w3.org/2000/svg">
<circle cx="24" cy="24" r="24" fill="#E5EAFC"/>
<mask id="mask0_408_2265" style="mask-type:alpha" maskUnits="userSpaceOnUse" x="10" y="10" width="28" height="28">
<rect x="10" y="10" width="28" height="28" fill="#D9D9D9"/>
</mask>
<g mask="url(#mask0_408_2265)">
<path d="M24.0003 26.6408L26.0712 27.904C26.2627 28.0252 26.456 28.0184 26.651 27.8836C26.8462 27.7491 26.9184 27.5666 26.8677 27.3362L26.3179 24.967L28.1668 23.3695C28.3463 23.2095 28.3989 23.0211 28.3249 22.8042C28.2508 22.5874 28.0926 22.4693 27.8503 22.4499L25.4339 22.2457L24.4804 20.0223C24.3908 19.8114 24.2307 19.7059 24.0003 19.7059C23.7699 19.7059 23.6099 19.8114 23.5202 20.0223L22.5668 22.2457L20.1503 22.4499C19.908 22.4693 19.7499 22.5874 19.6758 22.8042C19.6017 23.0211 19.6544 23.2095 19.8339 23.3695L21.6827 24.967L21.1329 27.3362C21.0822 27.5666 21.1544 27.7491 21.3497 27.8836C21.5447 28.0184 21.738 28.0252 21.9295 27.904L24.0003 26.6408ZM20.3387 32.7501H17.3594C16.7776 32.7501 16.2806 32.5441 15.8684 32.132C15.4563 31.7198 15.2503 31.2228 15.2503 30.641V27.6617L13.083 25.4762C12.884 25.2654 12.7337 25.0322 12.632 24.7765C12.5303 24.5206 12.4795 24.2618 12.4795 24.0001C12.4795 23.7384 12.5303 23.4796 12.632 23.2237C12.7337 22.968 12.884 22.7347 13.083 22.524L15.2503 20.3385V17.3591C15.2503 16.7773 15.4563 16.2803 15.8684 15.8681C16.2806 15.4561 16.7776 15.2501 17.3594 15.2501H20.3387L22.5242 13.0827C22.735 12.8838 22.9682 12.7335 23.2239 12.6318C23.4798 12.5301 23.7386 12.4792 24.0003 12.4792C24.262 12.4792 24.5209 12.5301 24.7767 12.6318C25.0324 12.7335 25.2657 12.8838 25.4764 13.0827L27.6619 15.2501H30.6413C31.2231 15.2501 31.7201 15.4561 32.1323 15.8681C32.5443 16.2803 32.7503 16.7773 32.7503 17.3591V20.3385L34.9177 22.524C35.1166 22.7347 35.2669 22.968 35.3686 23.2237C35.4703 23.4796 35.5212 23.7384 35.5212 24.0001C35.5212 24.2618 35.4703 24.5206 35.3686 24.7765C35.2669 25.0322 35.1166 25.2654 34.9177 25.4762L32.7503 27.6617V30.641C32.7503 31.2228 32.5443 31.7198 32.1323 32.132C31.7201 32.5441 31.2231 32.7501 30.6413 32.7501H27.6619L25.4764 34.9175C25.2657 35.1164 25.0324 35.2667 24.7767 35.3684C24.5209 35.4701 24.262 35.5209 24.0003 35.5209C23.7386 35.5209 23.4798 35.4701 23.2239 35.3684C22.9682 35.2667 22.735 35.1164 22.5242 34.9175L20.3387 32.7501ZM21.0837 31.0001L23.7422 33.6586C23.8095 33.7259 23.8955 33.7595 24.0003 33.7595C24.1051 33.7595 24.1912 33.7259 24.2584 33.6586L26.917 31.0001H30.6413C30.7461 31.0001 30.8321 30.9664 30.8994 30.8992C30.9667 30.8319 31.0003 30.7458 31.0003 30.641V26.9167L33.6589 24.2582C33.7261 24.1909 33.7598 24.1049 33.7598 24.0001C33.7598 23.8953 33.7261 23.8092 33.6589 23.742L31.0003 21.0834V17.3591C31.0003 17.2543 30.9667 17.1683 30.8994 17.101C30.8321 17.0337 30.7461 17.0001 30.6413 17.0001H26.917L24.2584 14.3415C24.1912 14.2743 24.1051 14.2406 24.0003 14.2406C23.8955 14.2406 23.8095 14.2743 23.7422 14.3415L21.0837 17.0001H17.3594C17.2546 17.0001 17.1685 17.0337 17.1012 17.101C17.034 17.1683 17.0003 17.2543 17.0003 17.3591V21.0834L14.3418 23.742C14.2745 23.8092 14.2409 23.8953 14.2409 24.0001C14.2409 24.1049 14.2745 24.1909 14.3418 24.2582L17.0003 26.9167V30.641C17.0003 30.7458 17.034 30.8319 17.1012 30.8992C17.1685 30.9664 17.2546 31.0001 17.3594 31.0001H21.0837Z" fill="#2752E7"/>
</g>
</svg>
