<svg width="28" height="28" viewBox="0 0 28 28" fill="none" xmlns="http://www.w3.org/2000/svg">
<path d="M22.3986 22.4004L18.3451 18.3469M18.3451 18.3469C19.0385 17.6535 19.5885 16.8304 19.9637 15.9245C20.339 15.0185 20.5321 14.0476 20.5321 13.067C20.5321 12.0865 20.339 11.1155 19.9637 10.2096C19.5885 9.30365 19.0385 8.48051 18.3451 7.78715C17.6518 7.09379 16.8286 6.54378 15.9227 6.16854C15.0168 5.79329 14.0458 5.60016 13.0652 5.60016C12.0847 5.60016 11.1137 5.79329 10.2078 6.16854C9.30188 6.54378 8.47874 7.09379 7.78538 7.78715C6.38507 9.18746 5.59839 11.0867 5.59839 13.067C5.59839 15.0474 6.38507 16.9466 7.78538 18.3469C9.18569 19.7472 11.0849 20.5339 13.0652 20.5339C15.0456 20.5339 16.9448 19.7472 18.3451 18.3469Z" stroke="white" stroke-opacity="0.68" stroke-width="1.5" stroke-linecap="round" stroke-linejoin="round"/>
</svg>
