<svg width="48" height="48" viewBox="0 0 48 48" fill="none" xmlns="http://www.w3.org/2000/svg">
<rect width="48" height="48" rx="24" fill="url(#paint0_linear_321_1338)"/>
<mask id="mask0_321_1338" style="mask-type:alpha" maskUnits="userSpaceOnUse" x="8" y="8" width="32" height="32">
<rect x="8" y="8" width="32" height="32" fill="#D9D9D9"/>
</mask>
<g mask="url(#mask0_321_1338)">
<path d="M23.5 9.875C25.0983 9.875 26.6037 10.1839 28.0146 10.8027C29.4234 11.4207 30.6565 12.2652 31.7119 13.335C32.7675 14.4045 33.6004 15.6538 34.21 17.0811C34.8204 18.5104 35.125 20.0353 35.125 21.6543V34.5215C35.125 35.2459 34.8762 35.8642 34.3789 36.3682C33.8816 36.8721 33.2709 37.1249 32.5547 37.125H24.5146C24.1948 37.125 23.9208 37.0139 23.7021 36.792C23.4836 36.5705 23.375 36.2942 23.375 35.9717C23.375 35.6492 23.4836 35.3728 23.7021 35.1514C23.9208 34.9295 24.1948 34.8184 24.5146 34.8184H32.5547C32.6459 34.8183 32.7126 34.79 32.7646 34.7373C32.817 34.6843 32.8457 34.6157 32.8457 34.5215V33.4336H30.6289C29.9205 33.4336 29.3126 33.1777 28.8115 32.6699C28.3103 32.162 28.0586 31.5465 28.0586 30.8301V26.084C28.0586 25.3676 28.3103 24.7519 28.8115 24.2441C29.3125 23.7363 29.9206 23.4805 30.6289 23.4805H32.8457V21.6543C32.8457 19.0362 31.9341 16.8053 30.1084 14.9551C28.2827 13.1049 26.082 12.1816 23.5 12.1816C20.918 12.1816 18.7173 13.1049 16.8916 14.9551C15.0659 16.8053 14.1543 19.0362 14.1543 21.6543V23.4805H16.3711C17.0794 23.4805 17.6875 23.7363 18.1885 24.2441C18.6897 24.7519 18.9414 25.3676 18.9414 26.084V30.8301C18.9414 31.5465 18.6897 32.162 18.1885 32.6699C17.6874 33.1777 17.0795 33.4336 16.3711 33.4336H14.4453C13.7291 33.4335 13.1184 33.1807 12.6211 32.6768C12.1238 32.1728 11.875 31.5545 11.875 30.8301V21.6543C11.875 20.0353 12.1796 18.5104 12.79 17.0811C13.3996 15.6538 14.2325 14.4045 15.2881 13.335C16.3435 12.2652 17.5766 11.4207 18.9854 10.8027C20.3963 10.1839 21.9017 9.875 23.5 9.875ZM14.1543 30.8301C14.1543 30.9243 14.183 30.9929 14.2354 31.0459C14.2874 31.0986 14.354 31.1269 14.4453 31.127H16.3711C16.4621 31.1269 16.5286 31.0987 16.5811 31.0459C16.6334 30.9929 16.6621 30.9243 16.6621 30.8301V26.084C16.6621 25.9901 16.6335 25.9215 16.5811 25.8682C16.5286 25.8154 16.4621 25.7871 16.3711 25.7871H14.1543V30.8301ZM30.5654 25.792C30.5057 25.8024 30.4584 25.8285 30.4189 25.8682C30.3665 25.9215 30.3379 25.9901 30.3379 26.084V30.8301C30.3379 30.9243 30.3666 30.9929 30.4189 31.0459C30.4714 31.0987 30.5379 31.1269 30.6289 31.127H32.8457V25.7871H30.6289L30.5654 25.792Z" fill="#E7EDFF" stroke="#E7EDFF" stroke-width="0.25"/>
</g>
<defs>
<linearGradient id="paint0_linear_321_1338" x1="24" y1="0" x2="24" y2="48" gradientUnits="userSpaceOnUse">
<stop offset="0.274038" stop-color="#2752E7"/>
<stop offset="1" stop-color="#2440A0"/>
</linearGradient>
</defs>
</svg>
