<svg width="25" height="25" viewBox="0 0 25 25" fill="none" xmlns="http://www.w3.org/2000/svg">
<path d="M11.3855 11.7343C11.4348 11.7339 11.4841 11.7336 11.5349 11.7333C11.6386 11.7328 11.7423 11.7326 11.846 11.7326C12.002 11.7324 12.1578 11.7307 12.3138 11.7289C13.2175 11.7241 13.9813 11.8579 14.7896 12.2656C14.8398 12.2907 14.8899 12.3158 14.9416 12.3416C15.3187 12.5458 15.6107 12.8103 15.9146 13.1094C15.9545 13.1485 15.9944 13.1877 16.0355 13.228C16.8636 14.0722 17.2101 15.0999 17.3678 16.25C17.379 16.3282 17.3904 16.4063 17.4017 16.4844C17.4256 16.6488 17.4489 16.8131 17.472 16.9776C17.503 17.1977 17.5354 17.4176 17.5683 17.6375C17.595 17.8154 17.6213 17.9935 17.6475 18.1715C17.6601 18.2568 17.6728 18.342 17.6855 18.4272C17.8737 19.6883 17.8737 19.6883 17.649 20C16.7753 20.9347 15.0558 21.1161 13.8521 21.2188C13.8054 21.2229 13.7587 21.227 13.7105 21.2312C13.1574 21.2742 12.6049 21.275 12.0504 21.2744C12.0003 21.2744 11.9502 21.2744 11.8986 21.2743C11.1863 21.2732 10.481 21.2669 9.774 21.1719C9.72696 21.1658 9.67992 21.1598 9.63146 21.1536C8.54949 21.0106 7.15487 20.8043 6.37264 19.9648C6.09697 19.5334 6.2945 18.8762 6.36458 18.3982C6.37571 18.3207 6.38682 18.2433 6.39791 18.1658C6.42116 18.0041 6.44468 17.8424 6.46838 17.6808C6.49843 17.4756 6.52778 17.2704 6.55692 17.0651C6.5797 16.9053 6.60288 16.7455 6.62618 16.5857C6.63715 16.5101 6.64798 16.4346 6.65869 16.359C6.83487 15.1195 7.20401 14.0761 8.0865 13.1563C8.11738 13.123 8.14826 13.0897 8.18007 13.0554C9.00292 12.1928 10.2075 11.7369 11.3855 11.7343Z" fill="#707070"/>
<path d="M14.4615 4.57813C15.1636 5.18317 15.7128 6.06815 15.7843 7.01067C15.8295 8.21816 15.5994 9.18252 14.7896 10.1094C14.0611 10.8757 13.0712 11.2714 12.024 11.2988C10.9767 11.2714 10.0419 10.8737 9.28895 10.1433C8.48222 9.28947 8.24116 8.31348 8.25972 7.1753C8.28885 6.34692 8.65348 5.56129 9.2115 4.95313C9.24262 4.91772 9.27374 4.88231 9.3058 4.84583C10.6425 3.40779 12.9688 3.37483 14.4615 4.57813Z" fill="#707070"/>
<path d="M20.9156 12.4613C21.0693 12.575 21.2117 12.6988 21.3521 12.8281C21.3816 12.8539 21.4111 12.8796 21.4415 12.9061C22.2311 13.6348 22.5066 14.664 22.6998 15.6816C22.7155 15.7636 22.7155 15.7636 22.7315 15.8472C22.8726 16.6195 22.8726 16.6195 22.6853 16.953C22.1446 17.7047 21.0911 18.0144 20.2213 18.166C20.0984 18.1856 19.9756 18.2025 19.8521 18.2188C19.7841 18.2279 19.7841 18.2279 19.7146 18.2373C19.34 18.279 18.9628 18.2699 18.5865 18.2656C18.561 18.1084 18.5357 17.9512 18.5103 17.794C18.5021 17.743 18.4938 17.6921 18.4853 17.6397C18.438 17.3452 18.3923 17.0506 18.3494 16.7554C18.3261 16.5955 18.3025 16.4356 18.2788 16.2757C18.2673 16.1973 18.256 16.1188 18.245 16.0404C18.1488 15.3593 18.0146 14.6803 17.7076 14.0586C17.6918 14.0259 17.6759 13.9932 17.6596 13.9595C17.4047 13.4488 17.0556 13.0121 16.6826 12.5833C16.5938 12.4798 16.5102 12.376 16.4303 12.2656C17.8456 11.488 19.5821 11.5334 20.9156 12.4613Z" fill="#707070"/>
<path d="M7.61775 12.2656C7.59204 12.2955 7.59204 12.2955 7.56581 12.326C7.48922 12.4151 7.41282 12.5044 7.3365 12.5937C7.31368 12.6204 7.29087 12.6471 7.26736 12.6746C6.21737 13.9146 5.90664 15.2431 5.68709 16.8242C5.66219 17.0012 5.63717 17.1781 5.61207 17.355C5.59659 17.4643 5.58125 17.5737 5.56605 17.683C5.55915 17.7322 5.55226 17.7814 5.54515 17.8321C5.53915 17.8752 5.53316 17.9183 5.52699 17.9627C5.51036 18.0658 5.48867 18.1649 5.4615 18.2656C4.09533 18.2991 2.55015 18.1021 1.50826 17.1309C1.34042 16.9501 1.24269 16.7932 1.24282 16.5405C1.35631 15.2308 1.6187 14.0202 2.50838 13.0156C2.5343 12.9858 2.56022 12.9559 2.58693 12.9252C3.84753 11.5676 6.05116 11.3557 7.61775 12.2656Z" fill="#707070"/>
<path d="M20.0905 6.16747C20.7294 6.62651 21.122 7.24088 21.276 8.00604C21.3971 8.75626 21.2291 9.5205 20.7927 10.1454C20.55 10.4617 20.2821 10.6937 19.9459 10.9062C19.9163 10.9254 19.8867 10.9446 19.8562 10.9643C19.2151 11.33 18.4314 11.3625 17.734 11.1797C17.1635 11.0155 16.6185 10.6608 16.2896 10.1562C16.2936 9.95382 16.3983 9.78895 16.4888 9.61132C16.8126 8.94936 16.9551 8.22956 16.9547 7.49609C16.9547 7.45029 16.9548 7.40449 16.9549 7.35731C16.953 7.08127 16.9374 6.82115 16.8681 6.55255C16.8479 6.42662 16.8598 6.34002 16.899 6.21874C17.6879 5.44043 19.2512 5.64485 20.0905 6.16747Z" fill="#707070"/>
<path d="M5.49959 5.72949C5.56728 5.73003 5.56728 5.73003 5.63633 5.73057C6.16448 5.74274 6.72916 5.87823 7.149 6.21875C7.20689 6.38212 7.19448 6.49623 7.15193 6.66113C6.94003 7.7484 7.16581 8.89066 7.68513 9.85742C7.7665 10.0332 7.77057 10.072 7.7115 10.25C7.25373 10.8614 6.56809 11.1631 5.8365 11.2813C5.09925 11.364 4.35571 11.129 3.76814 10.6865C3.13092 10.1533 2.81843 9.45353 2.72462 8.63959C2.69842 7.91211 2.9418 7.21962 3.41951 6.67285C3.48995 6.59879 3.56117 6.52546 3.63338 6.45313C3.65984 6.42612 3.68631 6.39911 3.71358 6.37128C4.19239 5.92166 4.85601 5.72235 5.49959 5.72949Z" fill="#707070"/>
</svg>
