<svg width="24" height="24" viewBox="0 0 24 24" fill="none" xmlns="http://www.w3.org/2000/svg">
<path d="M11.3614 11.2342C11.4107 11.2339 11.46 11.2336 11.5108 11.2332C11.6145 11.2328 11.7182 11.2326 11.8219 11.2326C11.9779 11.2324 12.1338 11.2307 12.2897 11.2289C13.1934 11.2241 13.9572 11.3579 14.7655 11.7656C14.8157 11.7906 14.8658 11.8157 14.9175 11.8416C15.2946 12.0458 15.5866 12.3103 15.8905 12.6093C15.9304 12.6485 15.9703 12.6876 16.0114 12.728C16.8395 13.5721 17.186 14.5998 17.3437 15.7499C17.3549 15.8281 17.3663 15.9062 17.3777 15.9844C17.4015 16.1487 17.4249 16.3131 17.4479 16.4775C17.4789 16.6977 17.5113 16.9176 17.5442 17.1374C17.5709 17.3154 17.5972 17.4934 17.6234 17.6715C17.636 17.7567 17.6487 17.8419 17.6614 17.9272C17.8496 19.1882 17.8496 19.1882 17.6249 19.4999C16.7512 20.4346 15.0317 20.616 13.828 20.7187C13.7813 20.7228 13.7346 20.7269 13.6864 20.7311C13.1333 20.7741 12.5808 20.7749 12.0263 20.7744C11.9762 20.7743 11.9261 20.7743 11.8745 20.7743C11.1622 20.7732 10.4569 20.7668 9.74992 20.6718C9.70288 20.6658 9.65584 20.6597 9.60737 20.6535C8.52541 20.5106 7.13079 20.3043 6.34855 19.4648C6.07289 19.0333 6.27042 18.3761 6.34049 17.8981C6.35162 17.8207 6.36274 17.7432 6.37383 17.6658C6.39708 17.5041 6.42059 17.3424 6.44429 17.1807C6.47434 16.9756 6.50369 16.7704 6.53283 16.5651C6.55561 16.4052 6.5788 16.2454 6.6021 16.0856C6.61306 16.0101 6.6239 15.9345 6.6346 15.8589C6.81078 14.6195 7.17992 13.576 8.06242 12.6562C8.09329 12.6229 8.12417 12.5896 8.15598 12.5553C8.97883 11.6927 10.1834 11.2369 11.3614 11.2342Z" fill="#2752E7"/>
<path d="M14.4374 4.07813C15.1395 4.68317 15.6887 5.56815 15.7602 6.51067C15.8054 7.71816 15.5753 8.68252 14.7655 9.60938C14.037 10.3757 13.0471 10.7714 11.9999 10.7988C10.9526 10.7714 10.0178 10.3737 9.26484 9.64325C8.4581 8.78947 8.21704 7.81348 8.2356 6.6753C8.26474 5.84692 8.62937 5.06129 9.18738 4.45313C9.2185 4.41772 9.24962 4.38231 9.28168 4.34583C10.6184 2.90779 12.9447 2.87483 14.4374 4.07813Z" fill="#2752E7"/>
<path d="M20.8916 11.9613C21.0453 12.075 21.1877 12.1988 21.3281 12.3281C21.3576 12.3539 21.3871 12.3796 21.4175 12.4061C22.2071 13.1348 22.4825 14.164 22.6758 15.1816C22.6915 15.2636 22.6915 15.2636 22.7075 15.3472C22.8486 16.1195 22.8486 16.1195 22.6613 16.453C22.1206 17.2047 21.0671 17.5144 20.1973 17.666C20.0744 17.6856 19.9516 17.7025 19.8281 17.7188C19.7601 17.7279 19.7601 17.7279 19.6906 17.7373C19.316 17.779 18.9388 17.7699 18.5625 17.7656C18.537 17.6084 18.5117 17.4512 18.4863 17.294C18.4781 17.243 18.4698 17.1921 18.4613 17.1397C18.414 16.8452 18.3683 16.5506 18.3254 16.2554C18.3021 16.0955 18.2785 15.9356 18.2548 15.7757C18.2433 15.6973 18.232 15.6188 18.221 15.5404C18.1248 14.8593 17.9906 14.1803 17.6836 13.5586C17.6678 13.5259 17.6519 13.4932 17.6356 13.4595C17.3807 12.9488 17.0316 12.5121 16.6586 12.0833C16.5698 11.9798 16.4862 11.876 16.4062 11.7656C17.8216 10.988 19.558 11.0334 20.8916 11.9613Z" fill="#2752E7"/>
<path d="M7.59368 11.7656C7.56797 11.7955 7.56797 11.7955 7.54174 11.8259C7.46515 11.9151 7.38875 12.0044 7.31243 12.0937C7.28961 12.1204 7.2668 12.1471 7.24329 12.1746C6.1933 13.4146 5.88257 14.7431 5.66302 16.3242C5.63812 16.5011 5.6131 16.678 5.588 16.855C5.57252 16.9643 5.55718 17.0736 5.54198 17.183C5.53508 17.2322 5.52818 17.2814 5.52108 17.332C5.51508 17.3752 5.50909 17.4183 5.50292 17.4627C5.48629 17.5658 5.4646 17.6648 5.43743 17.7656C4.07126 17.7991 2.52608 17.602 1.48418 16.6309C1.31635 16.45 1.21862 16.2932 1.21875 16.0404C1.33224 14.7308 1.59463 13.5202 2.48431 12.5156C2.51023 12.4857 2.53615 12.4559 2.56286 12.4251C3.82346 11.0676 6.02709 10.8556 7.59368 11.7656Z" fill="#2752E7"/>
<path d="M20.0665 5.66751C20.7054 6.12654 21.098 6.74091 21.252 7.50607C21.3731 8.25629 21.2051 9.02053 20.7687 9.64547C20.526 9.96173 20.2581 10.1937 19.9219 10.4063C19.8923 10.4254 19.8627 10.4446 19.8322 10.4643C19.1911 10.83 18.4073 10.8626 17.71 10.6798C17.1395 10.5155 16.5945 10.1609 16.2656 9.65627C16.2696 9.45385 16.3743 9.28898 16.4648 9.11135C16.7886 8.44939 16.9311 7.72959 16.9307 6.99612C16.9307 6.95032 16.9308 6.90452 16.9309 6.85734C16.929 6.5813 16.9134 6.32118 16.8441 6.05258C16.8239 5.92665 16.8358 5.84005 16.875 5.71877C17.6639 4.94046 19.2272 5.14488 20.0665 5.66751Z" fill="#2752E7"/>
<path d="M5.47561 5.22943C5.5433 5.22997 5.5433 5.22997 5.61235 5.23051C6.1405 5.24268 6.70518 5.37817 7.12502 5.71869C7.18291 5.88206 7.1705 5.99617 7.12795 6.16107C6.91605 7.24834 7.14183 8.39059 7.66116 9.35736C7.74252 9.53311 7.74659 9.57193 7.68752 9.74994C7.22975 10.3613 6.54411 10.6631 5.81252 10.7812C5.07527 10.864 4.33174 10.6289 3.74416 10.1865C3.10694 9.65328 2.79445 8.95347 2.70065 8.13953C2.67444 7.41205 2.91782 6.71956 3.39553 6.17279C3.46597 6.09873 3.53719 6.0254 3.6094 5.95307C3.63586 5.92606 3.66233 5.89905 3.6896 5.87122C4.16842 5.4216 4.83203 5.22229 5.47561 5.22943Z" fill="#2752E7"/>
</svg>
