<svg width="36" height="36" viewBox="0 0 36 36" fill="none" xmlns="http://www.w3.org/2000/svg">
<rect width="36" height="36" rx="18" fill="url(#paint0_linear_408_2897)"/>
<mask id="mask0_408_2897" style="mask-type:alpha" maskUnits="userSpaceOnUse" x="6" y="6" width="24" height="24">
<rect x="6" y="6" width="24" height="24" fill="#D9D9D9"/>
</mask>
<g mask="url(#mask0_408_2897)">
<path d="M18 17.3603C18.5824 17.3603 19.0809 17.1616 19.4956 16.7642C19.9103 16.3667 20.1176 15.889 20.1176 15.3309C20.1176 14.7728 19.9103 14.295 19.4956 13.8976C19.0809 13.5002 18.5824 13.3015 18 13.3015C17.4176 13.3015 16.9191 13.5002 16.5044 13.8976C16.0897 14.295 15.8824 14.7728 15.8824 15.3309C15.8824 15.889 16.0897 16.3667 16.5044 16.7642C16.9191 17.1616 17.4176 17.3603 18 17.3603ZM17.2059 25.4779V22.0005C16.2868 21.873 15.4774 21.5286 14.7777 20.9673C14.078 20.406 13.6032 19.7006 13.3534 18.8512C12.1316 18.712 11.1007 18.215 10.2605 17.3603C9.42018 16.5056 9 15.4909 9 14.3162V13.6137C9 13.1093 9.18741 12.6774 9.56224 12.3182C9.93706 11.959 10.3877 11.7794 10.9141 11.7794H13.0521V11.5843C13.0521 11.0799 13.2395 10.648 13.6144 10.2888C13.9892 9.9296 14.4398 9.75 14.9662 9.75H21.0338C21.5602 9.75 22.0108 9.9296 22.3856 10.2888C22.7605 10.648 22.9479 11.0799 22.9479 11.5843V11.7794H25.0859C25.6123 11.7794 26.0629 11.959 26.4378 12.3182C26.8126 12.6774 27 13.1093 27 13.6137V14.3162C27 15.4909 26.5798 16.5056 25.7395 17.3603C24.8993 18.215 23.8684 18.712 22.6466 18.8512C22.3968 19.7006 21.922 20.406 21.2223 20.9673C20.5226 21.5286 19.7132 21.873 18.7941 22.0005V25.4779H21.767C21.992 25.4779 22.1806 25.5509 22.3327 25.6969C22.485 25.8428 22.5611 26.0236 22.5611 26.2392C22.5611 26.455 22.485 26.6357 22.3327 26.7813C22.1806 26.9271 21.992 27 21.767 27H14.233C14.008 27 13.8194 26.927 13.6673 26.7811C13.515 26.6351 13.4389 26.4543 13.4389 26.2387C13.4389 26.0229 13.515 25.8422 13.6673 25.6966C13.8194 25.5508 14.008 25.4779 14.233 25.4779H17.2059ZM13.0521 17.216V13.3015H10.9141C10.819 13.3015 10.7409 13.3307 10.6798 13.3892C10.6188 13.4478 10.5882 13.5226 10.5882 13.6137V14.3162C10.5882 15.0173 10.8197 15.6372 11.2826 16.1759C11.7454 16.7143 12.3353 17.061 13.0521 17.216ZM18.0024 20.5411C18.9306 20.5411 19.7188 20.23 20.367 19.6076C21.0152 18.9853 21.3393 18.2296 21.3393 17.3408V11.5843C21.3393 11.4932 21.3087 11.4183 21.2477 11.3598C21.1866 11.3013 21.1086 11.2721 21.0137 11.2721H14.9863C14.8914 11.2721 14.8134 11.3013 14.7523 11.3598C14.6913 11.4183 14.6607 11.4932 14.6607 11.5843V17.3408C14.6607 18.2296 14.9856 18.9853 15.6354 19.6076C16.2851 20.23 17.0741 20.5411 18.0024 20.5411ZM22.9479 17.216C23.6647 17.061 24.2546 16.7143 24.7174 16.1759C25.1803 15.6372 25.4118 15.0173 25.4118 14.3162V13.6137C25.4118 13.5226 25.3812 13.4478 25.3202 13.3892C25.2591 13.3307 25.181 13.3015 25.0859 13.3015H22.9479V17.216Z" fill="white"/>
</g>
<defs>
<linearGradient id="paint0_linear_408_2897" x1="18" y1="0" x2="18" y2="36" gradientUnits="userSpaceOnUse">
<stop offset="0.274038" stop-color="#2752E7"/>
<stop offset="1" stop-color="#2440A0"/>
</linearGradient>
</defs>
</svg>
