<svg width="36" height="36" viewBox="0 0 36 36" fill="none" xmlns="http://www.w3.org/2000/svg">
<rect width="36" height="36" rx="18" fill="url(#paint0_linear_408_2907)"/>
<mask id="mask0_408_2907" style="mask-type:alpha" maskUnits="userSpaceOnUse" x="6" y="6" width="24" height="24">
<rect x="6" y="6" width="24" height="24" fill="#D9D9D9"/>
</mask>
<g mask="url(#mask0_408_2907)">
<path d="M27.5 12.3077V23.6923C27.5 24.1974 27.325 24.625 26.975 24.975C26.625 25.325 26.1974 25.5 25.6923 25.5H10.3077C9.80258 25.5 9.375 25.325 9.025 24.975C8.675 24.625 8.5 24.1974 8.5 23.6923V12.3077C8.5 11.8026 8.675 11.375 9.025 11.025C9.375 10.675 9.80258 10.5 10.3077 10.5H25.6923C26.1974 10.5 26.625 10.675 26.975 11.025C27.325 11.375 27.5 11.8026 27.5 12.3077ZM10 14.404H26V12.3077C26 12.2307 25.9679 12.1602 25.9038 12.0962C25.8398 12.0321 25.7693 12 25.6923 12H10.3077C10.2307 12 10.1603 12.0321 10.0963 12.0962C10.0321 12.1602 10 12.2307 10 12.3077V14.404ZM10 17.596V23.6923C10 23.7692 10.0321 23.8398 10.0963 23.9038C10.1603 23.9679 10.2307 24 10.3077 24H25.6923C25.7693 24 25.8398 23.9679 25.9038 23.9038C25.9679 23.8398 26 23.7692 26 23.6923V17.596H10Z" fill="white"/>
</g>
<defs>
<linearGradient id="paint0_linear_408_2907" x1="18" y1="0" x2="18" y2="36" gradientUnits="userSpaceOnUse">
<stop offset="0.274038" stop-color="#2752E7"/>
<stop offset="1" stop-color="#2440A0"/>
</linearGradient>
</defs>
</svg>
