<svg width="36" height="36" viewBox="0 0 36 36" fill="none" xmlns="http://www.w3.org/2000/svg">
<rect width="36" height="36" rx="18" fill="url(#paint0_linear_408_2888)"/>
<mask id="mask0_408_2888" style="mask-type:alpha" maskUnits="userSpaceOnUse" x="6" y="6" width="24" height="24">
<rect x="6" y="6" width="24" height="24" fill="#D9D9D9"/>
</mask>
<g mask="url(#mask0_408_2888)">
<path d="M14.9211 21.8487C15.4197 21.8487 15.8437 21.674 16.1932 21.3247C16.5425 20.9753 16.7171 20.5513 16.7171 20.0526C16.7171 19.554 16.5425 19.13 16.1932 18.7805C15.8437 18.4312 15.4197 18.2566 14.9211 18.2566C14.4224 18.2566 13.9984 18.4312 13.6489 18.7805C13.2996 19.13 13.125 19.554 13.125 20.0526C13.125 20.5513 13.2996 20.9753 13.6489 21.3247C13.9984 21.674 14.4224 21.8487 14.9211 21.8487ZM21.0789 21.8487C21.5776 21.8487 22.0016 21.674 22.3511 21.3247C22.7004 20.9753 22.875 20.5513 22.875 20.0526C22.875 19.554 22.7004 19.13 22.3511 18.7805C22.0016 18.4312 21.5776 18.2566 21.0789 18.2566C20.5803 18.2566 20.1563 18.4312 19.8068 18.7805C19.4575 19.13 19.2829 19.554 19.2829 20.0526C19.2829 20.5513 19.4575 20.9753 19.8068 21.3247C20.1563 21.674 20.5803 21.8487 21.0789 21.8487ZM18 16.7171C18.4986 16.7171 18.9227 16.5425 19.2721 16.1932C19.6214 15.8437 19.7961 15.4197 19.7961 14.9211C19.7961 14.4224 19.6214 13.9984 19.2721 13.6489C18.9227 13.2996 18.4986 13.125 18 13.125C17.5014 13.125 17.0773 13.2996 16.7279 13.6489C16.3786 13.9984 16.2039 14.4224 16.2039 14.9211C16.2039 15.4197 16.3786 15.8437 16.7279 16.1932C17.0773 16.5425 17.5014 16.7171 18 16.7171ZM18.0018 27.75C16.6532 27.75 15.3856 27.4941 14.199 26.9823C13.0124 26.4705 11.9803 25.776 11.1026 24.8986C10.225 24.0213 9.53007 22.9896 9.01794 21.8035C8.50598 20.6174 8.25 19.3502 8.25 18.0018C8.25 16.6532 8.50589 15.3856 9.01768 14.199C9.52947 13.0124 10.224 11.9803 11.1014 11.1026C11.9787 10.225 13.0104 9.53007 14.1965 9.01794C15.3826 8.50598 16.6498 8.25 17.9982 8.25C19.3468 8.25 20.6144 8.50589 21.801 9.01768C22.9876 9.52947 24.0197 10.224 24.8974 11.1014C25.775 11.9787 26.4699 13.0104 26.9821 14.1965C27.494 15.3826 27.75 16.6498 27.75 17.9982C27.75 19.3468 27.4941 20.6144 26.9823 21.801C26.4705 22.9876 25.776 24.0197 24.8986 24.8974C24.0213 25.775 22.9896 26.4699 21.8035 26.9821C20.6174 27.494 19.3502 27.75 18.0018 27.75ZM18 26.2105C20.2921 26.2105 22.2336 25.4151 23.8243 23.8243C25.4151 22.2336 26.2105 20.2921 26.2105 18C26.2105 15.7079 25.4151 13.7664 23.8243 12.1757C22.2336 10.5849 20.2921 9.78947 18 9.78947C15.7079 9.78947 13.7664 10.5849 12.1757 12.1757C10.5849 13.7664 9.78947 15.7079 9.78947 18C9.78947 20.2921 10.5849 22.2336 12.1757 23.8243C13.7664 25.4151 15.7079 26.2105 18 26.2105Z" fill="white"/>
</g>
<defs>
<linearGradient id="paint0_linear_408_2888" x1="18" y1="0" x2="18" y2="36" gradientUnits="userSpaceOnUse">
<stop offset="0.274038" stop-color="#2752E7"/>
<stop offset="1" stop-color="#2440A0"/>
</linearGradient>
</defs>
</svg>
