<svg width="36" height="36" viewBox="0 0 36 36" fill="none" xmlns="http://www.w3.org/2000/svg">
<rect width="36" height="36" rx="18" fill="url(#paint0_linear_408_2916)"/>
<mask id="mask0_408_2916" style="mask-type:alpha" maskUnits="userSpaceOnUse" x="6" y="6" width="24" height="24">
<rect x="6" y="6" width="24" height="24" fill="#D9D9D9"/>
</mask>
<g mask="url(#mask0_408_2916)">
<path d="M12 25.5C11.0347 25.5 10.21 25.158 9.526 24.474C8.842 23.79 8.5 22.9653 8.5 22V14C8.5 13.0347 8.842 12.21 9.526 11.526C10.21 10.842 11.0347 10.5 12 10.5H24C24.9653 10.5 25.79 10.842 26.474 11.526C27.158 12.21 27.5 13.0347 27.5 14V22C27.5 22.9653 27.158 23.79 26.474 24.474C25.79 25.158 24.9653 25.5 24 25.5H12ZM12 14.25H24C24.3795 14.25 24.7375 14.3045 25.074 14.4135C25.4105 14.5225 25.7192 14.6879 26 14.9098V14C26 13.45 25.8042 12.9792 25.4125 12.5875C25.0208 12.1958 24.55 12 24 12H12C11.45 12 10.9792 12.1958 10.5875 12.5875C10.1958 12.9792 10 13.45 10 14V14.9098C10.2808 14.6879 10.5895 14.5225 10.926 14.4135C11.2625 14.3045 11.6205 14.25 12 14.25ZM10.0922 17.2405L21.323 19.9692C21.4602 20.0026 21.599 20.0042 21.7395 19.974C21.8798 19.9438 22.0071 19.882 22.1212 19.7885L25.7212 16.7635C25.5571 16.4622 25.3221 16.2179 25.0162 16.0307C24.7106 15.8436 24.3718 15.75 24 15.75H12C11.5282 15.75 11.1186 15.8882 10.7712 16.1645C10.4237 16.4407 10.1974 16.7993 10.0922 17.2405Z" fill="white"/>
</g>
<defs>
<linearGradient id="paint0_linear_408_2916" x1="18" y1="0" x2="18" y2="36" gradientUnits="userSpaceOnUse">
<stop offset="0.274038" stop-color="#2752E7"/>
<stop offset="1" stop-color="#2440A0"/>
</linearGradient>
</defs>
</svg>
