<svg width="280" height="280" viewBox="0 0 280 280" fill="none" xmlns="http://www.w3.org/2000/svg">
<path d="M209.384 199.214C209.384 199.214 226.559 194.734 239.999 172.334C255.063 147.224 248.601 103.41 228.536 82.124C209.922 62.384 168.711 58.912 144.799 68.544C122.203 77.6496 104.849 99.5344 91.0392 102.519C77.2296 105.504 60.0488 100.654 41.3841 121.184C22.7193 141.714 26.8241 188.014 48.104 203.319C69.384 218.624 100.744 200.704 127.999 188.384C155.254 176.064 159.729 202.944 209.384 199.214Z" fill="#2752E7" fill-opacity="0.71"/>
<g opacity="0.7">
<path d="M209.384 199.214C209.384 199.214 226.559 194.734 239.999 172.334C255.063 147.224 248.601 103.41 228.536 82.124C209.922 62.384 168.711 58.912 144.799 68.544C122.203 77.6496 104.849 99.5344 91.0392 102.519C77.2296 105.504 60.0488 100.654 41.3841 121.184C22.7193 141.714 26.8241 188.014 48.104 203.319C69.384 218.624 100.744 200.704 127.999 188.384C155.254 176.064 159.729 202.944 209.384 199.214Z" fill="white"/>
</g>
<path d="M203.694 154V153.966C199.125 152.449 192.114 152.964 191.072 153.586C189.965 154.327 189.013 155.278 188.272 156.386C185.811 159.878 184.046 163.812 183.075 167.972L133.375 172.592C131.544 168.638 128.783 165.094 126.011 162.954C125.219 162.291 124.306 161.787 123.323 161.47C122.89 161.419 122.452 161.434 122.024 161.515C120.221 156.29 117.667 151.25 114.475 150.931C107.755 150.259 96.0288 152.51 92.8312 159.029C89.6336 165.547 88.6312 181.821 88.6312 181.821L86.3912 184.061C84.7574 180.878 82.4851 178.066 79.716 175.801C78.9266 175.134 78.0131 174.629 77.028 174.317C76.468 174.16 74.228 174.507 71.8816 175.274C71.7864 175.185 71.6968 175.095 71.596 175.011C69.356 173.135 64.764 172.11 62.1992 176.893C59.6344 181.675 62.7144 190.73 64.2488 192.78C64.994 193.827 65.9284 194.725 67.004 195.429C68.8128 199.909 72.044 205.621 77.0168 205.884C78.7201 205.976 80.4232 205.7 82.0107 205.076C83.5981 204.452 85.0329 203.494 86.2176 202.266C89.4432 198.906 89.7904 194.186 88.5752 189.566L89.096 188.804C89.096 188.804 90.2552 190.456 94.696 189.79C95.9833 189.657 97.2038 189.151 98.2072 188.334C100.29 193.648 103.656 198.974 109.004 199.769C111.299 200.12 113.643 199.973 115.876 199.337C118.11 198.701 120.18 197.591 121.946 196.084C122.972 195.197 123.868 194.17 124.606 193.032C127.6 192.867 130.421 191.574 132.502 189.414C134.363 187.429 135.428 184.827 135.492 182.106L142.106 181.334C146.257 183.185 150.787 184.033 155.327 183.809C159.675 183.529 163.791 181.748 166.97 178.769L182.039 177.481C182.291 183.322 184.391 188.681 189.319 191.632C191.206 192.758 193.314 193.462 195.499 193.695C197.684 193.928 199.893 193.684 201.975 192.982C208.925 190.652 210.571 180.326 211.019 174.048C211.714 163.968 208.499 155.428 203.694 154Z" fill="#263238" stroke="#263238" stroke-width="0.75" stroke-linecap="round" stroke-linejoin="round"/>
<path d="M111.687 196.526C111.109 197.265 110.372 197.864 109.531 198.279" stroke="white" stroke-width="0.5" stroke-linecap="round" stroke-linejoin="round"/>
<path d="M114.402 183.254C114.402 183.254 115.069 190.534 112.588 195.154" stroke="white" stroke-width="0.5" stroke-linecap="round" stroke-linejoin="round"/>
<path d="M116.368 191.296C115.735 194.096 114.475 196.812 112.034 198.016" stroke="white" stroke-width="0.5" stroke-linecap="round" stroke-linejoin="round"/>
<path d="M119.409 182.7C119.409 182.7 120.529 194.802 114.542 197.725" stroke="white" stroke-width="0.5" stroke-linecap="round" stroke-linejoin="round"/>
<path d="M121.918 182.42C121.918 182.42 123.038 194.527 117.046 197.445" stroke="white" stroke-width="0.5" stroke-linecap="round" stroke-linejoin="round"/>
<path d="M197.467 190.904C196.824 191.717 196.024 192.393 195.115 192.892" stroke="white" stroke-width="0.5" stroke-linecap="round" stroke-linejoin="round"/>
<path d="M201.97 175.79C201.97 175.79 201.611 184.072 198.537 189.342" stroke="white" stroke-width="0.5" stroke-linecap="round" stroke-linejoin="round"/>
<path d="M202.77 184.962C201.762 188.149 200.15 191.24 197.602 192.584" stroke="white" stroke-width="0.5" stroke-linecap="round" stroke-linejoin="round"/>
<path d="M206.943 175.174C206.943 175.174 206.343 188.972 200.088 192.276" stroke="white" stroke-width="0.5" stroke-linecap="round" stroke-linejoin="round"/>
<path d="M209.44 174.871C209.44 174.871 208.841 188.664 202.586 191.974" stroke="white" stroke-width="0.5" stroke-linecap="round" stroke-linejoin="round"/>
<path d="M78.5961 204.014C78.1195 204.744 77.4911 205.363 76.7537 205.828" stroke="white" stroke-width="0.5" stroke-linecap="round" stroke-linejoin="round"/>
<path d="M79.4809 192.237C79.4809 192.237 81.0601 198.397 79.2793 202.703" stroke="white" stroke-width="0.5" stroke-linecap="round" stroke-linejoin="round"/>
<path d="M82.4096 198.85C82.1576 201.342 81.2896 203.851 79.1224 205.229" stroke="white" stroke-width="0.5" stroke-linecap="round" stroke-linejoin="round"/>
<path d="M84.2072 191.038C84.2072 191.038 86.8392 201.258 81.4856 204.624" stroke="white" stroke-width="0.5" stroke-linecap="round" stroke-linejoin="round"/>
<path d="M86.5705 190.434C86.5705 190.434 89.2081 200.654 83.8489 204.025" stroke="white" stroke-width="0.5" stroke-linecap="round" stroke-linejoin="round"/>
<path d="M105.874 179.105C107.206 186.726 106.372 193.245 104.02 193.665C101.668 194.085 98.672 188.227 97.3392 180.606C96.0064 172.984 96.8408 166.466 99.1984 166.046C101.556 165.626 104.541 171.478 105.874 179.105Z" fill="#2752E7" fill-opacity="0.71" stroke="#263238" stroke-linecap="round" stroke-linejoin="round"/>
<path d="M104.686 179.267C105.056 182.19 104.714 184.638 103.914 184.738C103.113 184.839 102.172 182.554 101.802 179.631C101.433 176.708 101.802 174.255 102.575 174.154C103.348 174.054 104.317 176.344 104.686 179.267Z" fill="#2752E7" fill-opacity="0.71" stroke="#263238" stroke-linecap="round" stroke-linejoin="round"/>
<path d="M99.0697 172.278C99.1491 171.297 99.3045 170.324 99.5345 169.366" stroke="#263238" stroke-width="0.75" stroke-linecap="round" stroke-linejoin="round"/>
<path d="M102.782 190.915C101.233 187.812 100.124 184.508 99.4896 181.098C99.0679 178.687 98.8971 176.237 98.98 173.79" stroke="#263238" stroke-width="0.75" stroke-linecap="round" stroke-linejoin="round"/>
<path d="M72.9166 201.756C74.6095 201.286 74.7505 196.463 73.2315 190.982C71.7125 185.501 69.1087 181.438 67.4159 181.907C65.723 182.376 65.582 187.2 67.101 192.681C68.62 198.162 71.2237 202.225 72.9166 201.756Z" fill="#2752E7" fill-opacity="0.71" stroke="#263238" stroke-linecap="round" stroke-linejoin="round"/>
<path d="M72.6768 191.201C73.2088 193.284 73.1808 195.087 72.6096 195.233C72.0384 195.378 71.1536 193.805 70.6216 191.727C70.0896 189.65 70.1176 187.835 70.6888 187.695C71.26 187.555 72.1448 189.118 72.6768 191.201Z" stroke="#263238" stroke-width="0.75" stroke-linecap="round" stroke-linejoin="round"/>
<path d="M67.984 186.648C67.9528 185.93 67.9771 185.211 68.0568 184.498" stroke="#263238" stroke-width="0.75" stroke-linecap="round" stroke-linejoin="round"/>
<path d="M72.3465 199.802C70.9462 197.696 69.8472 195.404 69.0817 192.993C68.5584 191.286 68.2131 189.529 68.0513 187.751" stroke="#263238" stroke-width="0.75" stroke-linecap="round" stroke-linejoin="round"/>
<path d="M192.959 97.44C187.057 85.26 184.509 84.2016 180.583 84C176.658 83.7984 167.39 82.6448 157.063 84.2968C157.063 84.2968 128.257 83.7928 105.969 97.2944C82.7009 111.39 71.3777 123.771 69.7929 130.189C68.2081 136.606 62.7985 153.328 60.2337 162.915C57.6689 172.502 55.9217 180.947 59.1921 188.709C61.1689 193.402 63.2745 194.813 65.9793 194.79C65.5655 194.048 65.2007 193.279 64.8873 192.489C62.1993 185.83 62.5241 176.305 65.5929 175.689C68.6617 175.073 70.4929 181.451 72.3465 188.406C72.7145 189.939 73.2128 191.438 73.8361 192.886C78.4225 191.156 85.7697 187.286 95.5361 183.266C94.609 177.157 94.5882 170.945 95.4745 164.83C96.9193 155.271 103.029 153.16 105.689 158.978C107.89 163.772 108.707 174.502 108.926 178.119C112.846 176.77 116.127 175.879 118.149 175.756C118.149 175.756 151.57 168.207 176.204 167.602C200.839 166.998 213.164 166.41 213.164 166.41C213.164 166.41 198.862 109.598 192.959 97.44Z" fill="white"/>
<mask id="mask0_48_6846" style="mask-type:luminance" maskUnits="userSpaceOnUse" x="57" y="83" width="157" height="112">
<path d="M192.959 97.44C187.057 85.26 184.509 84.2016 180.583 84C176.658 83.7984 167.39 82.6448 157.063 84.2968C157.063 84.2968 128.257 83.7928 105.969 97.2944C82.7009 111.39 71.3777 123.771 69.7929 130.189C68.2081 136.606 62.7985 153.328 60.2337 162.915C57.6689 172.502 55.9217 180.947 59.1921 188.709C61.1689 193.402 63.2745 194.813 65.9793 194.79C65.5655 194.048 65.2007 193.279 64.8873 192.489C62.1993 185.83 62.5241 176.305 65.5929 175.689C68.6617 175.073 70.4929 181.451 72.3465 188.406C72.7145 189.939 73.2128 191.438 73.8361 192.886C78.4225 191.156 85.7697 187.286 95.5361 183.266C94.609 177.157 94.5882 170.945 95.4745 164.83C96.9193 155.271 103.029 153.16 105.689 158.978C107.89 163.772 108.707 174.502 108.926 178.119C112.846 176.77 116.127 175.879 118.149 175.756C118.149 175.756 151.57 168.207 176.204 167.602C200.839 166.998 213.164 166.41 213.164 166.41C213.164 166.41 198.862 109.598 192.959 97.44Z" fill="white"/>
</mask>
<g mask="url(#mask0_48_6846)">
<path d="M114.201 156.206C114.201 156.206 110.813 160.843 106.691 161.834C108.147 167.177 108.747 175.084 108.931 178.074C112.431 176.87 115.405 176.025 117.443 175.778C117.74 174.031 117.919 172.917 117.919 172.917L114.201 156.206Z" fill="#2752E7" fill-opacity="0.71"/>
<path opacity="0.2" d="M72.4922 188.91C74.049 189.067 75.085 189.739 78.249 188.95C83.849 187.555 79.8226 176.747 89.113 172.334C90.9165 171.425 92.879 170.873 94.8922 170.71C94.9757 168.733 95.1626 166.761 95.4522 164.802C95.6988 162.879 96.2667 161.011 97.1322 159.275C94.5954 158.497 94.1362 157.752 89.813 159.807C80.517 164.22 81.9114 175.605 76.3394 176.999C71.893 178.119 71.6466 176.333 68.2698 177.162C69.849 179.402 71.0698 183.764 72.3018 188.362C72.397 188.569 72.4418 188.72 72.4922 188.91Z" fill="#2752E7" fill-opacity="0.71"/>
<g style="mix-blend-mode:multiply">
<path opacity="0.2" d="M63.3474 179.34C60.7434 181.132 59.1922 183.82 58.3074 186.088C58.5474 186.983 58.8429 187.862 59.1922 188.72C61.169 193.413 63.2746 194.824 65.9794 194.802C65.5655 194.059 65.2008 193.29 64.8874 192.5C63.1794 188.261 62.7202 182.868 63.3474 179.34Z" fill="#2752E7" fill-opacity="0.71"/>
</g>
<g style="mix-blend-mode:multiply" opacity="0.2">
<path d="M180.583 84L179.57 83.9384C138.729 94.388 122.114 143.612 116.396 167.334C116.704 169.691 117.04 172.004 117.404 174.255C118.099 174.121 117.617 175.756 118.149 175.728C118.149 175.728 151.57 168.179 176.204 167.574C200.839 166.97 213.164 166.382 213.164 166.382C213.164 166.382 198.862 109.598 192.959 97.44C187.057 85.2824 184.509 84.1792 180.583 84Z" fill="#2752E7" fill-opacity="0.71"/>
</g>
</g>
<path d="M192.959 97.44C187.057 85.26 184.509 84.2016 180.583 84C176.658 83.7984 167.39 82.6448 157.063 84.2968C157.063 84.2968 128.257 83.7928 105.969 97.2944C82.7009 111.39 71.3777 123.771 69.7929 130.189C68.2081 136.606 62.7985 153.328 60.2337 162.915C57.6689 172.502 55.9217 180.947 59.1921 188.709C61.1689 193.402 63.2745 194.813 65.9793 194.79C65.5655 194.048 65.2007 193.279 64.8873 192.489C62.1993 185.83 62.5241 176.305 65.5929 175.689C68.6617 175.073 70.4929 181.451 72.3465 188.406C72.7145 189.939 73.2128 191.438 73.8361 192.886C78.4225 191.156 85.7697 187.286 95.5361 183.266C94.609 177.157 94.5882 170.945 95.4745 164.83C96.9193 155.271 103.029 153.16 105.689 158.978C107.89 163.772 108.707 174.502 108.926 178.119C112.846 176.77 116.127 175.879 118.149 175.756C118.149 175.756 151.57 168.207 176.204 167.602C200.838 166.998 213.164 166.41 213.164 166.41C213.164 166.41 198.862 109.598 192.959 97.44Z" stroke="#263238" stroke-linecap="round" stroke-linejoin="round"/>
<path opacity="0.2" d="M70.7113 158.906C71.0957 159.225 71.5636 159.429 72.0598 159.491C72.5559 159.554 73.0596 159.473 73.5113 159.258C75.2753 158.553 75.4545 155.898 75.4545 155.898L78.0977 155.725L78.6297 147.431L72.8057 149.722C72.8057 149.722 71.2433 157.847 70.7113 158.906Z" fill="#2752E7" fill-opacity="0.71"/>
<path d="M63.0729 183.159C61.4007 184.048 59.8195 185.098 58.3521 186.295C58.5842 187.116 58.8647 187.922 59.1921 188.709C61.1689 193.402 63.2745 194.813 65.9793 194.79C65.5654 194.048 65.2007 193.279 64.8873 192.489C63.7392 189.51 63.1251 186.351 63.0729 183.159Z" fill="#263238" stroke="#263238" stroke-width="0.75" stroke-linecap="round" stroke-linejoin="round"/>
<path d="M71.9936 178.534C71.842 178.533 71.6935 178.491 71.5634 178.414C71.4334 178.336 71.3267 178.224 71.2544 178.091C71.1525 177.898 71.1306 177.672 71.1934 177.462C71.2562 177.253 71.3988 177.077 71.5904 176.971C71.7248 176.898 82.6224 170.145 91.6496 165.346C91.747 165.294 91.8537 165.262 91.9636 165.251C92.0735 165.24 92.1843 165.251 92.2899 165.284C92.3955 165.316 92.4936 165.369 92.5788 165.439C92.664 165.509 92.7345 165.595 92.7864 165.693C92.8382 165.79 92.8704 165.897 92.881 166.007C92.8916 166.117 92.8805 166.228 92.8482 166.333C92.816 166.439 92.7633 166.537 92.6931 166.622C92.6229 166.707 92.5366 166.778 92.4392 166.83C83.4176 171.623 72.5256 178.371 72.3912 178.444C72.2686 178.508 72.1316 178.538 71.9936 178.534Z" fill="#263238" stroke="#263238" stroke-miterlimit="10"/>
<path d="M86.24 122.399L85.8536 132.014C85.7696 133.325 86.5312 133.958 87.5336 133.392L103.018 123.312C103.587 122.915 104.046 122.38 104.351 121.757C104.657 121.134 104.799 120.443 104.765 119.75L104.67 109.026C104.558 108.052 103.897 107.654 103.085 108.074C100.173 109.581 94.5504 114.677 87.8304 119.42C87.3751 119.781 86.9989 120.232 86.7253 120.744C86.4517 121.257 86.2865 121.82 86.24 122.399Z" fill="#2752E7" fill-opacity="0.71" stroke="#263238" stroke-linecap="round" stroke-linejoin="round"/>
<path d="M96.7008 119.689L104.266 121.537" stroke="#263238" stroke-linecap="round" stroke-linejoin="round"/>
<path d="M86.3521 133.437L91.0224 123.122" stroke="#263238" stroke-linecap="round" stroke-linejoin="round"/>
<path d="M86.3297 122.08L93.1953 122.937C93.9065 123.043 94.7913 122.455 95.4353 121.436L104.395 108.606" stroke="#263238" stroke-linecap="round" stroke-linejoin="round"/>
<path d="M124.662 104.535L126.252 128.615C126.293 129.31 126.476 129.99 126.788 130.612C127.101 131.234 127.537 131.786 128.07 132.234C128.603 132.682 129.221 133.017 129.888 133.218C130.555 133.419 131.255 133.482 131.947 133.403L185.439 126.459C186.175 126.374 186.885 126.13 187.519 125.744C188.152 125.358 188.694 124.839 189.107 124.223C189.521 123.607 189.795 122.908 189.912 122.176C190.029 121.443 189.985 120.694 189.784 119.98L183.03 96.1016C182.711 94.9668 182.009 93.9774 181.044 93.3008C180.078 92.6242 178.909 92.302 177.733 92.3887C169.064 93.0271 148.271 94.8919 128.643 99.2655C127.465 99.5333 126.419 100.209 125.69 101.173C124.962 102.138 124.597 103.328 124.662 104.535Z" fill="#2752E7" fill-opacity="0.71" stroke="#263238" stroke-linecap="round" stroke-linejoin="round"/>
<path d="M164.422 112L188.843 123.57" stroke="#263238" stroke-linecap="round" stroke-linejoin="round"/>
<path d="M128.279 132.345L148.904 113.887" stroke="#263238" stroke-linecap="round" stroke-linejoin="round"/>
<path d="M124.841 103.902L154.437 116.071C155.548 116.525 156.767 116.647 157.946 116.421C159.125 116.195 160.213 115.632 161.078 114.8L182.174 94.8807" stroke="#263238" stroke-linecap="round" stroke-linejoin="round"/>
<path d="M183.947 129.867C188.974 129.744 192.951 125.638 192.83 120.697C192.708 115.757 188.534 111.852 183.507 111.975C178.479 112.099 174.502 116.205 174.624 121.145C174.746 126.086 178.92 129.991 183.947 129.867Z" fill="#263238" stroke="#263238" stroke-width="0.75" stroke-linecap="round" stroke-linejoin="round"/>
<path d="M182.745 125.194H182.717C182.54 125.194 182.366 125.153 182.208 125.073C182.05 124.993 181.914 124.877 181.81 124.734L178.231 119.795C178.057 119.555 177.985 119.254 178.032 118.961C178.078 118.667 178.24 118.404 178.48 118.23C178.721 118.055 179.021 117.984 179.315 118.03C179.608 118.077 179.871 118.239 180.046 118.479L182.717 122.164L189.101 113.344C189.275 113.103 189.538 112.942 189.832 112.895C190.125 112.848 190.425 112.92 190.666 113.095C190.907 113.269 191.068 113.532 191.115 113.826C191.162 114.119 191.09 114.419 190.915 114.66L183.635 124.74C183.532 124.879 183.398 124.993 183.243 125.072C183.089 125.15 182.918 125.192 182.745 125.194Z" fill="white" stroke="#263238" stroke-linecap="round" stroke-linejoin="round"/>
<path d="M148.921 149.33C148.921 149.33 167.961 145.678 181.009 145.936L181.793 149.072C181.793 149.072 154.398 150.371 149.179 152.992L148.921 149.33Z" fill="#263238" stroke="#263238" stroke-width="0.75" stroke-linecap="round" stroke-linejoin="round"/>
<path d="M149.178 152.981L149.738 156.117C149.796 156.466 149.989 156.779 150.275 156.988C150.56 157.198 150.917 157.287 151.267 157.237C156.044 156.554 172.81 154.252 181.507 154.465C181.721 154.471 181.934 154.427 182.128 154.336C182.322 154.245 182.492 154.109 182.623 153.94C182.755 153.771 182.845 153.573 182.885 153.362C182.926 153.152 182.916 152.935 182.857 152.729L181.815 149.083" stroke="#263238" stroke-linecap="round" stroke-linejoin="round"/>
<path d="M79.6992 147.442L79.5928 134.506L80.2368 121.206C80.2416 121.079 80.208 120.953 80.1402 120.846C80.0724 120.738 79.9737 120.653 79.857 120.602C79.7403 120.551 79.6109 120.537 79.4859 120.561C79.3608 120.585 79.2458 120.646 79.156 120.736C76.748 123.2 72.6264 126.929 71.4056 129.987C69.8208 133.946 67.9448 153.434 67.9448 153.434L79.6992 147.442Z" fill="#263238" stroke="#263238" stroke-width="0.75" stroke-linecap="round" stroke-linejoin="round"/>
<path d="M64.7865 144.844H62.9105C61.9548 144.844 61.1801 145.619 61.1801 146.574V156.24C61.1801 157.196 61.9548 157.97 62.9105 157.97H64.7865C65.7421 157.97 66.5169 157.196 66.5169 156.24V146.574C66.5169 145.619 65.7421 144.844 64.7865 144.844Z" fill="#263238" stroke="#263238" stroke-width="0.75" stroke-linecap="round" stroke-linejoin="round"/>
<path d="M65.968 135.817C66.8561 135.987 67.7234 136.252 68.5552 136.606C69.245 136.946 69.8718 137.4 70.4088 137.95L73.2088 134.249C73.2088 134.249 69.104 132.53 68.3256 131.482L67.5528 130.43L65.968 135.817Z" fill="white"/>
<mask id="mask1_48_6846" style="mask-type:luminance" maskUnits="userSpaceOnUse" x="65" y="130" width="9" height="8">
<path d="M65.968 135.817C66.8561 135.987 67.7234 136.252 68.5552 136.606C69.245 136.946 69.8718 137.4 70.4088 137.95L73.2088 134.249C73.2088 134.249 69.104 132.53 68.3256 131.482L67.5528 130.43L65.968 135.817Z" fill="white"/>
</mask>
<g mask="url(#mask1_48_6846)">
<g style="mix-blend-mode:multiply" opacity="0.5">
<path d="M68.32 131.483L67.5976 130.48L67.5136 130.536L65.968 135.8C65.968 135.8 66.2648 135.856 66.6848 135.957L70.6888 133.056C69.8137 132.674 69.0121 132.141 68.32 131.483Z" fill="#2752E7" fill-opacity="0.71"/>
</g>
</g>
<path d="M65.968 135.817C66.8561 135.987 67.7234 136.252 68.5552 136.606C69.245 136.946 69.8718 137.4 70.4088 137.95L73.2088 134.249C73.2088 134.249 69.104 132.53 68.3256 131.482L67.5528 130.43L65.968 135.817Z" stroke="#263238" stroke-width="0.75" stroke-linecap="round" stroke-linejoin="round"/>
<path d="M71.8817 132.675L68.4601 137.038L68.9249 138.522L74.1385 133.106L71.8817 132.675Z" fill="#2752E7" fill-opacity="0.71" stroke="#263238" stroke-linecap="round" stroke-linejoin="round"/>
<path d="M66.4049 120.35C64.0921 118.558 58.0665 119.7 56.8849 123.945C56.1569 126.56 56.5601 130.48 56.5601 130.48L63.4257 129.024L63.9857 129.87C65.1057 131.55 67.5305 130.43 68.1577 129.87C68.4993 129.573 68.4769 128.699 68.3873 127.977L68.6617 127.915C68.6617 127.915 68.7121 122.147 66.4049 120.35Z" fill="#263238" stroke="#263238" stroke-width="0.75" stroke-linecap="round" stroke-linejoin="round"/>
<path d="M63.8401 128.509C60.8266 128.173 57.7764 128.463 54.8801 129.36C50.4001 130.861 49.7113 132.16 52.9201 132.082C56.1289 132.003 63.8401 128.509 63.8401 128.509Z" fill="#263238" stroke="#263238" stroke-width="0.75" stroke-linecap="round" stroke-linejoin="round"/>
<path d="M58.3072 126.879C58.8299 126.879 59.2536 126.3 59.2536 125.586C59.2536 124.871 58.8299 124.292 58.3072 124.292C57.7846 124.292 57.3608 124.871 57.3608 125.586C57.3608 126.3 57.7846 126.879 58.3072 126.879Z" fill="#2752E7" fill-opacity="0.71"/>
<path d="M79.5928 134.506C79.5928 134.506 73.4608 132.95 71.5736 134.383C69.6864 135.817 69.2048 138.186 69.8096 141.058C70.4144 143.931 71.8872 151.486 71.8872 151.486L79.6992 147.442L79.5928 134.506Z" fill="#263238" stroke="#263238" stroke-width="0.75" stroke-linecap="round" stroke-linejoin="round"/>
<path d="M69.8601 150.282C69.8601 150.282 69.5297 153.182 69.1433 153.591C68.7569 154 58.5649 145.438 57.9433 144.631C57.3217 143.825 57.7473 140.946 57.9433 140.045C58.1393 139.143 57.8089 138.65 56.8233 139.272C55.8377 139.894 56.1009 142.481 56.1009 142.481C56.1009 142.481 53.0937 141.758 52.4945 141.674C51.8953 141.59 51.3745 142.335 51.4641 142.929C51.5537 143.522 52.3433 143.573 52.3433 143.573C52.1413 144.432 52.1978 145.332 52.5057 146.16C53.0321 147.246 53.6257 147.93 54.7457 148.198C55.9012 148.379 57.0712 148.45 58.2401 148.411C58.2401 148.411 63.4481 153.373 64.9601 155.226C66.4721 157.08 69.6585 159.6 71.2433 159.146C72.8281 158.693 74.3401 150.78 74.3401 150.78L69.8601 150.282Z" fill="white"/>
<mask id="mask2_48_6846" style="mask-type:luminance" maskUnits="userSpaceOnUse" x="51" y="138" width="24" height="22">
<path d="M69.8601 150.282C69.8601 150.282 69.5297 153.182 69.1433 153.591C68.7569 154 58.5649 145.438 57.9433 144.631C57.3217 143.825 57.7473 140.946 57.9433 140.045C58.1393 139.143 57.8089 138.65 56.8233 139.272C55.8377 139.894 56.1009 142.481 56.1009 142.481C56.1009 142.481 53.0937 141.758 52.4945 141.674C51.8953 141.59 51.3745 142.335 51.4641 142.929C51.5537 143.522 52.3433 143.573 52.3433 143.573C52.1413 144.432 52.1978 145.332 52.5057 146.16C53.0321 147.246 53.6257 147.93 54.7457 148.198C55.9012 148.379 57.0712 148.45 58.2401 148.411C58.2401 148.411 63.4481 153.373 64.9601 155.226C66.4721 157.08 69.6585 159.6 71.2433 159.146C72.8281 158.693 74.3401 150.78 74.3401 150.78L69.8601 150.282Z" fill="white"/>
</mask>
<g mask="url(#mask2_48_6846)">
<g style="mix-blend-mode:multiply" opacity="0.5">
<path d="M69.1432 153.591L72.1224 154.582C72.2169 155.207 72.0848 155.845 71.7501 156.382C71.4153 156.918 70.8998 157.316 70.2968 157.506C68.9808 157.942 66.6176 156.447 64.9376 155.187L64.988 155.249C66.528 157.108 69.6864 159.622 71.2712 159.169C72.856 158.715 74.368 150.802 74.368 150.802L69.86 150.242C69.86 150.242 69.5296 153.182 69.1432 153.591Z" fill="#2752E7" fill-opacity="0.71"/>
</g>
</g>
<path d="M69.8601 150.282C69.8601 150.282 69.5297 153.182 69.1433 153.591C68.7569 154 58.5649 145.438 57.9433 144.631C57.3217 143.825 57.7473 140.946 57.9433 140.045C58.1393 139.143 57.8089 138.65 56.8233 139.272C55.8377 139.894 56.1009 142.481 56.1009 142.481C56.1009 142.481 53.0937 141.758 52.4945 141.674C51.8953 141.59 51.3745 142.335 51.4641 142.929C51.5537 143.522 52.3433 143.573 52.3433 143.573C52.1413 144.432 52.1978 145.332 52.5057 146.16C53.0321 147.246 53.6257 147.93 54.7457 148.198C55.9012 148.379 57.0712 148.45 58.2401 148.411C58.2401 148.411 63.4481 153.373 64.9601 155.226C66.4721 157.08 69.6585 159.6 71.2433 159.146C72.8281 158.693 74.3401 150.78 74.3401 150.78L69.8601 150.282Z" stroke="#263238" stroke-width="0.75" stroke-linecap="round" stroke-linejoin="round"/>
<path d="M59.6737 146.205L58.2401 148.434L58.9737 148.932L60.4409 146.832L59.6737 146.205Z" fill="#263238" stroke="#263238" stroke-miterlimit="10"/>
<path d="M59.1808 148.305C59.4901 148.305 59.7408 148.054 59.7408 147.745C59.7408 147.436 59.4901 147.185 59.1808 147.185C58.8716 147.185 58.6208 147.436 58.6208 147.745C58.6208 148.054 58.8716 148.305 59.1808 148.305Z" fill="white" stroke="#263238" stroke-width="0.75" stroke-linecap="round" stroke-linejoin="round"/>
<path d="M57.8088 131.197C57.8088 131.197 58.1504 132.042 58.7216 133.526C59.2928 135.01 62.3616 138.141 63.8624 138.32C65.3632 138.499 67.1608 133.045 67.4464 131.919C67.5416 131.55 67.6368 130.956 67.6368 130.956C67.6368 130.956 69.524 130.066 69.0872 128.99C68.6504 127.915 67.7656 127.422 67.3456 127.753C66.9256 128.083 66.8528 129.478 66.2256 129.489C65.5984 129.5 65.2568 129.304 64.7024 128.565C64.148 127.826 58.4024 129.36 57.8088 131.197Z" fill="white"/>
<mask id="mask3_48_6846" style="mask-type:luminance" maskUnits="userSpaceOnUse" x="57" y="127" width="13" height="12">
<path d="M57.8088 131.197C57.8088 131.197 58.1504 132.042 58.7216 133.526C59.2928 135.01 62.3616 138.141 63.8624 138.32C65.3632 138.499 67.1608 133.045 67.4464 131.919C67.5416 131.55 67.6368 130.956 67.6368 130.956C67.6368 130.956 69.524 130.066 69.0872 128.99C68.6504 127.915 67.7656 127.422 67.3456 127.753C66.9256 128.083 66.8528 129.478 66.2256 129.489C65.5984 129.5 65.2568 129.304 64.7024 128.565C64.148 127.826 58.4024 129.36 57.8088 131.197Z" fill="white"/>
</mask>
<g mask="url(#mask3_48_6846)">
<path opacity="0.5" d="M64.6912 128.565C64.1312 127.831 58.4024 129.365 57.8088 131.197L58.1336 132.025C60.3235 130.705 62.7033 129.728 65.1896 129.13C65.0039 128.96 64.8368 128.77 64.6912 128.565Z" fill="#2752E7" fill-opacity="0.71"/>
<g style="mix-blend-mode:multiply">
<path opacity="0.5" d="M69.0144 128.839C68.5552 127.876 67.7432 127.439 67.3344 127.753C67.0782 128.087 66.8881 128.467 66.7744 128.873C67.5183 128.789 68.2684 128.778 69.0144 128.839Z" fill="#2752E7" fill-opacity="0.71"/>
</g>
</g>
<path d="M57.8088 131.197C57.8088 131.197 58.1504 132.042 58.7216 133.526C59.2928 135.01 62.3616 138.141 63.8624 138.32C65.3632 138.499 67.1608 133.045 67.4464 131.919C67.5416 131.55 67.6368 130.956 67.6368 130.956C67.6368 130.956 69.524 130.066 69.0872 128.99C68.6504 127.915 67.7656 127.422 67.3456 127.753C66.9256 128.083 66.8528 129.478 66.2256 129.489C65.5984 129.5 65.2568 129.304 64.7024 128.565C64.148 127.826 58.4024 129.36 57.8088 131.197Z" stroke="#263238" stroke-width="0.75" stroke-linecap="round" stroke-linejoin="round"/>
<path d="M59.8417 131.6C59.9425 131.942 59.9089 132.255 59.7745 132.294C59.6401 132.334 59.4441 132.087 59.3433 131.734C59.2425 131.382 59.2761 131.079 59.4105 131.04C59.5449 131.001 59.7409 131.27 59.8417 131.6Z" fill="#263238" stroke="#263238" stroke-miterlimit="10"/>
<path d="M58.8 130.648C59.584 130.424 59.92 131.012 60.0152 131.555L60.1608 132.199L60.6481 134.691L61.3873 134.378" stroke="#263238" stroke-width="0.5" stroke-linecap="round" stroke-linejoin="round"/>
<path d="M61.9921 130.838C62.1624 130.652 62.3744 130.507 62.6108 130.418C62.8473 130.328 63.1015 130.296 63.3529 130.323" stroke="#263238" stroke-width="0.5" stroke-linecap="round" stroke-linejoin="round"/>
<path d="M62.6416 129.287C62.323 129.354 62.0306 129.511 61.8 129.741C61.5693 129.971 61.4104 130.262 61.3424 130.581" stroke="#263238" stroke-width="0.5" stroke-linecap="round" stroke-linejoin="round"/>
<path d="M62.0537 135.184C62.0537 135.184 63.6777 134.859 63.8065 133.694" stroke="#263238" stroke-width="0.5" stroke-linecap="round" stroke-linejoin="round"/>
<path d="M75.8408 154.482L67.6425 152.197C67.6425 152.197 68.3649 138.197 69.6305 135.828C71.6017 132.149 76.1209 133.806 76.9721 138.432C77.7673 142.8 75.8408 154.482 75.8408 154.482Z" fill="#2752E7" fill-opacity="0.71" stroke="#263238" stroke-linecap="round" stroke-linejoin="round"/>
<path d="M67.8385 150.64C67.8385 150.64 72.3185 151.67 75.0457 152.566" stroke="#263238" stroke-width="0.5" stroke-linecap="round" stroke-linejoin="round"/>
<path d="M74.9337 133.381C74.9337 133.381 77.5993 133.588 79.3409 135.022" stroke="#2752E7" stroke-opacity="0.71" stroke-width="0.5" stroke-linecap="round" stroke-linejoin="round"/>
<path d="M121.906 169.193C121.906 169.193 109.967 173.404 108.875 174.552C107.783 175.7 107.895 180.18 110.471 182.358C113.047 184.537 131.41 179.598 144.536 178.158C157.662 176.719 186.48 174.602 198.24 174.031C210 173.46 215.348 175.011 216.378 171.343C217.409 167.675 217.28 163.755 215.04 162.96C212.8 162.165 171.987 155.63 121.906 169.193Z" fill="#263238" stroke="#263238" stroke-width="0.75" stroke-linecap="round" stroke-linejoin="round"/>
<path d="M108.024 176.999C108.024 176.999 108.584 181.854 111.569 182.599C114.554 183.344 150.024 176.624 170.929 175.879C191.834 175.134 210.129 174.574 210.129 174.574" stroke="white" stroke-width="0.5" stroke-linecap="round" stroke-linejoin="round"/>
<path d="M125.35 179.463C139.216 176.103 167.737 171.354 215.729 172.704" stroke="white" stroke-width="0.5" stroke-linecap="round" stroke-linejoin="round"/>
<path d="M113.982 182.42C113.982 182.42 117.169 181.647 122.013 180.326" stroke="white" stroke-width="0.5" stroke-linecap="round" stroke-linejoin="round"/>
<path d="M116.906 182.974C117.056 185.056 117 187.148 116.738 189.218" stroke="white" stroke-width="0.5" stroke-linecap="round" stroke-linejoin="round"/>
<path d="M116.396 93.4248C116.396 93.4248 113.725 96.5552 113.518 99.3608" stroke="#263238" stroke-width="0.75" stroke-linecap="round" stroke-linejoin="round"/>
<path d="M113.238 101.623C113.238 101.623 111.227 133.605 116.547 167.642" stroke="#263238" stroke-width="0.75" stroke-linecap="round" stroke-linejoin="round"/>
<path d="M113.87 138.578C113.87 138.578 109.53 140.09 109.474 142.05C109.329 147.319 109.883 158.564 111.031 159.656C112.179 160.748 115.746 157.858 115.746 157.858C115.746 157.858 120.786 158.295 121.346 157.164C121.906 156.033 119.806 140.112 119.493 138.723C119.179 137.334 113.87 138.578 113.87 138.578Z" fill="#2752E7" fill-opacity="0.71" stroke="#263238" stroke-linecap="round" stroke-linejoin="round"/>
<path d="M204.523 146.16C205.653 146.712 206.88 147.035 208.135 147.112C206.746 141.893 205.173 136.08 203.549 130.278C202.082 130.178 200.189 130.178 200.228 130.838C200.256 131.97 203.106 145.342 204.523 146.16Z" fill="#2752E7" fill-opacity="0.71" stroke="#263238" stroke-linecap="round" stroke-linejoin="round"/>
<path d="M113.249 140.224C113.249 140.224 113.439 150.304 114.184 154.224" stroke="#263238" stroke-width="0.75" stroke-linecap="round" stroke-linejoin="round"/>
<path d="M165.598 142.554C165.598 142.554 190.585 138.527 219.699 143.674" stroke="#263238" stroke-linecap="round" stroke-linejoin="round"/>
<path d="M241.668 158.34C243.387 158.855 245.078 159.398 246.708 159.981" stroke="#263238" stroke-linecap="round" stroke-linejoin="round"/>
<path d="M196.806 150.735C196.806 150.735 216.619 151.939 235.592 156.682" stroke="#263238" stroke-linecap="round" stroke-linejoin="round"/>
<path d="M136.506 196.874C152.819 194.381 169.393 194.085 185.786 195.994" stroke="#263238" stroke-linecap="round" stroke-linejoin="round"/>
<path d="M134.456 194.236C134.456 194.236 146.182 192.769 149.996 192.478" stroke="#263238" stroke-linecap="round" stroke-linejoin="round"/>
<path d="M212.99 85.4728C214.67 85.7136 216.35 86.0328 217.874 86.3968" stroke="#263238" stroke-linecap="round" stroke-linejoin="round"/>
<path d="M188.849 84.9184C195.749 84.431 202.676 84.4778 209.569 85.0584" stroke="#263238" stroke-linecap="round" stroke-linejoin="round"/>
<path d="M98.4984 152.757C98.4984 152.757 115.231 144.833 139.44 142.632" stroke="#263238" stroke-linecap="round" stroke-linejoin="round"/>
<path d="M126.678 138.225C126.678 138.225 136.808 135.587 152.219 134.702" stroke="#263238" stroke-linecap="round" stroke-linejoin="round"/>
<path d="M98.224 194.174C100.258 197.817 103.539 200.601 107.464 202.014" stroke="#263238" stroke-linecap="round" stroke-linejoin="round"/>
<path d="M97.6641 196.694C97.6641 196.694 100.184 200.614 103.544 202.294" stroke="#263238" stroke-linecap="round" stroke-linejoin="round"/>
<path d="M180.264 182.694C180.264 182.694 181.944 190.534 188.664 193.894" stroke="#263238" stroke-linecap="round" stroke-linejoin="round"/>
<path d="M181.104 189.694C182.436 191.645 184.275 193.194 186.424 194.174" stroke="#263238" stroke-linecap="round" stroke-linejoin="round"/>
<path d="M70.3136 204.792C70.3136 204.792 71.9936 207.592 77.8736 207.592" stroke="#263238" stroke-linecap="round" stroke-linejoin="round"/>
<path d="M69.1936 206.472C71.3358 208.253 73.9763 209.329 76.7536 209.552" stroke="#263238" stroke-linecap="round" stroke-linejoin="round"/>
<path d="M144.894 199.562C130.022 200.371 115.258 202.579 100.8 206.158L101.147 206.679C101.147 206.679 113.467 204.064 136.237 209.664C159.006 215.264 160.507 219.744 185.517 219.744C210.526 219.744 234.797 213.774 234.797 213.774L231.762 212.094C209.306 202.591 178.528 197.68 144.894 199.562Z" fill="#2752E7" fill-opacity="0.71"/>
<path opacity="0.5" d="M144.894 199.562C130.022 200.371 115.258 202.579 100.8 206.158L101.147 206.679C101.147 206.679 113.467 204.064 136.237 209.664C159.006 215.264 160.507 219.744 185.517 219.744C210.526 219.744 234.797 213.774 234.797 213.774L231.762 212.094C209.306 202.591 178.528 197.68 144.894 199.562Z" fill="white"/>
<path d="M90.104 212.374C90.104 212.374 119.504 207.894 144.984 224.974" stroke="#263238" stroke-linecap="round" stroke-linejoin="round"/>
<path d="M120.904 218.814C120.904 218.814 132.944 222.454 140.224 230.294" stroke="#263238" stroke-linecap="round" stroke-linejoin="round"/>
<path d="M192.024 204.534C192.024 204.534 209.104 206.214 224.504 215.454" stroke="#263238" stroke-linecap="round" stroke-linejoin="round"/>
<path d="M245.28 219.005C248.356 220.887 251.284 223.001 254.038 225.327" stroke="#263238" stroke-linecap="round" stroke-linejoin="round"/>
<path d="M44.9176 232.215C65.3296 214.855 102.211 201.975 144.894 199.562C183.854 197.35 218.994 204.327 241.774 216.922" stroke="#263238" stroke-linecap="round" stroke-linejoin="round"/>
<path d="M169.344 204.254C169.344 204.254 186.984 205.094 198.744 209.014" stroke="#263238" stroke-linecap="round" stroke-linejoin="round"/>
<path d="M89.3648 71.3104C89.3648 71.3104 88.8048 63.5656 77.4648 63.2856C66.1248 63.0056 69.16 71.036 66.1192 72.9736C63.0784 74.9112 62.244 71.8536 59.1976 73.8024C56.1512 75.7512 57.5176 79.6152 55.048 80.1696C52.5784 80.724 49.2352 77.6776 46.1944 79.6096C43.1536 81.5416 43.148 83.2048 41.7648 83.2048C40.3816 83.2048 37.6152 82.0848 35.9576 83.2048C34.3 84.3248 32.3568 85.68 32.3568 85.68H102.357C102.357 85.68 103.186 83.188 100.117 81.5304C97.048 79.8728 95.6872 81.2504 94.584 79.8504C93.4808 78.4504 97.664 74.9112 89.3648 71.3104Z" fill="#2752E7" fill-opacity="0.71"/>
<path d="M130.956 41.6696C130.956 41.6696 130.62 37.0104 123.799 36.8424C116.978 36.6744 118.804 41.5072 116.973 42.672C115.142 43.8368 114.643 42.0056 112.812 43.1704C110.981 44.3352 111.815 46.6648 110.314 46.9952C108.814 47.3256 106.82 45.5 104.989 46.6648C103.158 47.8296 103.158 48.8264 102.323 48.8264C101.489 48.8264 99.8256 48.1656 98.8288 48.8264C97.832 49.4872 96.6672 50.3272 96.6672 50.3272H138.779C138.779 50.3272 139.278 48.8264 137.446 47.8296C135.615 46.8328 134.786 47.6616 134.12 46.8328C133.454 46.004 135.951 43.8368 130.956 41.6696Z" fill="#2752E7" fill-opacity="0.71"/>
<path opacity="0.7" d="M89.3648 71.3104C89.3648 71.3104 88.8048 63.5656 77.4648 63.2856C66.1248 63.0056 69.16 71.036 66.1192 72.9736C63.0784 74.9112 62.244 71.8536 59.1976 73.8024C56.1512 75.7512 57.5176 79.6152 55.048 80.1696C52.5784 80.724 49.2352 77.6776 46.1944 79.6096C43.1536 81.5416 43.148 83.2048 41.7648 83.2048C40.3816 83.2048 37.6152 82.0848 35.9576 83.2048C34.3 84.3248 32.3568 85.68 32.3568 85.68H102.357C102.357 85.68 103.186 83.188 100.117 81.5304C97.048 79.8728 95.6872 81.2504 94.584 79.8504C93.4808 78.4504 97.664 74.9112 89.3648 71.3104Z" fill="white"/>
<path opacity="0.8" d="M130.956 41.6696C130.956 41.6696 130.62 37.0104 123.799 36.8424C116.978 36.6744 118.804 41.5072 116.973 42.672C115.142 43.8368 114.643 42.0056 112.812 43.1704C110.981 44.3352 111.815 46.6648 110.314 46.9952C108.814 47.3256 106.82 45.5 104.989 46.6648C103.158 47.8296 103.158 48.8264 102.323 48.8264C101.489 48.8264 99.8256 48.1656 98.8288 48.8264C97.832 49.4872 96.6672 50.3272 96.6672 50.3272H138.779C138.779 50.3272 139.278 48.8264 137.446 47.8296C135.615 46.8328 134.786 47.6616 134.12 46.8328C133.454 46.004 135.951 43.8368 130.956 41.6696Z" fill="white"/>
</svg>
