<svg width="393" height="220" viewBox="0 0 393 220" fill="none" xmlns="http://www.w3.org/2000/svg">
<g clip-path="url(#clip0_523_6367)">
<path d="M0 0H393V208C393 214.627 387.627 220 381 220H12C5.37257 220 0 214.627 0 208V0Z" fill="url(#paint0_linear_523_6367)"/>
<path d="M240.327 67.3368C245.055 2.85924 435.966 -2.94318 523.152 0.922334H571V372H52.129C28.7374 355.835 -13.5801 310.856 4.28256 260.255C26.6108 197.004 264.782 260.255 276.478 178.027C281.269 144.331 236.073 125.318 240.327 67.3368Z" fill="url(#paint1_linear_523_6367)" fill-opacity="0.4"/>
<path d="M157.928 45.7609C161.547 -5.71717 307.655 -10.3497 374.381 -7.26366H411V289H13.8955C-4.00664 276.094 63.3292 267.899 76.9999 227.5C94.0883 177.001 176.644 199.784 185.595 134.134C189.262 107.232 154.673 92.0521 157.928 45.7609Z" fill="url(#paint2_linear_523_6367)" fill-opacity="0.4"/>
</g>
<defs>
<linearGradient id="paint0_linear_523_6367" x1="196.5" y1="0" x2="196.5" y2="220" gradientUnits="userSpaceOnUse">
<stop stop-color="#2752E7"/>
<stop offset="1" stop-color="#162E81"/>
</linearGradient>
<linearGradient id="paint1_linear_523_6367" x1="-172.216" y1="-597.862" x2="515.586" y2="165.964" gradientUnits="userSpaceOnUse">
<stop stop-color="white" stop-opacity="0.79"/>
<stop offset="1" stop-color="white" stop-opacity="0"/>
</linearGradient>
<linearGradient id="paint2_linear_523_6367" x1="-157.801" y1="-485.325" x2="393.274" y2="101.317" gradientUnits="userSpaceOnUse">
<stop stop-color="white" stop-opacity="0.79"/>
<stop offset="1" stop-color="white" stop-opacity="0"/>
</linearGradient>
<clipPath id="clip0_523_6367">
<path d="M0 0H393V208C393 214.627 387.627 220 381 220H12C5.37257 220 0 214.627 0 208V0Z" fill="white"/>
</clipPath>
</defs>
</svg>
